G75*
%MOMM*%
%OFA0B0*%
%FSLAX33Y33*%
%IPPOS*%
%LPD*%
%AMOC8*
5,1,8,0,0,1.08239X$1,22.5*
%
%ADD10R,1.295X1.295*%
%ADD11C,1.295*%
%ADD12R,1.270X1.270*%
%ADD13C,1.270*%
%ADD14C,1.422*%
%ADD15C,0.254*%
%ADD16C,1.016*%
D10*
X139240Y96615D03*
D11*
X141780Y96615D03*
X144320Y96615D03*
X146860Y96615D03*
X149400Y96615D03*
X151940Y96615D03*
X154480Y96615D03*
X157020Y96615D03*
X157020Y104235D03*
X154480Y104235D03*
X151940Y104235D03*
X149400Y104235D03*
X146860Y104235D03*
X144320Y104235D03*
X141780Y104235D03*
X139240Y104235D03*
D12*
X133175Y99715D03*
X164167Y97215D03*
D13*
X129670Y99715D03*
X161170Y97215D03*
D14*
X29381Y97065D02*
X27959Y97065D01*
X27959Y94525D02*
X29381Y94525D01*
X29381Y91985D02*
X27959Y91985D01*
X27959Y89445D02*
X29381Y89445D01*
X29381Y86905D02*
X27959Y86905D01*
X27959Y84365D02*
X29381Y84365D01*
X159510Y72926D02*
X159510Y71504D01*
X162050Y71504D02*
X162050Y72926D01*
X164590Y72926D02*
X164590Y71504D01*
X167130Y71504D02*
X167130Y72926D01*
X169670Y72926D02*
X169670Y71504D01*
X174750Y71504D02*
X174750Y72926D01*
X172210Y72926D02*
X172210Y71504D01*
X179830Y71504D02*
X179830Y72926D01*
X177290Y72926D02*
X177290Y71504D01*
X84130Y97004D02*
X84130Y98426D01*
X86670Y98426D02*
X86670Y97004D01*
X89210Y97004D02*
X89210Y98426D01*
D15*
X159295Y74965D02*
X162045Y72215D01*
X162050Y72215D01*
X140170Y80215D02*
X135295Y80215D01*
X109795Y97840D02*
X99920Y87965D01*
X99920Y83340D01*
X101920Y81340D01*
X102420Y81340D01*
X144170Y79215D02*
X144170Y79465D01*
X150295Y85590D01*
X159420Y85590D01*
X172045Y98215D01*
X172045Y102215D01*
X171545Y102715D01*
X163045Y102715D01*
X157045Y96715D01*
X157020Y96615D01*
X129670Y99715D02*
X131420Y99715D01*
X135545Y95590D01*
X155920Y95590D01*
X156920Y96590D01*
X157020Y96615D01*
X114420Y97590D02*
X127420Y97590D01*
X129545Y99715D01*
X129670Y99715D01*
X164045Y97215D02*
X164045Y94215D01*
X159170Y89340D01*
X164045Y97215D02*
X164167Y97215D01*
X168795Y90215D02*
X173295Y94715D01*
X174045Y99465D02*
X159295Y84715D01*
X152795Y84715D01*
X168420Y101590D02*
X163420Y101590D01*
X155545Y93715D01*
X137045Y93715D01*
X169670Y101590D02*
X166295Y98215D01*
X160795Y98215D01*
X153420Y90840D01*
X125295Y90840D01*
X119045Y85215D02*
X119045Y83090D01*
X162545Y97340D02*
X162170Y96965D01*
X162170Y96840D01*
X154795Y89465D01*
X116170Y89465D01*
X168045Y97465D02*
X168045Y96965D01*
X159545Y88465D01*
X111670Y88465D01*
X109420Y90715D01*
X169795Y97965D02*
X159795Y87965D01*
X106670Y87965D01*
X103920Y90715D01*
X168420Y104090D02*
X171670Y104090D01*
X179795Y95965D01*
X179795Y72215D01*
X179830Y72215D01*
X135545Y103215D02*
X134545Y103215D01*
X132795Y104965D01*
X39170Y104965D01*
X38795Y104590D01*
X161170Y97215D02*
X160545Y97215D01*
X153295Y89965D01*
X116920Y89965D01*
X115295Y91590D01*
X108420Y91590D01*
X106670Y89840D01*
X105920Y89840D01*
X105420Y90340D01*
X105420Y92215D01*
X108670Y95465D01*
X59170Y73215D02*
X60670Y73215D01*
X61420Y73965D01*
X78295Y73965D01*
X89920Y85590D01*
X89920Y88715D01*
X124795Y93715D02*
X127670Y96590D01*
X61795Y73090D02*
X63545Y73090D01*
X63920Y73465D01*
X78545Y73465D01*
X91170Y86090D01*
X91170Y88715D01*
X106295Y90715D02*
X116045Y100465D01*
X127545Y100465D01*
X163295Y73715D02*
X163295Y71215D01*
X162420Y70340D01*
X147170Y70340D01*
X144920Y72590D01*
X168670Y82215D02*
X158920Y82215D01*
X152920Y76215D01*
X157670Y82215D02*
X154670Y82215D01*
X148670Y76215D01*
X145045Y76215D01*
X143170Y74340D01*
X143170Y73715D01*
X153420Y82215D02*
X150295Y82215D01*
X142295Y74215D01*
X142295Y72965D01*
X141795Y72465D01*
X134420Y72465D01*
X133920Y71965D01*
X133920Y70715D01*
X149295Y83340D02*
X149295Y81965D01*
X141420Y74090D01*
X141420Y73340D01*
X142670Y81965D02*
X142670Y76090D01*
X140170Y73590D01*
X140170Y73340D01*
X139170Y82715D02*
X139170Y82465D01*
X141045Y80590D01*
X141045Y75465D01*
X138920Y73340D01*
X106170Y81340D02*
X118295Y81340D01*
X123420Y76215D01*
X136795Y76215D01*
X99670Y80590D02*
X100170Y80590D01*
X104670Y76090D01*
X117170Y76090D01*
X117170Y77340D02*
X104170Y77340D01*
X100045Y81465D01*
X97045Y81465D01*
X111670Y82715D02*
X118170Y82715D01*
X123295Y77590D01*
X122670Y81340D02*
X126920Y81340D01*
X131170Y77090D01*
X138045Y77090D01*
X138920Y76215D01*
X131045Y78465D02*
X128170Y81340D01*
X133670Y81340D02*
X133670Y80590D01*
X135795Y78465D01*
X140170Y78465D01*
X79670Y72590D02*
X64295Y72590D01*
X67170Y71465D02*
X77295Y71465D01*
X151920Y104340D02*
X150795Y104340D01*
X149920Y105215D01*
X138795Y105215D01*
X135795Y102215D01*
X98420Y102215D01*
X94920Y98715D02*
X94920Y96465D01*
X92045Y93590D01*
X92045Y83715D01*
X78920Y70590D01*
X37170Y70590D01*
X31795Y75965D01*
X31795Y87590D01*
X31795Y91340D02*
X28670Y94465D01*
X151920Y104340D02*
X151940Y104235D01*
X28670Y94525D02*
X28670Y94465D01*
X144420Y96715D02*
X145545Y96715D01*
X148670Y99840D01*
X159420Y99840D01*
X162795Y103215D01*
X171795Y103215D01*
X177170Y97840D01*
X177170Y72215D01*
X144420Y96715D02*
X144320Y96615D01*
X177170Y72215D02*
X177290Y72215D01*
X155920Y100715D02*
X128545Y100715D01*
X127920Y101340D01*
X95170Y101340D01*
X88295Y94465D01*
X171170Y101840D02*
X171170Y98090D01*
X159170Y86090D01*
X103170Y86090D01*
X100795Y83715D01*
X29045Y76965D02*
X29045Y77965D01*
X30545Y79465D01*
X30545Y84965D01*
X28670Y86840D01*
X28670Y86905D01*
X38920Y73215D02*
X35295Y73215D01*
X32670Y75840D01*
X32670Y87965D01*
X28670Y91965D02*
X31232Y89402D01*
X32670Y87965D01*
X28670Y91965D02*
X28670Y91985D01*
X139295Y104215D02*
X140295Y104215D01*
X141295Y103215D01*
X162045Y103215D01*
X163795Y104965D01*
X171545Y104965D01*
X180920Y95590D01*
X180920Y71090D01*
X180170Y70340D01*
X176670Y70340D01*
X174795Y72215D01*
X139295Y104215D02*
X139240Y104235D01*
X174750Y72215D02*
X174795Y72215D01*
X31232Y89402D02*
X33670Y91840D01*
X33670Y101590D01*
X37545Y105465D01*
X136045Y105465D01*
X136920Y104590D01*
X65920Y71465D02*
X37545Y71465D01*
X28545Y78715D02*
X28545Y84215D01*
X28670Y84340D01*
X28670Y84365D01*
X95420Y94965D02*
X99420Y90965D01*
X99420Y83090D01*
X103170Y79340D01*
X119045Y79340D01*
X158920Y80965D02*
X167045Y72840D01*
X167045Y72215D01*
X167130Y72215D01*
X95420Y93715D02*
X95420Y81840D01*
X104795Y72465D01*
X145420Y75340D02*
X157670Y75340D01*
X158670Y76340D01*
X162670Y76340D01*
X166045Y72965D01*
X166045Y71090D01*
X166795Y70340D01*
X167795Y70340D01*
X169670Y72215D01*
X132420Y104090D02*
X66795Y104090D01*
X147295Y102340D02*
X160670Y102340D01*
X59170Y103215D02*
X77545Y103215D01*
X83045Y97715D01*
X83045Y96590D01*
X86045Y93590D01*
X88670Y93590D01*
X94045Y98965D01*
X94045Y99090D01*
X94545Y99590D01*
X95295Y99590D01*
X95795Y99090D01*
X95795Y96590D01*
X94545Y95340D01*
X94545Y81465D01*
X104420Y71590D01*
X133045Y71590D01*
X134795Y71590D02*
X142670Y71590D01*
X145545Y74465D01*
X157545Y74465D01*
X158920Y75840D01*
X162420Y75840D01*
X164545Y73715D01*
X164545Y72215D01*
X164590Y72215D01*
X135510Y79397D02*
X135770Y79504D01*
X136005Y79740D01*
X136013Y79758D01*
X139452Y79758D01*
X139459Y79740D01*
X139695Y79504D01*
X140003Y79377D01*
X140337Y79377D01*
X140588Y79481D01*
X140588Y79199D01*
X140337Y79303D01*
X140003Y79303D01*
X139695Y79175D01*
X139459Y78940D01*
X139452Y78922D01*
X135984Y78922D01*
X135510Y79397D01*
X146031Y96061D02*
X146045Y96047D01*
X145135Y96047D01*
X145149Y96061D01*
X145230Y96258D01*
X145734Y96258D01*
X145886Y96410D01*
X146031Y96061D01*
X157258Y97575D02*
X157214Y97593D01*
X156825Y97593D01*
X156466Y97444D01*
X156191Y97169D01*
X156042Y96809D01*
X156042Y96420D01*
X156060Y96377D01*
X155730Y96047D01*
X155295Y96047D01*
X155309Y96061D01*
X155458Y96420D01*
X155458Y96809D01*
X155309Y97169D01*
X155034Y97444D01*
X154674Y97593D01*
X154285Y97593D01*
X153926Y97444D01*
X153651Y97169D01*
X153502Y96809D01*
X153502Y96420D01*
X153651Y96061D01*
X153665Y96047D01*
X152755Y96047D01*
X152769Y96061D01*
X152918Y96420D01*
X152918Y96809D01*
X152769Y97169D01*
X152494Y97444D01*
X152134Y97593D01*
X151745Y97593D01*
X151386Y97444D01*
X151111Y97169D01*
X150962Y96809D01*
X150962Y96420D01*
X151111Y96061D01*
X151125Y96047D01*
X150215Y96047D01*
X150229Y96061D01*
X150378Y96420D01*
X150378Y96809D01*
X150229Y97169D01*
X149954Y97444D01*
X149594Y97593D01*
X149205Y97593D01*
X148846Y97444D01*
X148571Y97169D01*
X148422Y96809D01*
X148422Y96420D01*
X148571Y96061D01*
X148585Y96047D01*
X147675Y96047D01*
X147689Y96061D01*
X147838Y96420D01*
X147838Y96809D01*
X147689Y97169D01*
X147414Y97444D01*
X147065Y97588D01*
X148859Y99383D01*
X159066Y99383D01*
X157258Y97575D01*
X102635Y80522D02*
X102895Y80629D01*
X103130Y80865D01*
X103258Y81173D01*
X103258Y81507D01*
X103130Y81815D01*
X102895Y82050D01*
X102587Y82178D01*
X102253Y82178D01*
X101945Y82050D01*
X101900Y82006D01*
X101010Y82897D01*
X101270Y83004D01*
X101505Y83240D01*
X101633Y83548D01*
X101633Y83882D01*
X101626Y83899D01*
X103359Y85633D01*
X118311Y85633D01*
X118207Y85382D01*
X118207Y85048D01*
X118334Y84740D01*
X118570Y84504D01*
X118588Y84497D01*
X118588Y83808D01*
X118570Y83800D01*
X118334Y83565D01*
X118207Y83257D01*
X118207Y83172D01*
X112388Y83172D01*
X112380Y83190D01*
X112145Y83425D01*
X111837Y83553D01*
X111503Y83553D01*
X111195Y83425D01*
X110959Y83190D01*
X110832Y82882D01*
X110832Y82548D01*
X110959Y82240D01*
X111195Y82004D01*
X111503Y81877D01*
X111837Y81877D01*
X112145Y82004D01*
X112380Y82240D01*
X112388Y82258D01*
X117980Y82258D01*
X118441Y81797D01*
X106888Y81797D01*
X106880Y81815D01*
X106645Y82050D01*
X106337Y82178D01*
X106003Y82178D01*
X105695Y82050D01*
X105459Y81815D01*
X105332Y81507D01*
X105332Y81173D01*
X105459Y80865D01*
X105695Y80629D01*
X106003Y80502D01*
X106337Y80502D01*
X106645Y80629D01*
X106880Y80865D01*
X106888Y80883D01*
X118105Y80883D01*
X118830Y80158D01*
X118570Y80050D01*
X118334Y79815D01*
X118327Y79797D01*
X103359Y79797D01*
X102635Y80522D01*
X98963Y90775D02*
X98963Y82900D01*
X99941Y81922D01*
X97763Y81922D01*
X97755Y81940D01*
X97520Y82175D01*
X97212Y82303D01*
X96878Y82303D01*
X96570Y82175D01*
X96334Y81940D01*
X96227Y81680D01*
X95877Y82029D01*
X95877Y92997D01*
X95895Y93004D01*
X96130Y93240D01*
X96238Y93500D01*
X98963Y90775D01*
X157480Y75797D02*
X153654Y75797D01*
X153758Y76048D01*
X153758Y76382D01*
X153751Y76399D01*
X158102Y80750D01*
X158209Y80490D01*
X158445Y80254D01*
X158753Y80127D01*
X159087Y80127D01*
X159104Y80134D01*
X162441Y76797D01*
X158480Y76797D01*
X158213Y76529D01*
X157480Y75797D01*
X149127Y76025D02*
X154859Y81758D01*
X156952Y81758D01*
X156959Y81740D01*
X157195Y81504D01*
X157455Y81397D01*
X153104Y77046D01*
X153087Y77053D01*
X152753Y77053D01*
X152445Y76925D01*
X152209Y76690D01*
X152082Y76382D01*
X152082Y76048D01*
X152186Y75797D01*
X148899Y75797D01*
X149127Y76025D01*
X116459Y76565D02*
X116452Y76547D01*
X104859Y76547D01*
X104524Y76883D01*
X116452Y76883D01*
X116459Y76865D01*
X116609Y76715D01*
X116459Y76565D01*
X148480Y76672D02*
X145399Y76672D01*
X150484Y81758D01*
X152702Y81758D01*
X152709Y81740D01*
X152945Y81504D01*
X153205Y81397D01*
X148480Y76672D01*
X116880Y88990D02*
X116888Y89008D01*
X154984Y89008D01*
X162478Y96502D01*
X162712Y96502D01*
X163020Y96629D01*
X163202Y96811D01*
X163202Y96443D01*
X163395Y96250D01*
X163588Y96250D01*
X163588Y94404D01*
X159354Y90171D01*
X159337Y90178D01*
X159003Y90178D01*
X158695Y90050D01*
X158459Y89815D01*
X158332Y89507D01*
X158332Y89173D01*
X158436Y88922D01*
X116812Y88922D01*
X116880Y88990D01*
X27751Y85406D02*
X27369Y85248D01*
X27313Y85192D01*
X27313Y86078D01*
X27369Y86022D01*
X27751Y85863D01*
X29000Y85863D01*
X29457Y85406D01*
X27751Y85406D01*
X27751Y90486D02*
X27369Y90328D01*
X27313Y90272D01*
X27313Y91158D01*
X27369Y91102D01*
X27751Y90943D01*
X29045Y90943D01*
X29502Y90486D01*
X27751Y90486D01*
X100377Y87775D02*
X103102Y90500D01*
X103209Y90240D01*
X103445Y90004D01*
X103753Y89877D01*
X104087Y89877D01*
X104104Y89884D01*
X106480Y87508D01*
X159941Y87508D01*
X158980Y86547D01*
X102980Y86547D01*
X100979Y84546D01*
X100962Y84553D01*
X100628Y84553D01*
X100377Y84449D01*
X100377Y87775D01*
X170187Y102258D02*
X170436Y102258D01*
X170363Y102082D01*
X170187Y102258D01*
X170505Y98440D02*
X170270Y98675D01*
X169962Y98803D01*
X169628Y98803D01*
X169320Y98675D01*
X169084Y98440D01*
X168957Y98132D01*
X168957Y97798D01*
X168964Y97780D01*
X168863Y97680D01*
X168755Y97940D01*
X168520Y98175D01*
X168212Y98303D01*
X167878Y98303D01*
X167570Y98175D01*
X167334Y97940D01*
X167207Y97632D01*
X167207Y97298D01*
X167334Y96990D01*
X167379Y96945D01*
X164502Y94069D01*
X164502Y96250D01*
X164939Y96250D01*
X165132Y96443D01*
X165132Y97758D01*
X166484Y97758D01*
X166752Y98025D01*
X169485Y100759D01*
X169503Y100752D01*
X169837Y100752D01*
X170145Y100879D01*
X170380Y101115D01*
X170477Y101348D01*
X170695Y101129D01*
X170713Y101122D01*
X170713Y98279D01*
X170613Y98180D01*
X170505Y98440D01*
X95359Y100883D02*
X115816Y100883D01*
X115588Y100654D01*
X106479Y91546D01*
X106462Y91553D01*
X106128Y91553D01*
X105877Y91449D01*
X105877Y92025D01*
X108485Y94634D01*
X108503Y94627D01*
X108837Y94627D01*
X109145Y94754D01*
X109380Y94990D01*
X109508Y95298D01*
X109508Y95632D01*
X109380Y95940D01*
X109145Y96175D01*
X108885Y96283D01*
X109610Y97009D01*
X109628Y97002D01*
X109962Y97002D01*
X110270Y97129D01*
X110505Y97365D01*
X110633Y97673D01*
X110633Y98007D01*
X110505Y98315D01*
X110270Y98550D01*
X109962Y98678D01*
X109628Y98678D01*
X109320Y98550D01*
X109084Y98315D01*
X108957Y98007D01*
X108957Y97673D01*
X108964Y97655D01*
X99877Y88569D01*
X99877Y91154D01*
X99609Y91422D01*
X99609Y91422D01*
X96251Y94780D01*
X96258Y94798D01*
X96258Y95132D01*
X96130Y95440D01*
X95895Y95675D01*
X95635Y95783D01*
X96252Y96400D01*
X96252Y99279D01*
X95984Y99547D01*
X95484Y100047D01*
X94524Y100047D01*
X95359Y100883D01*
X158584Y74490D02*
X158820Y74254D01*
X159128Y74127D01*
X159462Y74127D01*
X159479Y74134D01*
X159646Y73967D01*
X159303Y73967D01*
X158920Y73809D01*
X158627Y73516D01*
X158468Y73133D01*
X158468Y71296D01*
X158627Y70914D01*
X158744Y70797D01*
X147359Y70797D01*
X145751Y72405D01*
X145758Y72423D01*
X145758Y72757D01*
X145630Y73065D01*
X145395Y73300D01*
X145135Y73408D01*
X145734Y74008D01*
X157734Y74008D01*
X158477Y74750D01*
X158584Y74490D01*
X162820Y74425D02*
X162584Y74190D01*
X162458Y73884D01*
X162257Y73967D01*
X161843Y73967D01*
X161460Y73809D01*
X161279Y73628D01*
X160126Y74780D01*
X160133Y74798D01*
X160133Y75132D01*
X160029Y75383D01*
X162230Y75383D01*
X163080Y74533D01*
X162820Y74425D01*
X144008Y73882D02*
X143880Y74190D01*
X143773Y74297D01*
X144602Y75125D01*
X144709Y74865D01*
X144945Y74629D01*
X145028Y74595D01*
X144008Y73575D01*
X144008Y73882D01*
X142024Y72047D02*
X142252Y72275D01*
X142752Y72775D01*
X142752Y72981D01*
X143003Y72877D01*
X143310Y72877D01*
X142480Y72047D01*
X142024Y72047D01*
X133082Y70548D02*
X133209Y70240D01*
X133445Y70004D01*
X133753Y69877D01*
X134087Y69877D01*
X134395Y70004D01*
X134630Y70240D01*
X134758Y70548D01*
X134758Y70752D01*
X134962Y70752D01*
X135270Y70879D01*
X135505Y71115D01*
X135513Y71133D01*
X142859Y71133D01*
X144102Y72375D01*
X144209Y72115D01*
X144445Y71879D01*
X144753Y71752D01*
X145087Y71752D01*
X145104Y71759D01*
X146980Y69883D01*
X162609Y69883D01*
X162877Y70150D01*
X163687Y70961D01*
X163707Y70914D01*
X164000Y70621D01*
X164383Y70462D01*
X164797Y70462D01*
X165180Y70621D01*
X165473Y70914D01*
X165588Y71191D01*
X165588Y70900D01*
X166338Y70150D01*
X166605Y69883D01*
X167984Y69883D01*
X168901Y70800D01*
X169080Y70621D01*
X169463Y70462D01*
X169877Y70462D01*
X170260Y70621D01*
X170553Y70914D01*
X170711Y71296D01*
X170711Y73133D01*
X170553Y73516D01*
X170260Y73809D01*
X169877Y73967D01*
X169463Y73967D01*
X169080Y73809D01*
X168787Y73516D01*
X168628Y73133D01*
X168628Y71820D01*
X168171Y71363D01*
X168171Y73133D01*
X168013Y73516D01*
X167720Y73809D01*
X167337Y73967D01*
X166923Y73967D01*
X166669Y73862D01*
X159751Y80780D01*
X159758Y80798D01*
X159758Y81132D01*
X159630Y81440D01*
X159395Y81675D01*
X159196Y81758D01*
X167952Y81758D01*
X167959Y81740D01*
X168195Y81504D01*
X168503Y81377D01*
X168837Y81377D01*
X169145Y81504D01*
X169380Y81740D01*
X169508Y82048D01*
X169508Y82382D01*
X169380Y82690D01*
X169145Y82925D01*
X168837Y83053D01*
X168503Y83053D01*
X168195Y82925D01*
X167959Y82690D01*
X167952Y82672D01*
X158730Y82672D01*
X158488Y82430D01*
X158380Y82690D01*
X158145Y82925D01*
X157837Y83053D01*
X157503Y83053D01*
X157195Y82925D01*
X156959Y82690D01*
X156952Y82672D01*
X154480Y82672D01*
X154238Y82430D01*
X154130Y82690D01*
X153895Y82925D01*
X153587Y83053D01*
X153253Y83053D01*
X152945Y82925D01*
X152709Y82690D01*
X152702Y82672D01*
X150105Y82672D01*
X149752Y82319D01*
X149752Y82622D01*
X149770Y82629D01*
X150005Y82865D01*
X150133Y83173D01*
X150133Y83507D01*
X150005Y83815D01*
X149770Y84050D01*
X149510Y84158D01*
X150484Y85133D01*
X152061Y85133D01*
X151957Y84882D01*
X151957Y84548D01*
X152084Y84240D01*
X152320Y84004D01*
X152628Y83877D01*
X152962Y83877D01*
X153270Y84004D01*
X153505Y84240D01*
X153513Y84258D01*
X159484Y84258D01*
X159752Y84525D01*
X173860Y98634D01*
X173878Y98627D01*
X174212Y98627D01*
X174520Y98754D01*
X174755Y98990D01*
X174883Y99298D01*
X174883Y99480D01*
X176713Y97650D01*
X176713Y73814D01*
X176700Y73809D01*
X176407Y73516D01*
X176248Y73133D01*
X176248Y71408D01*
X175791Y71865D01*
X175791Y73133D01*
X175633Y73516D01*
X175340Y73809D01*
X174957Y73967D01*
X174543Y73967D01*
X174160Y73809D01*
X173867Y73516D01*
X173708Y73133D01*
X173708Y71296D01*
X173867Y70914D01*
X174160Y70621D01*
X174543Y70462D01*
X174957Y70462D01*
X175340Y70621D01*
X175541Y70822D01*
X176480Y69883D01*
X180359Y69883D01*
X180627Y70150D01*
X181027Y70550D01*
X181027Y69858D01*
X27313Y69858D01*
X27313Y83538D01*
X27369Y83482D01*
X27751Y83323D01*
X28088Y83323D01*
X28088Y79433D01*
X28070Y79425D01*
X27834Y79190D01*
X27707Y78882D01*
X27707Y78548D01*
X27834Y78240D01*
X28070Y78004D01*
X28378Y77877D01*
X28588Y77877D01*
X28588Y77683D01*
X28570Y77675D01*
X28334Y77440D01*
X28207Y77132D01*
X28207Y76798D01*
X28334Y76490D01*
X28570Y76254D01*
X28878Y76127D01*
X29212Y76127D01*
X29520Y76254D01*
X29755Y76490D01*
X29883Y76798D01*
X29883Y77132D01*
X29755Y77440D01*
X29520Y77675D01*
X29502Y77683D01*
X29502Y77775D01*
X31002Y79275D01*
X31002Y85154D01*
X30053Y86104D01*
X30264Y86315D01*
X30422Y86698D01*
X30422Y87112D01*
X30264Y87495D01*
X29971Y87788D01*
X29588Y87946D01*
X27751Y87946D01*
X27369Y87788D01*
X27313Y87732D01*
X27313Y88618D01*
X27369Y88562D01*
X27751Y88403D01*
X29588Y88403D01*
X29971Y88562D01*
X30264Y88855D01*
X30422Y89238D01*
X30422Y89566D01*
X30775Y89213D01*
X30775Y89213D01*
X31043Y88945D01*
X31043Y88945D01*
X31580Y88408D01*
X31320Y88300D01*
X31084Y88065D01*
X30957Y87757D01*
X30957Y87423D01*
X31084Y87115D01*
X31320Y86879D01*
X31338Y86872D01*
X31338Y75775D01*
X31605Y75508D01*
X36980Y70133D01*
X79109Y70133D01*
X79377Y70400D01*
X92502Y83525D01*
X92502Y93400D01*
X94088Y94986D01*
X94088Y81275D01*
X103963Y71400D01*
X104230Y71133D01*
X132327Y71133D01*
X132334Y71115D01*
X132570Y70879D01*
X132878Y70752D01*
X133082Y70752D01*
X133082Y70548D01*
X171168Y73133D02*
X171168Y71296D01*
X171327Y70914D01*
X171620Y70621D01*
X172003Y70462D01*
X172417Y70462D01*
X172800Y70621D01*
X173093Y70914D01*
X173251Y71296D01*
X173251Y73133D01*
X173093Y73516D01*
X172800Y73809D01*
X172417Y73967D01*
X172003Y73967D01*
X171620Y73809D01*
X171327Y73516D01*
X171168Y73133D01*
X173110Y93884D02*
X173128Y93877D01*
X173462Y93877D01*
X173770Y94004D01*
X174005Y94240D01*
X174133Y94548D01*
X174133Y94882D01*
X174005Y95190D01*
X173770Y95425D01*
X173462Y95553D01*
X173128Y95553D01*
X172820Y95425D01*
X172584Y95190D01*
X172457Y94882D01*
X172457Y94548D01*
X172464Y94530D01*
X168979Y91046D01*
X168962Y91053D01*
X168628Y91053D01*
X168320Y90925D01*
X168084Y90690D01*
X167957Y90382D01*
X167957Y90048D01*
X168084Y89740D01*
X168320Y89504D01*
X168628Y89377D01*
X168962Y89377D01*
X169270Y89504D01*
X169505Y89740D01*
X169633Y90048D01*
X169633Y90382D01*
X169626Y90399D01*
X173110Y93884D01*
X105633Y72298D02*
X105633Y72632D01*
X105505Y72940D01*
X105270Y73175D01*
X104962Y73303D01*
X104628Y73303D01*
X104610Y73296D01*
X97260Y80647D01*
X97520Y80754D01*
X97755Y80990D01*
X97763Y81008D01*
X98936Y81008D01*
X98832Y80757D01*
X98832Y80423D01*
X98959Y80115D01*
X99195Y79879D01*
X99503Y79752D01*
X99837Y79752D01*
X100145Y79879D01*
X100189Y79924D01*
X104213Y75900D01*
X104480Y75633D01*
X116452Y75633D01*
X116459Y75615D01*
X116695Y75379D01*
X117003Y75252D01*
X117337Y75252D01*
X117645Y75379D01*
X117880Y75615D01*
X118008Y75923D01*
X118008Y76257D01*
X117880Y76565D01*
X117730Y76715D01*
X117880Y76865D01*
X118008Y77173D01*
X118008Y77507D01*
X117880Y77815D01*
X117645Y78050D01*
X117337Y78178D01*
X117003Y78178D01*
X116695Y78050D01*
X116459Y77815D01*
X116452Y77797D01*
X104359Y77797D01*
X103274Y78883D01*
X118327Y78883D01*
X118334Y78865D01*
X118570Y78629D01*
X118878Y78502D01*
X119212Y78502D01*
X119520Y78629D01*
X119755Y78865D01*
X119863Y79125D01*
X122963Y76025D01*
X123230Y75758D01*
X136077Y75758D01*
X136084Y75740D01*
X136320Y75504D01*
X136628Y75377D01*
X136962Y75377D01*
X137270Y75504D01*
X137505Y75740D01*
X137633Y76048D01*
X137633Y76382D01*
X137529Y76633D01*
X137855Y76633D01*
X138089Y76399D01*
X138082Y76382D01*
X138082Y76048D01*
X138209Y75740D01*
X138445Y75504D01*
X138753Y75377D01*
X139087Y75377D01*
X139395Y75504D01*
X139630Y75740D01*
X139758Y76048D01*
X139758Y76382D01*
X139630Y76690D01*
X139395Y76925D01*
X139087Y77053D01*
X138753Y77053D01*
X138735Y77046D01*
X138234Y77547D01*
X131359Y77547D01*
X131260Y77647D01*
X131520Y77754D01*
X131755Y77990D01*
X131883Y78298D01*
X131883Y78632D01*
X131755Y78940D01*
X131520Y79175D01*
X131212Y79303D01*
X130878Y79303D01*
X130860Y79296D01*
X129001Y81155D01*
X129008Y81173D01*
X129008Y81507D01*
X128880Y81815D01*
X128645Y82050D01*
X128337Y82178D01*
X128003Y82178D01*
X127695Y82050D01*
X127459Y81815D01*
X127352Y81555D01*
X127109Y81797D01*
X123388Y81797D01*
X123380Y81815D01*
X123145Y82050D01*
X122837Y82178D01*
X122503Y82178D01*
X122195Y82050D01*
X121959Y81815D01*
X121832Y81507D01*
X121832Y81173D01*
X121959Y80865D01*
X122195Y80629D01*
X122503Y80502D01*
X122837Y80502D01*
X123145Y80629D01*
X123380Y80865D01*
X123388Y80883D01*
X126730Y80883D01*
X130713Y76900D01*
X130941Y76672D01*
X123609Y76672D01*
X123510Y76772D01*
X123770Y76879D01*
X124005Y77115D01*
X124133Y77423D01*
X124133Y77757D01*
X124005Y78065D01*
X123770Y78300D01*
X123462Y78428D01*
X123128Y78428D01*
X123110Y78421D01*
X119260Y82272D01*
X119520Y82379D01*
X119755Y82615D01*
X119883Y82923D01*
X119883Y83257D01*
X119755Y83565D01*
X119520Y83800D01*
X119502Y83808D01*
X119502Y84497D01*
X119520Y84504D01*
X119755Y84740D01*
X119883Y85048D01*
X119883Y85382D01*
X119779Y85633D01*
X149691Y85633D01*
X144111Y80053D01*
X144003Y80053D01*
X143695Y79925D01*
X143459Y79690D01*
X143332Y79382D01*
X143332Y79048D01*
X143459Y78740D01*
X143695Y78504D01*
X144003Y78377D01*
X144337Y78377D01*
X144645Y78504D01*
X144880Y78740D01*
X145008Y79048D01*
X145008Y79382D01*
X144927Y79576D01*
X148477Y83125D01*
X148584Y82865D01*
X148820Y82629D01*
X148838Y82622D01*
X148838Y82154D01*
X143127Y76444D01*
X143127Y81247D01*
X143145Y81254D01*
X143380Y81490D01*
X143508Y81798D01*
X143508Y82132D01*
X143380Y82440D01*
X143145Y82675D01*
X142837Y82803D01*
X142503Y82803D01*
X142195Y82675D01*
X141959Y82440D01*
X141832Y82132D01*
X141832Y81798D01*
X141959Y81490D01*
X142195Y81254D01*
X142213Y81247D01*
X142213Y76279D01*
X141502Y75569D01*
X141502Y80779D01*
X141234Y81047D01*
X139927Y82354D01*
X140008Y82548D01*
X140008Y82882D01*
X139880Y83190D01*
X139645Y83425D01*
X139337Y83553D01*
X139003Y83553D01*
X138695Y83425D01*
X138459Y83190D01*
X138332Y82882D01*
X138332Y82548D01*
X138459Y82240D01*
X138695Y82004D01*
X139003Y81877D01*
X139111Y81877D01*
X139955Y81033D01*
X139695Y80925D01*
X139459Y80690D01*
X139452Y80672D01*
X136013Y80672D01*
X136005Y80690D01*
X135770Y80925D01*
X135462Y81053D01*
X135128Y81053D01*
X134820Y80925D01*
X134584Y80690D01*
X134477Y80430D01*
X134211Y80695D01*
X134380Y80865D01*
X134508Y81173D01*
X134508Y81507D01*
X134380Y81815D01*
X134145Y82050D01*
X133837Y82178D01*
X133503Y82178D01*
X133195Y82050D01*
X132959Y81815D01*
X132832Y81507D01*
X132832Y81173D01*
X132959Y80865D01*
X133195Y80629D01*
X133213Y80622D01*
X133213Y80400D01*
X135338Y78275D01*
X135605Y78008D01*
X139452Y78008D01*
X139459Y77990D01*
X139695Y77754D01*
X140003Y77627D01*
X140337Y77627D01*
X140588Y77731D01*
X140588Y75654D01*
X139104Y74171D01*
X139087Y74178D01*
X138753Y74178D01*
X138445Y74050D01*
X138209Y73815D01*
X138082Y73507D01*
X138082Y73173D01*
X138186Y72922D01*
X134230Y72922D01*
X133730Y72422D01*
X133564Y72256D01*
X133520Y72300D01*
X133212Y72428D01*
X132878Y72428D01*
X132570Y72300D01*
X132334Y72065D01*
X132327Y72047D01*
X105529Y72047D01*
X105633Y72298D01*
X94209Y98240D02*
X94445Y98004D01*
X94463Y97997D01*
X94463Y96654D01*
X91855Y94047D01*
X91855Y94047D01*
X91588Y93779D01*
X91588Y89449D01*
X91337Y89553D01*
X91003Y89553D01*
X90695Y89425D01*
X90545Y89275D01*
X90395Y89425D01*
X90087Y89553D01*
X89753Y89553D01*
X89445Y89425D01*
X89209Y89190D01*
X89082Y88882D01*
X89082Y88548D01*
X89209Y88240D01*
X89445Y88004D01*
X89463Y87997D01*
X89463Y85779D01*
X79063Y75379D01*
X79063Y101050D01*
X82588Y97525D01*
X82588Y96400D01*
X85588Y93400D01*
X85855Y93133D01*
X88859Y93133D01*
X94138Y98412D01*
X94209Y98240D01*
X83088Y98633D02*
X83088Y98318D01*
X77774Y103633D01*
X131702Y103633D01*
X131709Y103615D01*
X131945Y103379D01*
X132253Y103252D01*
X132587Y103252D01*
X132895Y103379D01*
X133130Y103615D01*
X133238Y103875D01*
X134355Y102758D01*
X134827Y102758D01*
X134834Y102740D01*
X134902Y102672D01*
X99138Y102672D01*
X99130Y102690D01*
X98895Y102925D01*
X98587Y103053D01*
X98253Y103053D01*
X97945Y102925D01*
X97709Y102690D01*
X97582Y102382D01*
X97582Y102048D01*
X97686Y101797D01*
X94980Y101797D01*
X90251Y97068D01*
X90251Y98633D01*
X90093Y99016D01*
X89800Y99309D01*
X89417Y99467D01*
X89003Y99467D01*
X88620Y99309D01*
X88327Y99016D01*
X88168Y98633D01*
X88168Y96796D01*
X88327Y96414D01*
X88620Y96121D01*
X89003Y95962D01*
X89146Y95962D01*
X88479Y95296D01*
X88462Y95303D01*
X88128Y95303D01*
X87820Y95175D01*
X87584Y94940D01*
X87457Y94632D01*
X87457Y94298D01*
X87561Y94047D01*
X86234Y94047D01*
X84319Y95962D01*
X84337Y95962D01*
X84720Y96121D01*
X85013Y96414D01*
X85171Y96796D01*
X85171Y98633D01*
X85013Y99016D01*
X84720Y99309D01*
X84337Y99467D01*
X83923Y99467D01*
X83540Y99309D01*
X83247Y99016D01*
X83088Y98633D01*
X85628Y98633D02*
X85628Y96796D01*
X85787Y96414D01*
X86080Y96121D01*
X86463Y95962D01*
X86877Y95962D01*
X87260Y96121D01*
X87553Y96414D01*
X87711Y96796D01*
X87711Y98633D01*
X87553Y99016D01*
X87260Y99309D01*
X86877Y99467D01*
X86463Y99467D01*
X86080Y99309D01*
X85787Y99016D01*
X85628Y98633D01*
X77692Y102358D02*
X35084Y102358D01*
X37734Y105008D01*
X38061Y105008D01*
X37957Y104757D01*
X37957Y104423D01*
X38084Y104115D01*
X38320Y103879D01*
X38628Y103752D01*
X38962Y103752D01*
X39270Y103879D01*
X39505Y104115D01*
X39633Y104423D01*
X39633Y104508D01*
X66061Y104508D01*
X65957Y104257D01*
X65957Y103923D01*
X66061Y103672D01*
X59888Y103672D01*
X59880Y103690D01*
X59645Y103925D01*
X59337Y104053D01*
X59003Y104053D01*
X58695Y103925D01*
X58459Y103690D01*
X58332Y103382D01*
X58332Y103048D01*
X58459Y102740D01*
X58695Y102504D01*
X59003Y102377D01*
X59337Y102377D01*
X59645Y102504D01*
X59880Y102740D01*
X59888Y102758D01*
X77355Y102758D01*
X77755Y102358D01*
X77692Y102358D01*
X128705Y99907D02*
X128705Y99523D01*
X128705Y99522D01*
X127230Y98047D01*
X115138Y98047D01*
X115130Y98065D01*
X114895Y98300D01*
X114635Y98408D01*
X116234Y100008D01*
X126827Y100008D01*
X126834Y99990D01*
X127070Y99754D01*
X127378Y99627D01*
X127712Y99627D01*
X128020Y99754D01*
X128255Y99990D01*
X128366Y100258D01*
X128850Y100258D01*
X128705Y99907D01*
X132210Y99571D02*
X131609Y100172D01*
X130525Y100172D01*
X130490Y100258D01*
X132210Y100258D01*
X132210Y99571D01*
X148213Y100029D02*
X145355Y97172D01*
X145146Y97172D01*
X144874Y97444D01*
X144514Y97593D01*
X144125Y97593D01*
X143766Y97444D01*
X143491Y97169D01*
X143342Y96809D01*
X143342Y96420D01*
X143491Y96061D01*
X143505Y96047D01*
X142595Y96047D01*
X142609Y96061D01*
X142758Y96420D01*
X142758Y96809D01*
X142609Y97169D01*
X142334Y97444D01*
X141974Y97593D01*
X141585Y97593D01*
X141226Y97444D01*
X140951Y97169D01*
X140802Y96809D01*
X140802Y96420D01*
X140951Y96061D01*
X140965Y96047D01*
X140218Y96047D01*
X140218Y97399D01*
X140024Y97593D01*
X138455Y97593D01*
X138262Y97399D01*
X138262Y96047D01*
X135734Y96047D01*
X133032Y98750D01*
X133947Y98750D01*
X134140Y98943D01*
X134140Y100258D01*
X148441Y100258D01*
X148213Y100029D01*
X173878Y100303D02*
X173570Y100175D01*
X173334Y99940D01*
X173207Y99632D01*
X173207Y99298D01*
X173214Y99280D01*
X172502Y98569D01*
X172502Y101861D01*
X174060Y100303D01*
X173878Y100303D01*
X160393Y70914D02*
X160551Y71296D01*
X160551Y73062D01*
X161008Y72605D01*
X161008Y71296D01*
X161167Y70914D01*
X161284Y70797D01*
X160276Y70797D01*
X160393Y70914D01*
X168937Y102258D02*
X169152Y102258D01*
X169045Y102150D01*
X168937Y102258D01*
X163609Y101133D02*
X167702Y101133D01*
X167709Y101115D01*
X167945Y100879D01*
X168205Y100772D01*
X166105Y98672D01*
X161149Y98672D01*
X163609Y101133D01*
X27751Y93026D02*
X27369Y92868D01*
X27313Y92812D01*
X27313Y93698D01*
X27369Y93642D01*
X27751Y93483D01*
X29005Y93483D01*
X29462Y93026D01*
X27751Y93026D01*
X138505Y105572D02*
X137738Y104805D01*
X137630Y105065D01*
X137395Y105300D01*
X137087Y105428D01*
X136753Y105428D01*
X136735Y105421D01*
X136584Y105572D01*
X138505Y105572D01*
X136363Y103430D02*
X136255Y103690D01*
X136020Y103925D01*
X135712Y104053D01*
X135378Y104053D01*
X135070Y103925D01*
X134834Y103690D01*
X134827Y103672D01*
X134734Y103672D01*
X133399Y105008D01*
X135855Y105008D01*
X136089Y104774D01*
X136082Y104757D01*
X136082Y104423D01*
X136209Y104115D01*
X136445Y103879D01*
X136705Y103772D01*
X136363Y103430D01*
X29588Y83323D02*
X29971Y83482D01*
X30088Y83599D01*
X30088Y79654D01*
X29363Y78930D01*
X29255Y79190D01*
X29020Y79425D01*
X29002Y79433D01*
X29002Y83323D01*
X29588Y83323D01*
X33213Y92029D02*
X32633Y91450D01*
X32633Y91507D01*
X32505Y91815D01*
X32270Y92050D01*
X31962Y92178D01*
X31628Y92178D01*
X31610Y92171D01*
X30055Y93726D01*
X30264Y93935D01*
X30422Y94318D01*
X30422Y94732D01*
X30264Y95115D01*
X29971Y95408D01*
X29588Y95566D01*
X27751Y95566D01*
X27369Y95408D01*
X27313Y95352D01*
X27313Y96238D01*
X27369Y96182D01*
X27751Y96023D01*
X29588Y96023D01*
X29971Y96182D01*
X30264Y96475D01*
X30422Y96858D01*
X30422Y97272D01*
X30264Y97655D01*
X29971Y97948D01*
X29588Y98106D01*
X27751Y98106D01*
X27369Y97948D01*
X27313Y97892D01*
X27313Y105572D01*
X37005Y105572D01*
X33213Y101779D01*
X33213Y101400D01*
X33213Y92029D01*
X33777Y75442D02*
X33777Y75379D01*
X33127Y76029D01*
X33127Y88154D01*
X31879Y89402D01*
X33777Y91300D01*
X33777Y75442D01*
X30075Y91206D02*
X30264Y91395D01*
X30422Y91778D01*
X30422Y92066D01*
X30964Y91524D01*
X30957Y91507D01*
X30957Y91173D01*
X31084Y90865D01*
X31320Y90629D01*
X31628Y90502D01*
X31685Y90502D01*
X31232Y90049D01*
X30075Y91206D01*
X178173Y70914D02*
X178331Y71296D01*
X178331Y73133D01*
X178173Y73516D01*
X177880Y73809D01*
X177627Y73914D01*
X177627Y97486D01*
X179338Y95775D01*
X179338Y73849D01*
X179240Y73809D01*
X178947Y73516D01*
X178788Y73133D01*
X178788Y71296D01*
X178947Y70914D01*
X179064Y70797D01*
X178056Y70797D01*
X178173Y70914D01*
X180420Y73809D02*
X180252Y73878D01*
X180252Y95611D01*
X180463Y95400D01*
X180463Y73766D01*
X180420Y73809D01*
X155458Y104040D02*
X155458Y104429D01*
X155309Y104789D01*
X155034Y105064D01*
X154674Y105213D01*
X154285Y105213D01*
X153926Y105064D01*
X153651Y104789D01*
X153502Y104429D01*
X153502Y104040D01*
X153651Y103681D01*
X153660Y103672D01*
X152760Y103672D01*
X152769Y103681D01*
X152918Y104040D01*
X152918Y104429D01*
X152769Y104789D01*
X152494Y105064D01*
X152134Y105213D01*
X151745Y105213D01*
X151386Y105064D01*
X151119Y104797D01*
X150984Y104797D01*
X150377Y105404D01*
X150209Y105572D01*
X181027Y105572D01*
X181027Y96129D01*
X171734Y105422D01*
X163605Y105422D01*
X163338Y105154D01*
X161855Y103672D01*
X157840Y103672D01*
X157849Y103681D01*
X157998Y104040D01*
X157998Y104429D01*
X157849Y104789D01*
X157574Y105064D01*
X157214Y105213D01*
X156825Y105213D01*
X156466Y105064D01*
X156191Y104789D01*
X156042Y104429D01*
X156042Y104040D01*
X156191Y103681D01*
X156200Y103672D01*
X155300Y103672D01*
X155309Y103681D01*
X155458Y104040D01*
X167582Y104257D02*
X167582Y103923D01*
X167686Y103672D01*
X163149Y103672D01*
X163984Y104508D01*
X167686Y104508D01*
X167582Y104257D01*
X159230Y100297D02*
X156654Y100297D01*
X156758Y100548D01*
X156758Y100882D01*
X156630Y101190D01*
X156395Y101425D01*
X156087Y101553D01*
X155753Y101553D01*
X155445Y101425D01*
X155209Y101190D01*
X155202Y101172D01*
X128734Y101172D01*
X128377Y101529D01*
X128149Y101758D01*
X135984Y101758D01*
X136252Y102025D01*
X138263Y104037D01*
X138411Y103681D01*
X138686Y103406D01*
X139045Y103257D01*
X139434Y103257D01*
X139794Y103406D01*
X140069Y103681D01*
X140101Y103758D01*
X140105Y103758D01*
X140838Y103025D01*
X141105Y102758D01*
X146561Y102758D01*
X146457Y102507D01*
X146457Y102173D01*
X146584Y101865D01*
X146820Y101629D01*
X147128Y101502D01*
X147462Y101502D01*
X147770Y101629D01*
X148005Y101865D01*
X148013Y101883D01*
X159952Y101883D01*
X159959Y101865D01*
X160195Y101629D01*
X160455Y101522D01*
X159230Y100297D01*
X161691Y102758D02*
X161488Y102555D01*
X161404Y102758D01*
X161691Y102758D01*
X142609Y103681D02*
X142758Y104040D01*
X142758Y104429D01*
X142622Y104758D01*
X143478Y104758D01*
X143342Y104429D01*
X143342Y104040D01*
X143491Y103681D01*
X143500Y103672D01*
X142600Y103672D01*
X142609Y103681D01*
X145149Y103681D02*
X145298Y104040D01*
X145298Y104429D01*
X145162Y104758D01*
X146018Y104758D01*
X145882Y104429D01*
X145882Y104040D01*
X146031Y103681D01*
X146040Y103672D01*
X145140Y103672D01*
X145149Y103681D01*
X147689Y103681D02*
X147838Y104040D01*
X147838Y104429D01*
X147702Y104758D01*
X148558Y104758D01*
X148422Y104429D01*
X148422Y104040D01*
X148571Y103681D01*
X148580Y103672D01*
X147680Y103672D01*
X147689Y103681D01*
X150229Y103681D02*
X150378Y104040D01*
X150378Y104110D01*
X150605Y103883D01*
X151027Y103883D01*
X151111Y103681D01*
X151120Y103672D01*
X150220Y103672D01*
X150229Y103681D01*
X36063Y100072D02*
X76777Y100072D01*
X76777Y76358D01*
X36063Y76358D01*
X36063Y100072D01*
X160623Y96397D02*
X160946Y96263D01*
X154605Y89922D01*
X153899Y89922D01*
X160498Y96522D01*
X160623Y96397D01*
X113709Y97115D02*
X113945Y96879D01*
X114253Y96752D01*
X114587Y96752D01*
X114895Y96879D01*
X115130Y97115D01*
X115138Y97133D01*
X127027Y97133D01*
X126959Y97065D01*
X126832Y96757D01*
X126832Y96423D01*
X126839Y96405D01*
X124979Y94546D01*
X124962Y94553D01*
X124628Y94553D01*
X124320Y94425D01*
X124084Y94190D01*
X123957Y93882D01*
X123957Y93548D01*
X124084Y93240D01*
X124320Y93004D01*
X124628Y92877D01*
X124962Y92877D01*
X125270Y93004D01*
X125505Y93240D01*
X125633Y93548D01*
X125633Y93882D01*
X125626Y93899D01*
X127485Y95759D01*
X127503Y95752D01*
X127837Y95752D01*
X128145Y95879D01*
X128380Y96115D01*
X128508Y96423D01*
X128508Y96757D01*
X128380Y97065D01*
X128145Y97300D01*
X127885Y97408D01*
X129300Y98823D01*
X129478Y98750D01*
X129862Y98750D01*
X130217Y98897D01*
X130488Y99168D01*
X130525Y99258D01*
X131230Y99258D01*
X135355Y95133D01*
X156109Y95133D01*
X156676Y95699D01*
X156822Y95638D01*
X155355Y94172D01*
X137763Y94172D01*
X137755Y94190D01*
X137520Y94425D01*
X137212Y94553D01*
X136878Y94553D01*
X136570Y94425D01*
X136334Y94190D01*
X136207Y93882D01*
X136207Y93548D01*
X136334Y93240D01*
X136570Y93004D01*
X136878Y92877D01*
X137212Y92877D01*
X137520Y93004D01*
X137755Y93240D01*
X137763Y93258D01*
X155191Y93258D01*
X153230Y91297D01*
X126013Y91297D01*
X126005Y91315D01*
X125770Y91550D01*
X125462Y91678D01*
X125128Y91678D01*
X124820Y91550D01*
X124584Y91315D01*
X124457Y91007D01*
X124457Y90673D01*
X124561Y90422D01*
X117109Y90422D01*
X115752Y91779D01*
X115484Y92047D01*
X108274Y92047D01*
X113602Y97375D01*
X113709Y97115D01*
X104751Y90530D02*
X104758Y90548D01*
X104758Y90882D01*
X104630Y91190D01*
X104395Y91425D01*
X104135Y91533D01*
X104963Y92361D01*
X104963Y90319D01*
X104751Y90530D01*
X108609Y91133D02*
X108686Y91133D01*
X108582Y90882D01*
X108582Y90548D01*
X108709Y90240D01*
X108945Y90004D01*
X109253Y89877D01*
X109587Y89877D01*
X109604Y89884D01*
X111066Y88422D01*
X106859Y88422D01*
X105899Y89383D01*
X106859Y89383D01*
X107127Y89650D01*
X108609Y91133D01*
X115955Y90283D02*
X115695Y90175D01*
X115459Y89940D01*
X115332Y89632D01*
X115332Y89298D01*
X115459Y88990D01*
X115527Y88922D01*
X111859Y88922D01*
X110251Y90530D01*
X110258Y90548D01*
X110258Y90882D01*
X110154Y91133D01*
X115105Y91133D01*
X115955Y90283D01*
X163609Y102047D02*
X163230Y102047D01*
X157996Y96813D01*
X157936Y96959D01*
X163234Y102258D01*
X167902Y102258D01*
X167709Y102065D01*
X167702Y102047D01*
X163609Y102047D01*
X90377Y85944D02*
X90377Y87997D01*
X90395Y88004D01*
X90545Y88154D01*
X90695Y88004D01*
X90713Y87997D01*
X90713Y86279D01*
X90377Y85944D01*
X140082Y104758D02*
X140938Y104758D01*
X140802Y104429D01*
X140802Y104354D01*
X140484Y104672D01*
X140117Y104672D01*
X140082Y104758D01*
X65005Y72115D02*
X65013Y72133D01*
X65402Y72133D01*
X65209Y71940D01*
X65202Y71922D01*
X64812Y71922D01*
X65005Y72115D01*
X66652Y72133D02*
X66545Y72025D01*
X66437Y72133D01*
X66652Y72133D01*
X60880Y74072D02*
X60480Y73672D01*
X59888Y73672D01*
X59880Y73690D01*
X59645Y73925D01*
X59337Y74053D01*
X59003Y74053D01*
X58695Y73925D01*
X58459Y73690D01*
X58332Y73382D01*
X58332Y73048D01*
X58459Y72740D01*
X58695Y72504D01*
X59003Y72377D01*
X59337Y72377D01*
X59645Y72504D01*
X59880Y72740D01*
X59888Y72758D01*
X60859Y72758D01*
X60977Y72875D01*
X61084Y72615D01*
X61320Y72379D01*
X61628Y72252D01*
X61962Y72252D01*
X62270Y72379D01*
X62505Y72615D01*
X62513Y72633D01*
X63457Y72633D01*
X63457Y72423D01*
X63584Y72115D01*
X63777Y71922D01*
X38263Y71922D01*
X38255Y71940D01*
X38020Y72175D01*
X37712Y72303D01*
X37378Y72303D01*
X37070Y72175D01*
X36834Y71940D01*
X36727Y71680D01*
X35649Y72758D01*
X38202Y72758D01*
X38209Y72740D01*
X38445Y72504D01*
X38753Y72377D01*
X39087Y72377D01*
X39395Y72504D01*
X39630Y72740D01*
X39758Y73048D01*
X39758Y73382D01*
X39630Y73690D01*
X39395Y73925D01*
X39087Y74053D01*
X38753Y74053D01*
X38445Y73925D01*
X38209Y73690D01*
X38202Y73672D01*
X35484Y73672D01*
X35084Y74072D01*
X60880Y74072D01*
X78133Y71298D02*
X78133Y71632D01*
X78005Y71940D01*
X77812Y72133D01*
X78952Y72133D01*
X78959Y72115D01*
X79195Y71879D01*
X79455Y71772D01*
X78730Y71047D01*
X78029Y71047D01*
X78133Y71298D01*
X80380Y73065D02*
X80145Y73300D01*
X79837Y73428D01*
X79503Y73428D01*
X79195Y73300D01*
X78959Y73065D01*
X78952Y73047D01*
X78774Y73047D01*
X91359Y85633D01*
X91588Y85861D01*
X91588Y83904D01*
X80488Y72805D01*
X80380Y73065D01*
X76777Y72133D02*
X76584Y71940D01*
X76577Y71922D01*
X67888Y71922D01*
X67880Y71940D01*
X67687Y72133D01*
X76777Y72133D01*
X27313Y69977D02*
X133510Y69977D01*
X134330Y69977D02*
X146886Y69977D01*
X162704Y69977D02*
X166511Y69977D01*
X168079Y69977D02*
X176386Y69977D01*
X180454Y69977D02*
X181027Y69977D01*
X36883Y70230D02*
X27313Y70230D01*
X79206Y70230D02*
X133219Y70230D01*
X134620Y70230D02*
X146633Y70230D01*
X162956Y70230D02*
X166258Y70230D01*
X168331Y70230D02*
X176133Y70230D01*
X180706Y70230D02*
X181027Y70230D01*
X36631Y70482D02*
X27313Y70482D01*
X79459Y70482D02*
X133109Y70482D01*
X134731Y70482D02*
X146381Y70482D01*
X163209Y70482D02*
X164334Y70482D01*
X164845Y70482D02*
X166006Y70482D01*
X168584Y70482D02*
X169414Y70482D01*
X169925Y70482D02*
X171954Y70482D01*
X172465Y70482D02*
X174494Y70482D01*
X175005Y70482D02*
X175881Y70482D01*
X180959Y70482D02*
X181027Y70482D01*
X36378Y70735D02*
X27313Y70735D01*
X79711Y70735D02*
X133082Y70735D01*
X134758Y70735D02*
X146128Y70735D01*
X163461Y70735D02*
X163886Y70735D01*
X165294Y70735D02*
X165753Y70735D01*
X168836Y70735D02*
X168966Y70735D01*
X170374Y70735D02*
X171506Y70735D01*
X172914Y70735D02*
X174046Y70735D01*
X175454Y70735D02*
X175628Y70735D01*
X36126Y70987D02*
X27313Y70987D01*
X79964Y70987D02*
X132462Y70987D01*
X135378Y70987D02*
X145876Y70987D01*
X147169Y70987D02*
X158596Y70987D01*
X160423Y70987D02*
X161136Y70987D01*
X165503Y70987D02*
X165588Y70987D01*
X170583Y70987D02*
X171296Y70987D01*
X173123Y70987D02*
X173836Y70987D01*
X178203Y70987D02*
X178916Y70987D01*
X35873Y71240D02*
X27313Y71240D01*
X78109Y71240D02*
X78923Y71240D01*
X80216Y71240D02*
X104123Y71240D01*
X142966Y71240D02*
X145623Y71240D01*
X146916Y71240D02*
X158492Y71240D01*
X160528Y71240D02*
X161032Y71240D01*
X170688Y71240D02*
X171192Y71240D01*
X173228Y71240D02*
X173732Y71240D01*
X178308Y71240D02*
X178812Y71240D01*
X35621Y71492D02*
X27313Y71492D01*
X78133Y71492D02*
X79176Y71492D01*
X80469Y71492D02*
X103871Y71492D01*
X143219Y71492D02*
X145371Y71492D01*
X146664Y71492D02*
X158468Y71492D01*
X160551Y71492D02*
X161008Y71492D01*
X168171Y71492D02*
X168301Y71492D01*
X170711Y71492D02*
X171168Y71492D01*
X173251Y71492D02*
X173708Y71492D01*
X176164Y71492D02*
X176248Y71492D01*
X178331Y71492D02*
X178788Y71492D01*
X35368Y71745D02*
X27313Y71745D01*
X36661Y71745D02*
X36754Y71745D01*
X78086Y71745D02*
X79428Y71745D01*
X80721Y71745D02*
X103618Y71745D01*
X143471Y71745D02*
X145118Y71745D01*
X146411Y71745D02*
X158468Y71745D01*
X160551Y71745D02*
X161008Y71745D01*
X168171Y71745D02*
X168553Y71745D01*
X170711Y71745D02*
X171168Y71745D01*
X173251Y71745D02*
X173708Y71745D01*
X175911Y71745D02*
X176248Y71745D01*
X178331Y71745D02*
X178788Y71745D01*
X35116Y71997D02*
X27313Y71997D01*
X36409Y71997D02*
X36892Y71997D01*
X38198Y71997D02*
X63702Y71997D01*
X64888Y71997D02*
X65267Y71997D01*
X67823Y71997D02*
X76642Y71997D01*
X77948Y71997D02*
X79077Y71997D01*
X80974Y71997D02*
X103366Y71997D01*
X143724Y71997D02*
X144327Y71997D01*
X146159Y71997D02*
X158468Y71997D01*
X160551Y71997D02*
X161008Y71997D01*
X168171Y71997D02*
X168628Y71997D01*
X170711Y71997D02*
X171168Y71997D01*
X173251Y71997D02*
X173708Y71997D01*
X175791Y71997D02*
X176248Y71997D01*
X178331Y71997D02*
X178788Y71997D01*
X34863Y72250D02*
X27313Y72250D01*
X36156Y72250D02*
X37250Y72250D01*
X37840Y72250D02*
X63528Y72250D01*
X81226Y72250D02*
X103113Y72250D01*
X105613Y72250D02*
X132519Y72250D01*
X142226Y72250D02*
X142683Y72250D01*
X143976Y72250D02*
X144153Y72250D01*
X145906Y72250D02*
X158468Y72250D01*
X160551Y72250D02*
X161008Y72250D01*
X168171Y72250D02*
X168628Y72250D01*
X170711Y72250D02*
X171168Y72250D01*
X173251Y72250D02*
X173708Y72250D01*
X175791Y72250D02*
X176248Y72250D01*
X178331Y72250D02*
X178788Y72250D01*
X34611Y72502D02*
X27313Y72502D01*
X35904Y72502D02*
X38450Y72502D01*
X39390Y72502D02*
X58700Y72502D01*
X59640Y72502D02*
X61197Y72502D01*
X62393Y72502D02*
X63457Y72502D01*
X81479Y72502D02*
X102861Y72502D01*
X105633Y72502D02*
X133811Y72502D01*
X142479Y72502D02*
X142936Y72502D01*
X145758Y72502D02*
X158468Y72502D01*
X160551Y72502D02*
X161008Y72502D01*
X168171Y72502D02*
X168628Y72502D01*
X170711Y72502D02*
X171168Y72502D01*
X173251Y72502D02*
X173708Y72502D01*
X175791Y72502D02*
X176248Y72502D01*
X178331Y72502D02*
X178788Y72502D01*
X34358Y72755D02*
X27313Y72755D01*
X35651Y72755D02*
X38203Y72755D01*
X39637Y72755D02*
X58453Y72755D01*
X59887Y72755D02*
X61026Y72755D01*
X81731Y72755D02*
X102608Y72755D01*
X105582Y72755D02*
X134063Y72755D01*
X142731Y72755D02*
X143188Y72755D01*
X145758Y72755D02*
X158468Y72755D01*
X160551Y72755D02*
X160858Y72755D01*
X168171Y72755D02*
X168628Y72755D01*
X170711Y72755D02*
X171168Y72755D01*
X173251Y72755D02*
X173708Y72755D01*
X175791Y72755D02*
X176248Y72755D01*
X178331Y72755D02*
X178788Y72755D01*
X34106Y73007D02*
X27313Y73007D01*
X39741Y73007D02*
X58348Y73007D01*
X80404Y73007D02*
X80691Y73007D01*
X81984Y73007D02*
X102356Y73007D01*
X105438Y73007D02*
X138150Y73007D01*
X145654Y73007D02*
X158468Y73007D01*
X160551Y73007D02*
X160606Y73007D01*
X168171Y73007D02*
X168628Y73007D01*
X170711Y73007D02*
X171168Y73007D01*
X173251Y73007D02*
X173708Y73007D01*
X175791Y73007D02*
X176248Y73007D01*
X178331Y73007D02*
X178788Y73007D01*
X33853Y73260D02*
X27313Y73260D01*
X39758Y73260D02*
X58332Y73260D01*
X78986Y73260D02*
X79154Y73260D01*
X80185Y73260D02*
X80943Y73260D01*
X82236Y73260D02*
X102103Y73260D01*
X105066Y73260D02*
X138082Y73260D01*
X145435Y73260D02*
X158521Y73260D01*
X168119Y73260D02*
X168681Y73260D01*
X170659Y73260D02*
X171221Y73260D01*
X173199Y73260D02*
X173761Y73260D01*
X175739Y73260D02*
X176301Y73260D01*
X178279Y73260D02*
X178841Y73260D01*
X33601Y73512D02*
X27313Y73512D01*
X39704Y73512D02*
X58386Y73512D01*
X79239Y73512D02*
X81196Y73512D01*
X82489Y73512D02*
X101851Y73512D01*
X104394Y73512D02*
X138084Y73512D01*
X145239Y73512D02*
X158625Y73512D01*
X168014Y73512D02*
X168785Y73512D01*
X170554Y73512D02*
X171325Y73512D01*
X173094Y73512D02*
X173865Y73512D01*
X175634Y73512D02*
X176405Y73512D01*
X178174Y73512D02*
X178945Y73512D01*
X33348Y73765D02*
X27313Y73765D01*
X35391Y73765D02*
X38284Y73765D01*
X39555Y73765D02*
X58534Y73765D01*
X59805Y73765D02*
X60573Y73765D01*
X79491Y73765D02*
X81448Y73765D01*
X82741Y73765D02*
X101598Y73765D01*
X104141Y73765D02*
X138189Y73765D01*
X144008Y73765D02*
X144198Y73765D01*
X145491Y73765D02*
X158876Y73765D01*
X161141Y73765D02*
X161416Y73765D01*
X167764Y73765D02*
X169036Y73765D01*
X170304Y73765D02*
X171576Y73765D01*
X172844Y73765D02*
X174116Y73765D01*
X175384Y73765D02*
X176656Y73765D01*
X177924Y73765D02*
X179196Y73765D01*
X33096Y74017D02*
X27313Y74017D01*
X35139Y74017D02*
X38667Y74017D01*
X39173Y74017D02*
X58917Y74017D01*
X59423Y74017D02*
X60826Y74017D01*
X79744Y74017D02*
X81701Y74017D01*
X82994Y74017D02*
X101346Y74017D01*
X103889Y74017D02*
X138412Y74017D01*
X143952Y74017D02*
X144451Y74017D01*
X157744Y74017D02*
X159596Y74017D01*
X160889Y74017D02*
X162513Y74017D01*
X166514Y74017D02*
X176713Y74017D01*
X177627Y74017D02*
X179338Y74017D01*
X180252Y74017D02*
X180463Y74017D01*
X32843Y74270D02*
X27313Y74270D01*
X79996Y74270D02*
X81953Y74270D01*
X83246Y74270D02*
X101093Y74270D01*
X103636Y74270D02*
X139203Y74270D01*
X143800Y74270D02*
X144703Y74270D01*
X157996Y74270D02*
X158804Y74270D01*
X160636Y74270D02*
X162664Y74270D01*
X166261Y74270D02*
X176713Y74270D01*
X177627Y74270D02*
X179338Y74270D01*
X180252Y74270D02*
X180463Y74270D01*
X32591Y74522D02*
X27313Y74522D01*
X80249Y74522D02*
X82206Y74522D01*
X83499Y74522D02*
X100841Y74522D01*
X103384Y74522D02*
X139456Y74522D01*
X143999Y74522D02*
X144956Y74522D01*
X158249Y74522D02*
X158571Y74522D01*
X160384Y74522D02*
X163054Y74522D01*
X166009Y74522D02*
X176713Y74522D01*
X177627Y74522D02*
X179338Y74522D01*
X180252Y74522D02*
X180463Y74522D01*
X32338Y74775D02*
X27313Y74775D01*
X80501Y74775D02*
X82458Y74775D01*
X83751Y74775D02*
X100588Y74775D01*
X103131Y74775D02*
X139708Y74775D01*
X144251Y74775D02*
X144799Y74775D01*
X160131Y74775D02*
X162838Y74775D01*
X165756Y74775D02*
X176713Y74775D01*
X177627Y74775D02*
X179338Y74775D01*
X180252Y74775D02*
X180463Y74775D01*
X32086Y75027D02*
X27313Y75027D01*
X80754Y75027D02*
X82711Y75027D01*
X84004Y75027D02*
X100336Y75027D01*
X102879Y75027D02*
X139961Y75027D01*
X144504Y75027D02*
X144642Y75027D01*
X160133Y75027D02*
X162586Y75027D01*
X165504Y75027D02*
X176713Y75027D01*
X177627Y75027D02*
X179338Y75027D01*
X180252Y75027D02*
X180463Y75027D01*
X31833Y75280D02*
X27313Y75280D01*
X81006Y75280D02*
X82963Y75280D01*
X84256Y75280D02*
X100083Y75280D01*
X102626Y75280D02*
X116935Y75280D01*
X117405Y75280D02*
X140213Y75280D01*
X160072Y75280D02*
X162333Y75280D01*
X165251Y75280D02*
X176713Y75280D01*
X177627Y75280D02*
X179338Y75280D01*
X180252Y75280D02*
X180463Y75280D01*
X31581Y75532D02*
X27313Y75532D01*
X33624Y75532D02*
X33777Y75532D01*
X79063Y75532D02*
X79216Y75532D01*
X81259Y75532D02*
X83216Y75532D01*
X84509Y75532D02*
X99831Y75532D01*
X102374Y75532D02*
X116542Y75532D01*
X117798Y75532D02*
X136292Y75532D01*
X137298Y75532D02*
X138417Y75532D01*
X139423Y75532D02*
X140466Y75532D01*
X164999Y75532D02*
X176713Y75532D01*
X177627Y75532D02*
X179338Y75532D01*
X180252Y75532D02*
X180463Y75532D01*
X31338Y75785D02*
X27313Y75785D01*
X33371Y75785D02*
X33777Y75785D01*
X79063Y75785D02*
X79468Y75785D01*
X81511Y75785D02*
X83468Y75785D01*
X84761Y75785D02*
X99578Y75785D01*
X102121Y75785D02*
X104328Y75785D01*
X117951Y75785D02*
X123203Y75785D01*
X137524Y75785D02*
X138191Y75785D01*
X139649Y75785D02*
X140588Y75785D01*
X141502Y75785D02*
X141718Y75785D01*
X164746Y75785D02*
X176713Y75785D01*
X177627Y75785D02*
X179338Y75785D01*
X180252Y75785D02*
X180463Y75785D01*
X31338Y76037D02*
X27313Y76037D01*
X33127Y76037D02*
X33777Y76037D01*
X79063Y76037D02*
X79721Y76037D01*
X81764Y76037D02*
X83721Y76037D01*
X85014Y76037D02*
X99326Y76037D01*
X101869Y76037D02*
X104076Y76037D01*
X118008Y76037D02*
X122951Y76037D01*
X137629Y76037D02*
X138086Y76037D01*
X139754Y76037D02*
X140588Y76037D01*
X141502Y76037D02*
X141971Y76037D01*
X149139Y76037D02*
X152086Y76037D01*
X153754Y76037D02*
X157721Y76037D01*
X164494Y76037D02*
X176713Y76037D01*
X177627Y76037D02*
X179338Y76037D01*
X180252Y76037D02*
X180463Y76037D01*
X28534Y76290D02*
X27313Y76290D01*
X29555Y76290D02*
X31338Y76290D01*
X33127Y76290D02*
X33777Y76290D01*
X79063Y76290D02*
X79973Y76290D01*
X82016Y76290D02*
X83973Y76290D01*
X85266Y76290D02*
X99073Y76290D01*
X101616Y76290D02*
X103823Y76290D01*
X117994Y76290D02*
X122698Y76290D01*
X137633Y76290D02*
X138082Y76290D01*
X139758Y76290D02*
X140588Y76290D01*
X141502Y76290D02*
X142213Y76290D01*
X149391Y76290D02*
X152082Y76290D01*
X153758Y76290D02*
X157973Y76290D01*
X164241Y76290D02*
X176713Y76290D01*
X177627Y76290D02*
X179338Y76290D01*
X180252Y76290D02*
X180463Y76290D01*
X28313Y76542D02*
X27313Y76542D01*
X29777Y76542D02*
X31338Y76542D01*
X33127Y76542D02*
X33777Y76542D01*
X36063Y76542D02*
X76777Y76542D01*
X79063Y76542D02*
X80226Y76542D01*
X82269Y76542D02*
X84226Y76542D01*
X85519Y76542D02*
X98821Y76542D01*
X101364Y76542D02*
X103571Y76542D01*
X117890Y76542D02*
X122446Y76542D01*
X137566Y76542D02*
X137946Y76542D01*
X139691Y76542D02*
X140588Y76542D01*
X141502Y76542D02*
X142213Y76542D01*
X143127Y76542D02*
X143226Y76542D01*
X149644Y76542D02*
X152148Y76542D01*
X153894Y76542D02*
X158226Y76542D01*
X163989Y76542D02*
X176713Y76542D01*
X177627Y76542D02*
X179338Y76542D01*
X180252Y76542D02*
X180463Y76542D01*
X28208Y76795D02*
X27313Y76795D01*
X29882Y76795D02*
X31338Y76795D01*
X33127Y76795D02*
X33777Y76795D01*
X36063Y76795D02*
X76777Y76795D01*
X79063Y76795D02*
X80478Y76795D01*
X82521Y76795D02*
X84478Y76795D01*
X85771Y76795D02*
X98568Y76795D01*
X101111Y76795D02*
X103318Y76795D01*
X104611Y76795D02*
X116529Y76795D01*
X117810Y76795D02*
X122193Y76795D01*
X123566Y76795D02*
X130818Y76795D01*
X139525Y76795D02*
X140588Y76795D01*
X141502Y76795D02*
X142213Y76795D01*
X143127Y76795D02*
X143478Y76795D01*
X145521Y76795D02*
X148603Y76795D01*
X149896Y76795D02*
X152314Y76795D01*
X154146Y76795D02*
X158478Y76795D01*
X163736Y76795D02*
X176713Y76795D01*
X177627Y76795D02*
X179338Y76795D01*
X180252Y76795D02*
X180463Y76795D01*
X28207Y77047D02*
X27313Y77047D01*
X29883Y77047D02*
X31338Y77047D01*
X33127Y77047D02*
X33777Y77047D01*
X36063Y77047D02*
X76777Y77047D01*
X79063Y77047D02*
X80731Y77047D01*
X82774Y77047D02*
X84731Y77047D01*
X86024Y77047D02*
X98316Y77047D01*
X100859Y77047D02*
X103066Y77047D01*
X117956Y77047D02*
X121941Y77047D01*
X123938Y77047D02*
X130566Y77047D01*
X138734Y77047D02*
X138739Y77047D01*
X139100Y77047D02*
X140588Y77047D01*
X141502Y77047D02*
X142213Y77047D01*
X143127Y77047D02*
X143731Y77047D01*
X145774Y77047D02*
X148856Y77047D01*
X150149Y77047D02*
X152739Y77047D01*
X153100Y77047D02*
X153106Y77047D01*
X154399Y77047D02*
X162191Y77047D01*
X163484Y77047D02*
X176713Y77047D01*
X177627Y77047D02*
X179338Y77047D01*
X180252Y77047D02*
X180463Y77047D01*
X28276Y77300D02*
X27313Y77300D01*
X29813Y77300D02*
X31338Y77300D01*
X33127Y77300D02*
X33777Y77300D01*
X36063Y77300D02*
X76777Y77300D01*
X79063Y77300D02*
X80983Y77300D01*
X83026Y77300D02*
X84983Y77300D01*
X86276Y77300D02*
X98063Y77300D01*
X100606Y77300D02*
X102813Y77300D01*
X118008Y77300D02*
X121688Y77300D01*
X124082Y77300D02*
X130313Y77300D01*
X138481Y77300D02*
X140588Y77300D01*
X141502Y77300D02*
X142213Y77300D01*
X143127Y77300D02*
X143983Y77300D01*
X146026Y77300D02*
X149108Y77300D01*
X150401Y77300D02*
X153358Y77300D01*
X154651Y77300D02*
X161938Y77300D01*
X163231Y77300D02*
X176713Y77300D01*
X177627Y77300D02*
X179338Y77300D01*
X180252Y77300D02*
X180463Y77300D01*
X28447Y77552D02*
X27313Y77552D01*
X29643Y77552D02*
X31338Y77552D01*
X33127Y77552D02*
X33777Y77552D01*
X36063Y77552D02*
X76777Y77552D01*
X79063Y77552D02*
X81236Y77552D01*
X83279Y77552D02*
X85236Y77552D01*
X86529Y77552D02*
X97811Y77552D01*
X100354Y77552D02*
X102561Y77552D01*
X117989Y77552D02*
X121436Y77552D01*
X124133Y77552D02*
X130061Y77552D01*
X131354Y77552D02*
X140588Y77552D01*
X141502Y77552D02*
X142213Y77552D01*
X143127Y77552D02*
X144236Y77552D01*
X146279Y77552D02*
X149361Y77552D01*
X150654Y77552D02*
X153611Y77552D01*
X154904Y77552D02*
X161686Y77552D01*
X162979Y77552D02*
X176713Y77552D01*
X177627Y77552D02*
X179338Y77552D01*
X180252Y77552D02*
X180463Y77552D01*
X28588Y77805D02*
X27313Y77805D01*
X29531Y77805D02*
X31338Y77805D01*
X33127Y77805D02*
X33777Y77805D01*
X36063Y77805D02*
X76777Y77805D01*
X79063Y77805D02*
X81488Y77805D01*
X83531Y77805D02*
X85488Y77805D01*
X86781Y77805D02*
X97558Y77805D01*
X100101Y77805D02*
X102308Y77805D01*
X104351Y77805D02*
X116455Y77805D01*
X117884Y77805D02*
X121183Y77805D01*
X124113Y77805D02*
X129808Y77805D01*
X131570Y77805D02*
X139644Y77805D01*
X141502Y77805D02*
X142213Y77805D01*
X143127Y77805D02*
X144488Y77805D01*
X146531Y77805D02*
X149613Y77805D01*
X150906Y77805D02*
X153863Y77805D01*
X155156Y77805D02*
X161433Y77805D01*
X162726Y77805D02*
X176713Y77805D01*
X177627Y77805D02*
X179338Y77805D01*
X180252Y77805D02*
X180463Y77805D01*
X28017Y78057D02*
X27313Y78057D01*
X29784Y78057D02*
X31338Y78057D01*
X33127Y78057D02*
X33777Y78057D01*
X36063Y78057D02*
X76777Y78057D01*
X79063Y78057D02*
X81741Y78057D01*
X83784Y78057D02*
X85741Y78057D01*
X87034Y78057D02*
X97306Y78057D01*
X99849Y78057D02*
X102056Y78057D01*
X104099Y78057D02*
X116712Y78057D01*
X117628Y78057D02*
X120931Y78057D01*
X124008Y78057D02*
X129556Y78057D01*
X131783Y78057D02*
X135556Y78057D01*
X141502Y78057D02*
X142213Y78057D01*
X143127Y78057D02*
X144741Y78057D01*
X146784Y78057D02*
X149866Y78057D01*
X151159Y78057D02*
X154116Y78057D01*
X155409Y78057D02*
X161181Y78057D01*
X162474Y78057D02*
X176713Y78057D01*
X177627Y78057D02*
X179338Y78057D01*
X180252Y78057D02*
X180463Y78057D01*
X27805Y78310D02*
X27313Y78310D01*
X30036Y78310D02*
X31338Y78310D01*
X33127Y78310D02*
X33777Y78310D01*
X36063Y78310D02*
X76777Y78310D01*
X79063Y78310D02*
X81993Y78310D01*
X84036Y78310D02*
X85993Y78310D01*
X87286Y78310D02*
X97053Y78310D01*
X99596Y78310D02*
X101803Y78310D01*
X103846Y78310D02*
X120678Y78310D01*
X123747Y78310D02*
X129303Y78310D01*
X131883Y78310D02*
X135303Y78310D01*
X141502Y78310D02*
X142213Y78310D01*
X143127Y78310D02*
X144993Y78310D01*
X147036Y78310D02*
X150118Y78310D01*
X151411Y78310D02*
X154368Y78310D01*
X155661Y78310D02*
X160928Y78310D01*
X162221Y78310D02*
X176713Y78310D01*
X177627Y78310D02*
X179338Y78310D01*
X180252Y78310D02*
X180463Y78310D01*
X27707Y78562D02*
X27313Y78562D01*
X30289Y78562D02*
X31338Y78562D01*
X33127Y78562D02*
X33777Y78562D01*
X36063Y78562D02*
X76777Y78562D01*
X79063Y78562D02*
X82246Y78562D01*
X84289Y78562D02*
X86246Y78562D01*
X87539Y78562D02*
X96801Y78562D01*
X99344Y78562D02*
X101551Y78562D01*
X103594Y78562D02*
X118732Y78562D01*
X119358Y78562D02*
X120426Y78562D01*
X122969Y78562D02*
X129051Y78562D01*
X131883Y78562D02*
X135051Y78562D01*
X141502Y78562D02*
X142213Y78562D01*
X143127Y78562D02*
X143637Y78562D01*
X144703Y78562D02*
X145246Y78562D01*
X147289Y78562D02*
X150371Y78562D01*
X151664Y78562D02*
X154621Y78562D01*
X155914Y78562D02*
X160676Y78562D01*
X161969Y78562D02*
X176713Y78562D01*
X177627Y78562D02*
X179338Y78562D01*
X180252Y78562D02*
X180463Y78562D01*
X27707Y78815D02*
X27313Y78815D01*
X30541Y78815D02*
X31338Y78815D01*
X33127Y78815D02*
X33777Y78815D01*
X36063Y78815D02*
X76777Y78815D01*
X79063Y78815D02*
X82498Y78815D01*
X84541Y78815D02*
X86498Y78815D01*
X87791Y78815D02*
X96548Y78815D01*
X99091Y78815D02*
X101298Y78815D01*
X103341Y78815D02*
X118384Y78815D01*
X119705Y78815D02*
X120173Y78815D01*
X122716Y78815D02*
X128798Y78815D01*
X131807Y78815D02*
X134798Y78815D01*
X141502Y78815D02*
X142213Y78815D01*
X143127Y78815D02*
X143428Y78815D01*
X144911Y78815D02*
X145498Y78815D01*
X147541Y78815D02*
X150623Y78815D01*
X151916Y78815D02*
X154873Y78815D01*
X156166Y78815D02*
X160423Y78815D01*
X161716Y78815D02*
X176713Y78815D01*
X177627Y78815D02*
X179338Y78815D01*
X180252Y78815D02*
X180463Y78815D01*
X27784Y79067D02*
X27313Y79067D01*
X29306Y79067D02*
X29501Y79067D01*
X30794Y79067D02*
X31338Y79067D01*
X33127Y79067D02*
X33777Y79067D01*
X36063Y79067D02*
X76777Y79067D01*
X79063Y79067D02*
X82751Y79067D01*
X84794Y79067D02*
X86751Y79067D01*
X88044Y79067D02*
X96296Y79067D01*
X98839Y79067D02*
X101046Y79067D01*
X119839Y79067D02*
X119921Y79067D01*
X122464Y79067D02*
X128546Y79067D01*
X131628Y79067D02*
X134546Y79067D01*
X135839Y79067D02*
X139587Y79067D01*
X141502Y79067D02*
X142213Y79067D01*
X143127Y79067D02*
X143332Y79067D01*
X145008Y79067D02*
X145751Y79067D01*
X147794Y79067D02*
X150876Y79067D01*
X152169Y79067D02*
X155126Y79067D01*
X156419Y79067D02*
X160171Y79067D01*
X161464Y79067D02*
X176713Y79067D01*
X177627Y79067D02*
X179338Y79067D01*
X180252Y79067D02*
X180463Y79067D01*
X27964Y79320D02*
X27313Y79320D01*
X29125Y79320D02*
X29753Y79320D01*
X31002Y79320D02*
X31338Y79320D01*
X33127Y79320D02*
X33777Y79320D01*
X36063Y79320D02*
X76777Y79320D01*
X79063Y79320D02*
X83003Y79320D01*
X85046Y79320D02*
X87003Y79320D01*
X88296Y79320D02*
X96043Y79320D01*
X98586Y79320D02*
X100793Y79320D01*
X122211Y79320D02*
X128293Y79320D01*
X130836Y79320D02*
X134293Y79320D01*
X135586Y79320D02*
X140588Y79320D01*
X141502Y79320D02*
X142213Y79320D01*
X143127Y79320D02*
X143332Y79320D01*
X145008Y79320D02*
X146003Y79320D01*
X148046Y79320D02*
X151128Y79320D01*
X152421Y79320D02*
X155378Y79320D01*
X156671Y79320D02*
X159918Y79320D01*
X161211Y79320D02*
X176713Y79320D01*
X177627Y79320D02*
X179338Y79320D01*
X180252Y79320D02*
X180463Y79320D01*
X28088Y79572D02*
X27313Y79572D01*
X29002Y79572D02*
X30006Y79572D01*
X31002Y79572D02*
X31338Y79572D01*
X33127Y79572D02*
X33777Y79572D01*
X36063Y79572D02*
X76777Y79572D01*
X79063Y79572D02*
X83256Y79572D01*
X85299Y79572D02*
X87256Y79572D01*
X88549Y79572D02*
X95791Y79572D01*
X98334Y79572D02*
X100541Y79572D01*
X121959Y79572D02*
X128041Y79572D01*
X130584Y79572D02*
X134041Y79572D01*
X135838Y79572D02*
X139627Y79572D01*
X141502Y79572D02*
X142213Y79572D01*
X143127Y79572D02*
X143411Y79572D01*
X144929Y79572D02*
X146256Y79572D01*
X148299Y79572D02*
X151381Y79572D01*
X152674Y79572D02*
X155631Y79572D01*
X156924Y79572D02*
X159666Y79572D01*
X160959Y79572D02*
X176713Y79572D01*
X177627Y79572D02*
X179338Y79572D01*
X180252Y79572D02*
X180463Y79572D01*
X28088Y79825D02*
X27313Y79825D01*
X29002Y79825D02*
X30088Y79825D01*
X31002Y79825D02*
X31338Y79825D01*
X33127Y79825D02*
X33777Y79825D01*
X36063Y79825D02*
X76777Y79825D01*
X79063Y79825D02*
X83508Y79825D01*
X85551Y79825D02*
X87508Y79825D01*
X88801Y79825D02*
X95538Y79825D01*
X98081Y79825D02*
X99326Y79825D01*
X100013Y79825D02*
X100288Y79825D01*
X103331Y79825D02*
X118344Y79825D01*
X121706Y79825D02*
X127788Y79825D01*
X130331Y79825D02*
X133788Y79825D01*
X141502Y79825D02*
X142213Y79825D01*
X143127Y79825D02*
X143594Y79825D01*
X145176Y79825D02*
X146508Y79825D01*
X148551Y79825D02*
X151633Y79825D01*
X152926Y79825D02*
X155883Y79825D01*
X157176Y79825D02*
X159413Y79825D01*
X160706Y79825D02*
X176713Y79825D01*
X177627Y79825D02*
X179338Y79825D01*
X180252Y79825D02*
X180463Y79825D01*
X28088Y80077D02*
X27313Y80077D01*
X29002Y80077D02*
X30088Y80077D01*
X31002Y80077D02*
X31338Y80077D01*
X33127Y80077D02*
X33777Y80077D01*
X36063Y80077D02*
X76777Y80077D01*
X79063Y80077D02*
X83761Y80077D01*
X85804Y80077D02*
X87761Y80077D01*
X89054Y80077D02*
X95286Y80077D01*
X97829Y80077D02*
X98997Y80077D01*
X103079Y80077D02*
X118635Y80077D01*
X121454Y80077D02*
X127536Y80077D01*
X130079Y80077D02*
X133536Y80077D01*
X141502Y80077D02*
X142213Y80077D01*
X143127Y80077D02*
X144136Y80077D01*
X145429Y80077D02*
X146761Y80077D01*
X148804Y80077D02*
X151886Y80077D01*
X153179Y80077D02*
X156136Y80077D01*
X157429Y80077D02*
X159161Y80077D01*
X160454Y80077D02*
X176713Y80077D01*
X177627Y80077D02*
X179338Y80077D01*
X180252Y80077D02*
X180463Y80077D01*
X28088Y80330D02*
X27313Y80330D01*
X29002Y80330D02*
X30088Y80330D01*
X31002Y80330D02*
X31338Y80330D01*
X33127Y80330D02*
X33777Y80330D01*
X36063Y80330D02*
X76777Y80330D01*
X79063Y80330D02*
X84013Y80330D01*
X86056Y80330D02*
X88013Y80330D01*
X89306Y80330D02*
X95033Y80330D01*
X97576Y80330D02*
X98870Y80330D01*
X102826Y80330D02*
X118658Y80330D01*
X121201Y80330D02*
X127283Y80330D01*
X129826Y80330D02*
X133283Y80330D01*
X141502Y80330D02*
X142213Y80330D01*
X143127Y80330D02*
X144388Y80330D01*
X145681Y80330D02*
X147013Y80330D01*
X149056Y80330D02*
X152138Y80330D01*
X153431Y80330D02*
X156388Y80330D01*
X157681Y80330D02*
X158369Y80330D01*
X160201Y80330D02*
X176713Y80330D01*
X177627Y80330D02*
X179338Y80330D01*
X180252Y80330D02*
X180463Y80330D01*
X28088Y80582D02*
X27313Y80582D01*
X29002Y80582D02*
X30088Y80582D01*
X31002Y80582D02*
X31338Y80582D01*
X33127Y80582D02*
X33777Y80582D01*
X36063Y80582D02*
X76777Y80582D01*
X79063Y80582D02*
X84266Y80582D01*
X86309Y80582D02*
X88266Y80582D01*
X89559Y80582D02*
X94781Y80582D01*
X97324Y80582D02*
X98832Y80582D01*
X102781Y80582D02*
X105808Y80582D01*
X106531Y80582D02*
X118406Y80582D01*
X120949Y80582D02*
X122308Y80582D01*
X123031Y80582D02*
X127031Y80582D01*
X129574Y80582D02*
X133213Y80582D01*
X134324Y80582D02*
X134540Y80582D01*
X141502Y80582D02*
X142213Y80582D01*
X143127Y80582D02*
X144641Y80582D01*
X145934Y80582D02*
X147266Y80582D01*
X149309Y80582D02*
X152391Y80582D01*
X153684Y80582D02*
X156641Y80582D01*
X157934Y80582D02*
X158171Y80582D01*
X159949Y80582D02*
X176713Y80582D01*
X177627Y80582D02*
X179338Y80582D01*
X180252Y80582D02*
X180463Y80582D01*
X28088Y80835D02*
X27313Y80835D01*
X29002Y80835D02*
X30088Y80835D01*
X31002Y80835D02*
X31338Y80835D01*
X33127Y80835D02*
X33777Y80835D01*
X36063Y80835D02*
X76777Y80835D01*
X79063Y80835D02*
X84518Y80835D01*
X86561Y80835D02*
X88518Y80835D01*
X89811Y80835D02*
X94528Y80835D01*
X97600Y80835D02*
X98864Y80835D01*
X103100Y80835D02*
X105489Y80835D01*
X106850Y80835D02*
X118153Y80835D01*
X120696Y80835D02*
X121989Y80835D01*
X123350Y80835D02*
X126778Y80835D01*
X129321Y80835D02*
X132989Y80835D01*
X134350Y80835D02*
X134729Y80835D01*
X135860Y80835D02*
X139604Y80835D01*
X141446Y80835D02*
X142213Y80835D01*
X143127Y80835D02*
X144893Y80835D01*
X146186Y80835D02*
X147518Y80835D01*
X149561Y80835D02*
X152643Y80835D01*
X153936Y80835D02*
X156893Y80835D01*
X159758Y80835D02*
X176713Y80835D01*
X177627Y80835D02*
X179338Y80835D01*
X180252Y80835D02*
X180463Y80835D01*
X28088Y81087D02*
X27313Y81087D01*
X29002Y81087D02*
X30088Y81087D01*
X31002Y81087D02*
X31338Y81087D01*
X33127Y81087D02*
X33777Y81087D01*
X36063Y81087D02*
X76777Y81087D01*
X79063Y81087D02*
X84771Y81087D01*
X86814Y81087D02*
X88771Y81087D01*
X90064Y81087D02*
X94276Y81087D01*
X103222Y81087D02*
X105367Y81087D01*
X120444Y81087D02*
X121867Y81087D01*
X129069Y81087D02*
X132867Y81087D01*
X134472Y81087D02*
X139901Y81087D01*
X141194Y81087D02*
X142213Y81087D01*
X143127Y81087D02*
X145146Y81087D01*
X146439Y81087D02*
X147771Y81087D01*
X149814Y81087D02*
X152896Y81087D01*
X154189Y81087D02*
X157146Y81087D01*
X159758Y81087D02*
X176713Y81087D01*
X177627Y81087D02*
X179338Y81087D01*
X180252Y81087D02*
X180463Y81087D01*
X28088Y81340D02*
X27313Y81340D01*
X29002Y81340D02*
X30088Y81340D01*
X31002Y81340D02*
X31338Y81340D01*
X33127Y81340D02*
X33777Y81340D01*
X36063Y81340D02*
X76777Y81340D01*
X79063Y81340D02*
X85023Y81340D01*
X87066Y81340D02*
X89023Y81340D01*
X90316Y81340D02*
X94088Y81340D01*
X103258Y81340D02*
X105332Y81340D01*
X120191Y81340D02*
X121832Y81340D01*
X129008Y81340D02*
X132832Y81340D01*
X134508Y81340D02*
X139648Y81340D01*
X140941Y81340D02*
X142109Y81340D01*
X143230Y81340D02*
X145398Y81340D01*
X146691Y81340D02*
X148023Y81340D01*
X150066Y81340D02*
X153148Y81340D01*
X154441Y81340D02*
X157398Y81340D01*
X159672Y81340D02*
X176713Y81340D01*
X177627Y81340D02*
X179338Y81340D01*
X180252Y81340D02*
X180463Y81340D01*
X28088Y81592D02*
X27313Y81592D01*
X29002Y81592D02*
X30088Y81592D01*
X31002Y81592D02*
X31338Y81592D01*
X33127Y81592D02*
X33777Y81592D01*
X36063Y81592D02*
X76777Y81592D01*
X79063Y81592D02*
X85276Y81592D01*
X87319Y81592D02*
X89276Y81592D01*
X90569Y81592D02*
X94088Y81592D01*
X103222Y81592D02*
X105367Y81592D01*
X119939Y81592D02*
X121867Y81592D01*
X127314Y81592D02*
X127367Y81592D01*
X128972Y81592D02*
X132867Y81592D01*
X134472Y81592D02*
X139396Y81592D01*
X140689Y81592D02*
X141917Y81592D01*
X143423Y81592D02*
X145651Y81592D01*
X146944Y81592D02*
X148276Y81592D01*
X150319Y81592D02*
X152857Y81592D01*
X154694Y81592D02*
X157107Y81592D01*
X159478Y81592D02*
X168107Y81592D01*
X169233Y81592D02*
X176713Y81592D01*
X177627Y81592D02*
X179338Y81592D01*
X180252Y81592D02*
X180463Y81592D01*
X28088Y81845D02*
X27313Y81845D01*
X29002Y81845D02*
X30088Y81845D01*
X31002Y81845D02*
X31338Y81845D01*
X33127Y81845D02*
X33777Y81845D01*
X36063Y81845D02*
X76777Y81845D01*
X79063Y81845D02*
X85528Y81845D01*
X87571Y81845D02*
X89528Y81845D01*
X90821Y81845D02*
X94088Y81845D01*
X96061Y81845D02*
X96295Y81845D01*
X103100Y81845D02*
X105489Y81845D01*
X106850Y81845D02*
X118393Y81845D01*
X119686Y81845D02*
X121989Y81845D01*
X123350Y81845D02*
X127489Y81845D01*
X128850Y81845D02*
X132989Y81845D01*
X134350Y81845D02*
X139143Y81845D01*
X140436Y81845D02*
X141832Y81845D01*
X143508Y81845D02*
X145903Y81845D01*
X147196Y81845D02*
X148528Y81845D01*
X169424Y81845D02*
X176713Y81845D01*
X177627Y81845D02*
X179338Y81845D01*
X180252Y81845D02*
X180463Y81845D01*
X28088Y82097D02*
X27313Y82097D01*
X29002Y82097D02*
X30088Y82097D01*
X31002Y82097D02*
X31338Y82097D01*
X33127Y82097D02*
X33777Y82097D01*
X36063Y82097D02*
X76777Y82097D01*
X79063Y82097D02*
X85781Y82097D01*
X87824Y82097D02*
X89781Y82097D01*
X91074Y82097D02*
X94088Y82097D01*
X95877Y82097D02*
X96492Y82097D01*
X97598Y82097D02*
X99766Y82097D01*
X101809Y82097D02*
X102058Y82097D01*
X102781Y82097D02*
X105808Y82097D01*
X106531Y82097D02*
X111102Y82097D01*
X112238Y82097D02*
X118141Y82097D01*
X119434Y82097D02*
X122308Y82097D01*
X123031Y82097D02*
X127808Y82097D01*
X128531Y82097D02*
X133308Y82097D01*
X134031Y82097D02*
X138602Y82097D01*
X140184Y82097D02*
X141832Y82097D01*
X143508Y82097D02*
X146156Y82097D01*
X147449Y82097D02*
X148781Y82097D01*
X169508Y82097D02*
X176713Y82097D01*
X177627Y82097D02*
X179338Y82097D01*
X180252Y82097D02*
X180463Y82097D01*
X28088Y82350D02*
X27313Y82350D01*
X29002Y82350D02*
X30088Y82350D01*
X31002Y82350D02*
X31338Y82350D01*
X33127Y82350D02*
X33777Y82350D01*
X36063Y82350D02*
X76777Y82350D01*
X79063Y82350D02*
X86033Y82350D01*
X88076Y82350D02*
X90033Y82350D01*
X91326Y82350D02*
X94088Y82350D01*
X95877Y82350D02*
X99513Y82350D01*
X101556Y82350D02*
X110914Y82350D01*
X119449Y82350D02*
X138414Y82350D01*
X139931Y82350D02*
X141922Y82350D01*
X143418Y82350D02*
X146408Y82350D01*
X147701Y82350D02*
X148838Y82350D01*
X149752Y82350D02*
X149783Y82350D01*
X169508Y82350D02*
X176713Y82350D01*
X177627Y82350D02*
X179338Y82350D01*
X180252Y82350D02*
X180463Y82350D01*
X28088Y82602D02*
X27313Y82602D01*
X29002Y82602D02*
X30088Y82602D01*
X31002Y82602D02*
X31338Y82602D01*
X33127Y82602D02*
X33777Y82602D01*
X36063Y82602D02*
X76777Y82602D01*
X79063Y82602D02*
X86286Y82602D01*
X88329Y82602D02*
X90286Y82602D01*
X91579Y82602D02*
X94088Y82602D01*
X95877Y82602D02*
X99261Y82602D01*
X101304Y82602D02*
X110832Y82602D01*
X119743Y82602D02*
X138332Y82602D01*
X140008Y82602D02*
X142122Y82602D01*
X143218Y82602D02*
X146661Y82602D01*
X147954Y82602D02*
X148838Y82602D01*
X149752Y82602D02*
X150036Y82602D01*
X154167Y82602D02*
X154411Y82602D01*
X158417Y82602D02*
X158661Y82602D01*
X169417Y82602D02*
X176713Y82602D01*
X177627Y82602D02*
X179338Y82602D01*
X180252Y82602D02*
X180463Y82602D01*
X28088Y82855D02*
X27313Y82855D01*
X29002Y82855D02*
X30088Y82855D01*
X31002Y82855D02*
X31338Y82855D01*
X33127Y82855D02*
X33777Y82855D01*
X36063Y82855D02*
X76777Y82855D01*
X79063Y82855D02*
X86538Y82855D01*
X88581Y82855D02*
X90538Y82855D01*
X91831Y82855D02*
X94088Y82855D01*
X95877Y82855D02*
X99008Y82855D01*
X101051Y82855D02*
X110832Y82855D01*
X119855Y82855D02*
X138332Y82855D01*
X140008Y82855D02*
X146913Y82855D01*
X148206Y82855D02*
X148594Y82855D01*
X149995Y82855D02*
X152874Y82855D01*
X153965Y82855D02*
X157124Y82855D01*
X158215Y82855D02*
X168124Y82855D01*
X169215Y82855D02*
X176713Y82855D01*
X177627Y82855D02*
X179338Y82855D01*
X180252Y82855D02*
X180463Y82855D01*
X28088Y83107D02*
X27313Y83107D01*
X29002Y83107D02*
X30088Y83107D01*
X31002Y83107D02*
X31338Y83107D01*
X33127Y83107D02*
X33777Y83107D01*
X36063Y83107D02*
X76777Y83107D01*
X79063Y83107D02*
X86791Y83107D01*
X88834Y83107D02*
X90791Y83107D01*
X92084Y83107D02*
X94088Y83107D01*
X95877Y83107D02*
X98963Y83107D01*
X101373Y83107D02*
X110925Y83107D01*
X119883Y83107D02*
X138425Y83107D01*
X139914Y83107D02*
X147166Y83107D01*
X148459Y83107D02*
X148484Y83107D01*
X150106Y83107D02*
X176713Y83107D01*
X177627Y83107D02*
X179338Y83107D01*
X180252Y83107D02*
X180463Y83107D01*
X27664Y83360D02*
X27313Y83360D01*
X29676Y83360D02*
X30088Y83360D01*
X31002Y83360D02*
X31338Y83360D01*
X33127Y83360D02*
X33777Y83360D01*
X36063Y83360D02*
X76777Y83360D01*
X79063Y83360D02*
X87043Y83360D01*
X89086Y83360D02*
X91043Y83360D01*
X92336Y83360D02*
X94088Y83360D01*
X95877Y83360D02*
X98963Y83360D01*
X101555Y83360D02*
X111129Y83360D01*
X112210Y83360D02*
X118249Y83360D01*
X119840Y83360D02*
X138629Y83360D01*
X139710Y83360D02*
X147418Y83360D01*
X150133Y83360D02*
X176713Y83360D01*
X177627Y83360D02*
X179338Y83360D01*
X180252Y83360D02*
X180463Y83360D01*
X31338Y83612D02*
X31002Y83612D01*
X33127Y83612D02*
X33777Y83612D01*
X36063Y83612D02*
X76777Y83612D01*
X79063Y83612D02*
X87296Y83612D01*
X89339Y83612D02*
X91296Y83612D01*
X92502Y83612D02*
X94088Y83612D01*
X95877Y83612D02*
X98963Y83612D01*
X101633Y83612D02*
X118382Y83612D01*
X119708Y83612D02*
X147671Y83612D01*
X150089Y83612D02*
X176713Y83612D01*
X177627Y83612D02*
X179338Y83612D01*
X180252Y83612D02*
X180463Y83612D01*
X31338Y83865D02*
X31002Y83865D01*
X33127Y83865D02*
X33777Y83865D01*
X36063Y83865D02*
X76777Y83865D01*
X79063Y83865D02*
X87548Y83865D01*
X89591Y83865D02*
X91548Y83865D01*
X92502Y83865D02*
X94088Y83865D01*
X95877Y83865D02*
X98963Y83865D01*
X101633Y83865D02*
X118588Y83865D01*
X119502Y83865D02*
X147923Y83865D01*
X149955Y83865D02*
X176713Y83865D01*
X177627Y83865D02*
X179338Y83865D01*
X180252Y83865D02*
X180463Y83865D01*
X31338Y84117D02*
X31002Y84117D01*
X33127Y84117D02*
X33777Y84117D01*
X36063Y84117D02*
X76777Y84117D01*
X79063Y84117D02*
X87801Y84117D01*
X89844Y84117D02*
X91588Y84117D01*
X92502Y84117D02*
X94088Y84117D01*
X95877Y84117D02*
X98963Y84117D01*
X101844Y84117D02*
X118588Y84117D01*
X119502Y84117D02*
X148176Y84117D01*
X149608Y84117D02*
X152207Y84117D01*
X153383Y84117D02*
X176713Y84117D01*
X177627Y84117D02*
X179338Y84117D01*
X180252Y84117D02*
X180463Y84117D01*
X31338Y84370D02*
X31002Y84370D01*
X33127Y84370D02*
X33777Y84370D01*
X36063Y84370D02*
X76777Y84370D01*
X79063Y84370D02*
X88053Y84370D01*
X90096Y84370D02*
X91588Y84370D01*
X92502Y84370D02*
X94088Y84370D01*
X95877Y84370D02*
X98963Y84370D01*
X102096Y84370D02*
X118588Y84370D01*
X119502Y84370D02*
X148428Y84370D01*
X149721Y84370D02*
X152030Y84370D01*
X159596Y84370D02*
X176713Y84370D01*
X177627Y84370D02*
X179338Y84370D01*
X180252Y84370D02*
X180463Y84370D01*
X31338Y84622D02*
X31002Y84622D01*
X33127Y84622D02*
X33777Y84622D01*
X36063Y84622D02*
X76777Y84622D01*
X79063Y84622D02*
X88306Y84622D01*
X90349Y84622D02*
X91588Y84622D01*
X92502Y84622D02*
X94088Y84622D01*
X95877Y84622D02*
X98963Y84622D01*
X100377Y84622D02*
X101056Y84622D01*
X102349Y84622D02*
X118452Y84622D01*
X119638Y84622D02*
X148681Y84622D01*
X149974Y84622D02*
X151957Y84622D01*
X159849Y84622D02*
X176713Y84622D01*
X177627Y84622D02*
X179338Y84622D01*
X180252Y84622D02*
X180463Y84622D01*
X31338Y84875D02*
X31002Y84875D01*
X33127Y84875D02*
X33777Y84875D01*
X36063Y84875D02*
X76777Y84875D01*
X79063Y84875D02*
X88558Y84875D01*
X90601Y84875D02*
X91588Y84875D01*
X92502Y84875D02*
X94088Y84875D01*
X95877Y84875D02*
X98963Y84875D01*
X100377Y84875D02*
X101308Y84875D01*
X102601Y84875D02*
X118278Y84875D01*
X119811Y84875D02*
X148933Y84875D01*
X150226Y84875D02*
X151957Y84875D01*
X160101Y84875D02*
X176713Y84875D01*
X177627Y84875D02*
X179338Y84875D01*
X180252Y84875D02*
X180463Y84875D01*
X31338Y85127D02*
X31002Y85127D01*
X33127Y85127D02*
X33777Y85127D01*
X36063Y85127D02*
X76777Y85127D01*
X79063Y85127D02*
X88811Y85127D01*
X90854Y85127D02*
X91588Y85127D01*
X92502Y85127D02*
X94088Y85127D01*
X95877Y85127D02*
X98963Y85127D01*
X100377Y85127D02*
X101561Y85127D01*
X102854Y85127D02*
X118207Y85127D01*
X119883Y85127D02*
X149186Y85127D01*
X150479Y85127D02*
X152058Y85127D01*
X160354Y85127D02*
X176713Y85127D01*
X177627Y85127D02*
X179338Y85127D01*
X180252Y85127D02*
X180463Y85127D01*
X27688Y85380D02*
X27313Y85380D01*
X30776Y85380D02*
X31338Y85380D01*
X33127Y85380D02*
X33777Y85380D01*
X36063Y85380D02*
X76777Y85380D01*
X79063Y85380D02*
X89063Y85380D01*
X91106Y85380D02*
X91588Y85380D01*
X92502Y85380D02*
X94088Y85380D01*
X95877Y85380D02*
X98963Y85380D01*
X100377Y85380D02*
X101813Y85380D01*
X103106Y85380D02*
X118207Y85380D01*
X119883Y85380D02*
X149438Y85380D01*
X160606Y85380D02*
X176713Y85380D01*
X177627Y85380D02*
X179338Y85380D01*
X180252Y85380D02*
X180463Y85380D01*
X29231Y85632D02*
X27313Y85632D01*
X30524Y85632D02*
X31338Y85632D01*
X33127Y85632D02*
X33777Y85632D01*
X36063Y85632D02*
X76777Y85632D01*
X79063Y85632D02*
X89316Y85632D01*
X91359Y85632D02*
X91588Y85632D01*
X92502Y85632D02*
X94088Y85632D01*
X95877Y85632D02*
X98963Y85632D01*
X100377Y85632D02*
X102066Y85632D01*
X103359Y85632D02*
X118310Y85632D01*
X119779Y85632D02*
X149691Y85632D01*
X160859Y85632D02*
X176713Y85632D01*
X177627Y85632D02*
X179338Y85632D01*
X180252Y85632D02*
X180463Y85632D01*
X27700Y85885D02*
X27313Y85885D01*
X30271Y85885D02*
X31338Y85885D01*
X33127Y85885D02*
X33777Y85885D01*
X36063Y85885D02*
X76777Y85885D01*
X79063Y85885D02*
X89463Y85885D01*
X92502Y85885D02*
X94088Y85885D01*
X95877Y85885D02*
X98963Y85885D01*
X100377Y85885D02*
X102318Y85885D01*
X161111Y85885D02*
X176713Y85885D01*
X177627Y85885D02*
X179338Y85885D01*
X180252Y85885D02*
X180463Y85885D01*
X31338Y86137D02*
X30086Y86137D01*
X33127Y86137D02*
X33777Y86137D01*
X36063Y86137D02*
X76777Y86137D01*
X79063Y86137D02*
X89463Y86137D01*
X90377Y86137D02*
X90571Y86137D01*
X92502Y86137D02*
X94088Y86137D01*
X95877Y86137D02*
X98963Y86137D01*
X100377Y86137D02*
X102571Y86137D01*
X161364Y86137D02*
X176713Y86137D01*
X177627Y86137D02*
X179338Y86137D01*
X180252Y86137D02*
X180463Y86137D01*
X31338Y86390D02*
X30295Y86390D01*
X33127Y86390D02*
X33777Y86390D01*
X36063Y86390D02*
X76777Y86390D01*
X79063Y86390D02*
X89463Y86390D01*
X90377Y86390D02*
X90713Y86390D01*
X92502Y86390D02*
X94088Y86390D01*
X95877Y86390D02*
X98963Y86390D01*
X100377Y86390D02*
X102823Y86390D01*
X161616Y86390D02*
X176713Y86390D01*
X177627Y86390D02*
X179338Y86390D01*
X180252Y86390D02*
X180463Y86390D01*
X31338Y86642D02*
X30399Y86642D01*
X33127Y86642D02*
X33777Y86642D01*
X36063Y86642D02*
X76777Y86642D01*
X79063Y86642D02*
X89463Y86642D01*
X90377Y86642D02*
X90713Y86642D01*
X92502Y86642D02*
X94088Y86642D01*
X95877Y86642D02*
X98963Y86642D01*
X100377Y86642D02*
X159076Y86642D01*
X161869Y86642D02*
X176713Y86642D01*
X177627Y86642D02*
X179338Y86642D01*
X180252Y86642D02*
X180463Y86642D01*
X31304Y86895D02*
X30422Y86895D01*
X33127Y86895D02*
X33777Y86895D01*
X36063Y86895D02*
X76777Y86895D01*
X79063Y86895D02*
X89463Y86895D01*
X90377Y86895D02*
X90713Y86895D01*
X92502Y86895D02*
X94088Y86895D01*
X95877Y86895D02*
X98963Y86895D01*
X100377Y86895D02*
X159328Y86895D01*
X162121Y86895D02*
X176713Y86895D01*
X177627Y86895D02*
X179338Y86895D01*
X180252Y86895D02*
X180463Y86895D01*
X31071Y87147D02*
X30408Y87147D01*
X33127Y87147D02*
X33777Y87147D01*
X36063Y87147D02*
X76777Y87147D01*
X79063Y87147D02*
X89463Y87147D01*
X90377Y87147D02*
X90713Y87147D01*
X92502Y87147D02*
X94088Y87147D01*
X95877Y87147D02*
X98963Y87147D01*
X100377Y87147D02*
X159581Y87147D01*
X162374Y87147D02*
X176713Y87147D01*
X177627Y87147D02*
X179338Y87147D01*
X180252Y87147D02*
X180463Y87147D01*
X30966Y87400D02*
X30303Y87400D01*
X33127Y87400D02*
X33777Y87400D01*
X36063Y87400D02*
X76777Y87400D01*
X79063Y87400D02*
X89463Y87400D01*
X90377Y87400D02*
X90713Y87400D01*
X92502Y87400D02*
X94088Y87400D01*
X95877Y87400D02*
X98963Y87400D01*
X100377Y87400D02*
X159833Y87400D01*
X162626Y87400D02*
X176713Y87400D01*
X177627Y87400D02*
X179338Y87400D01*
X180252Y87400D02*
X180463Y87400D01*
X30957Y87652D02*
X30106Y87652D01*
X33127Y87652D02*
X33777Y87652D01*
X36063Y87652D02*
X76777Y87652D01*
X79063Y87652D02*
X89463Y87652D01*
X90377Y87652D02*
X90713Y87652D01*
X92502Y87652D02*
X94088Y87652D01*
X95877Y87652D02*
X98963Y87652D01*
X100377Y87652D02*
X106336Y87652D01*
X162879Y87652D02*
X176713Y87652D01*
X177627Y87652D02*
X179338Y87652D01*
X180252Y87652D02*
X180463Y87652D01*
X27652Y87905D02*
X27313Y87905D01*
X29688Y87905D02*
X31018Y87905D01*
X33127Y87905D02*
X33777Y87905D01*
X36063Y87905D02*
X76777Y87905D01*
X79063Y87905D02*
X89463Y87905D01*
X90377Y87905D02*
X90713Y87905D01*
X92502Y87905D02*
X94088Y87905D01*
X95877Y87905D02*
X98963Y87905D01*
X100506Y87905D02*
X106083Y87905D01*
X163131Y87905D02*
X176713Y87905D01*
X177627Y87905D02*
X179338Y87905D01*
X180252Y87905D02*
X180463Y87905D01*
X31177Y88157D02*
X27313Y88157D01*
X33124Y88157D02*
X33777Y88157D01*
X36063Y88157D02*
X76777Y88157D01*
X79063Y88157D02*
X89292Y88157D01*
X92502Y88157D02*
X94088Y88157D01*
X95877Y88157D02*
X98963Y88157D01*
X100759Y88157D02*
X105831Y88157D01*
X163384Y88157D02*
X176713Y88157D01*
X177627Y88157D02*
X179338Y88157D01*
X180252Y88157D02*
X180463Y88157D01*
X27736Y88410D02*
X27313Y88410D01*
X29604Y88410D02*
X31578Y88410D01*
X32871Y88410D02*
X33777Y88410D01*
X36063Y88410D02*
X76777Y88410D01*
X79063Y88410D02*
X89139Y88410D01*
X92502Y88410D02*
X94088Y88410D01*
X95877Y88410D02*
X98963Y88410D01*
X101011Y88410D02*
X105578Y88410D01*
X163636Y88410D02*
X176713Y88410D01*
X177627Y88410D02*
X179338Y88410D01*
X180252Y88410D02*
X180463Y88410D01*
X31326Y88662D02*
X30071Y88662D01*
X32619Y88662D02*
X33777Y88662D01*
X36063Y88662D02*
X76777Y88662D01*
X79063Y88662D02*
X89082Y88662D01*
X92502Y88662D02*
X94088Y88662D01*
X95877Y88662D02*
X98963Y88662D01*
X99877Y88662D02*
X99971Y88662D01*
X101264Y88662D02*
X105326Y88662D01*
X106619Y88662D02*
X110826Y88662D01*
X163889Y88662D02*
X176713Y88662D01*
X177627Y88662D02*
X179338Y88662D01*
X180252Y88662D02*
X180463Y88662D01*
X31073Y88915D02*
X30289Y88915D01*
X32366Y88915D02*
X33777Y88915D01*
X36063Y88915D02*
X76777Y88915D01*
X79063Y88915D02*
X89095Y88915D01*
X92502Y88915D02*
X94088Y88915D01*
X95877Y88915D02*
X98963Y88915D01*
X99877Y88915D02*
X100223Y88915D01*
X101516Y88915D02*
X105073Y88915D01*
X106366Y88915D02*
X110573Y88915D01*
X164141Y88915D02*
X176713Y88915D01*
X177627Y88915D02*
X179338Y88915D01*
X180252Y88915D02*
X180463Y88915D01*
X30821Y89167D02*
X30393Y89167D01*
X32114Y89167D02*
X33777Y89167D01*
X36063Y89167D02*
X76777Y89167D01*
X79063Y89167D02*
X89200Y89167D01*
X92502Y89167D02*
X94088Y89167D01*
X95877Y89167D02*
X98963Y89167D01*
X99877Y89167D02*
X100476Y89167D01*
X101769Y89167D02*
X104821Y89167D01*
X106114Y89167D02*
X110321Y89167D01*
X111614Y89167D02*
X115386Y89167D01*
X155144Y89167D02*
X158334Y89167D01*
X164394Y89167D02*
X176713Y89167D01*
X177627Y89167D02*
X179338Y89167D01*
X180252Y89167D02*
X180463Y89167D01*
X30568Y89420D02*
X30422Y89420D01*
X31896Y89420D02*
X33777Y89420D01*
X36063Y89420D02*
X76777Y89420D01*
X79063Y89420D02*
X89439Y89420D01*
X90400Y89420D02*
X90689Y89420D01*
X92502Y89420D02*
X94088Y89420D01*
X95877Y89420D02*
X98963Y89420D01*
X99877Y89420D02*
X100728Y89420D01*
X102021Y89420D02*
X104568Y89420D01*
X106896Y89420D02*
X110068Y89420D01*
X111361Y89420D02*
X115332Y89420D01*
X155396Y89420D02*
X158332Y89420D01*
X164646Y89420D02*
X168524Y89420D01*
X169066Y89420D02*
X176713Y89420D01*
X177627Y89420D02*
X179338Y89420D01*
X180252Y89420D02*
X180463Y89420D01*
X33777Y89672D02*
X32149Y89672D01*
X36063Y89672D02*
X76777Y89672D01*
X79063Y89672D02*
X91588Y89672D01*
X92502Y89672D02*
X94088Y89672D01*
X95877Y89672D02*
X98963Y89672D01*
X99877Y89672D02*
X100981Y89672D01*
X102274Y89672D02*
X104316Y89672D01*
X107149Y89672D02*
X109816Y89672D01*
X111109Y89672D02*
X115348Y89672D01*
X155649Y89672D02*
X158400Y89672D01*
X164899Y89672D02*
X168152Y89672D01*
X169438Y89672D02*
X176713Y89672D01*
X177627Y89672D02*
X179338Y89672D01*
X180252Y89672D02*
X180463Y89672D01*
X33777Y89925D02*
X32401Y89925D01*
X36063Y89925D02*
X76777Y89925D01*
X79063Y89925D02*
X91588Y89925D01*
X92502Y89925D02*
X94088Y89925D01*
X95877Y89925D02*
X98963Y89925D01*
X99877Y89925D02*
X101233Y89925D01*
X102526Y89925D02*
X103637Y89925D01*
X107401Y89925D02*
X109137Y89925D01*
X110856Y89925D02*
X115453Y89925D01*
X153901Y89925D02*
X154608Y89925D01*
X155901Y89925D02*
X158569Y89925D01*
X165151Y89925D02*
X168008Y89925D01*
X169582Y89925D02*
X176713Y89925D01*
X177627Y89925D02*
X179338Y89925D01*
X180252Y89925D02*
X180463Y89925D01*
X31361Y90177D02*
X31104Y90177D01*
X32654Y90177D02*
X33777Y90177D01*
X36063Y90177D02*
X76777Y90177D01*
X79063Y90177D02*
X91588Y90177D01*
X92502Y90177D02*
X94088Y90177D01*
X95877Y90177D02*
X98963Y90177D01*
X99877Y90177D02*
X101486Y90177D01*
X102779Y90177D02*
X103272Y90177D01*
X107654Y90177D02*
X108772Y90177D01*
X110604Y90177D02*
X115700Y90177D01*
X154154Y90177D02*
X154861Y90177D01*
X156154Y90177D02*
X159001Y90177D01*
X159338Y90177D02*
X159361Y90177D01*
X165404Y90177D02*
X167957Y90177D01*
X169633Y90177D02*
X176713Y90177D01*
X177627Y90177D02*
X179338Y90177D01*
X180252Y90177D02*
X180463Y90177D01*
X27615Y90430D02*
X27313Y90430D01*
X30851Y90430D02*
X31613Y90430D01*
X32906Y90430D02*
X33777Y90430D01*
X36063Y90430D02*
X76777Y90430D01*
X79063Y90430D02*
X91588Y90430D01*
X92502Y90430D02*
X94088Y90430D01*
X95877Y90430D02*
X98963Y90430D01*
X99877Y90430D02*
X101738Y90430D01*
X103031Y90430D02*
X103131Y90430D01*
X104851Y90430D02*
X104963Y90430D01*
X107906Y90430D02*
X108631Y90430D01*
X110351Y90430D02*
X115808Y90430D01*
X117101Y90430D02*
X124557Y90430D01*
X154406Y90430D02*
X155113Y90430D01*
X156406Y90430D02*
X159613Y90430D01*
X165656Y90430D02*
X167977Y90430D01*
X169656Y90430D02*
X176713Y90430D01*
X177627Y90430D02*
X179338Y90430D01*
X180252Y90430D02*
X180463Y90430D01*
X29306Y90682D02*
X27313Y90682D01*
X30599Y90682D02*
X31267Y90682D01*
X33159Y90682D02*
X33777Y90682D01*
X36063Y90682D02*
X76777Y90682D01*
X79063Y90682D02*
X91588Y90682D01*
X92502Y90682D02*
X94088Y90682D01*
X95877Y90682D02*
X98963Y90682D01*
X99877Y90682D02*
X101991Y90682D01*
X104758Y90682D02*
X104963Y90682D01*
X108159Y90682D02*
X108582Y90682D01*
X110258Y90682D02*
X115556Y90682D01*
X116849Y90682D02*
X124457Y90682D01*
X154659Y90682D02*
X155366Y90682D01*
X156659Y90682D02*
X159866Y90682D01*
X165909Y90682D02*
X168081Y90682D01*
X169909Y90682D02*
X176713Y90682D01*
X177627Y90682D02*
X179338Y90682D01*
X180252Y90682D02*
X180463Y90682D01*
X29053Y90935D02*
X27313Y90935D01*
X30346Y90935D02*
X31055Y90935D01*
X33411Y90935D02*
X33777Y90935D01*
X36063Y90935D02*
X76777Y90935D01*
X79063Y90935D02*
X91588Y90935D01*
X92502Y90935D02*
X94088Y90935D01*
X95877Y90935D02*
X98803Y90935D01*
X99877Y90935D02*
X102243Y90935D01*
X104736Y90935D02*
X104963Y90935D01*
X108411Y90935D02*
X108604Y90935D01*
X110236Y90935D02*
X115303Y90935D01*
X116596Y90935D02*
X124457Y90935D01*
X154911Y90935D02*
X155618Y90935D01*
X156911Y90935D02*
X160118Y90935D01*
X166161Y90935D02*
X168343Y90935D01*
X170161Y90935D02*
X176713Y90935D01*
X177627Y90935D02*
X179338Y90935D01*
X180252Y90935D02*
X180463Y90935D01*
X30957Y91187D02*
X30094Y91187D01*
X33664Y91187D02*
X33777Y91187D01*
X36063Y91187D02*
X76777Y91187D01*
X79063Y91187D02*
X91588Y91187D01*
X92502Y91187D02*
X94088Y91187D01*
X95877Y91187D02*
X98551Y91187D01*
X99844Y91187D02*
X102496Y91187D01*
X104631Y91187D02*
X104963Y91187D01*
X116344Y91187D02*
X124531Y91187D01*
X155164Y91187D02*
X155871Y91187D01*
X157164Y91187D02*
X160371Y91187D01*
X166414Y91187D02*
X169121Y91187D01*
X170414Y91187D02*
X176713Y91187D01*
X177627Y91187D02*
X179338Y91187D01*
X180252Y91187D02*
X180463Y91187D01*
X30957Y91440D02*
X30282Y91440D01*
X36063Y91440D02*
X76777Y91440D01*
X79063Y91440D02*
X91588Y91440D01*
X92502Y91440D02*
X94088Y91440D01*
X95877Y91440D02*
X98298Y91440D01*
X99591Y91440D02*
X102748Y91440D01*
X104360Y91440D02*
X104963Y91440D01*
X116091Y91440D02*
X124709Y91440D01*
X125880Y91440D02*
X153373Y91440D01*
X155416Y91440D02*
X156123Y91440D01*
X157416Y91440D02*
X160623Y91440D01*
X166666Y91440D02*
X169373Y91440D01*
X170666Y91440D02*
X176713Y91440D01*
X177627Y91440D02*
X179338Y91440D01*
X180252Y91440D02*
X180463Y91440D01*
X30796Y91692D02*
X30387Y91692D01*
X32556Y91692D02*
X32876Y91692D01*
X36063Y91692D02*
X76777Y91692D01*
X79063Y91692D02*
X91588Y91692D01*
X92502Y91692D02*
X94088Y91692D01*
X95877Y91692D02*
X98046Y91692D01*
X99339Y91692D02*
X103001Y91692D01*
X104294Y91692D02*
X104963Y91692D01*
X105877Y91692D02*
X106626Y91692D01*
X115839Y91692D02*
X153626Y91692D01*
X155669Y91692D02*
X156376Y91692D01*
X157669Y91692D02*
X160876Y91692D01*
X166919Y91692D02*
X169626Y91692D01*
X170919Y91692D02*
X176713Y91692D01*
X177627Y91692D02*
X179338Y91692D01*
X180252Y91692D02*
X180463Y91692D01*
X30543Y91945D02*
X30422Y91945D01*
X32375Y91945D02*
X33128Y91945D01*
X36063Y91945D02*
X76777Y91945D01*
X79063Y91945D02*
X91588Y91945D01*
X92502Y91945D02*
X94088Y91945D01*
X95877Y91945D02*
X97793Y91945D01*
X99086Y91945D02*
X103253Y91945D01*
X104546Y91945D02*
X104963Y91945D01*
X105877Y91945D02*
X106878Y91945D01*
X115586Y91945D02*
X153878Y91945D01*
X155921Y91945D02*
X156628Y91945D01*
X157921Y91945D02*
X161128Y91945D01*
X167171Y91945D02*
X169878Y91945D01*
X171171Y91945D02*
X176713Y91945D01*
X177627Y91945D02*
X179338Y91945D01*
X180252Y91945D02*
X180463Y91945D01*
X33213Y92197D02*
X31584Y92197D01*
X36063Y92197D02*
X76777Y92197D01*
X79063Y92197D02*
X91588Y92197D01*
X92502Y92197D02*
X94088Y92197D01*
X95877Y92197D02*
X97541Y92197D01*
X98834Y92197D02*
X103506Y92197D01*
X104799Y92197D02*
X104963Y92197D01*
X106049Y92197D02*
X107131Y92197D01*
X108424Y92197D02*
X154131Y92197D01*
X156174Y92197D02*
X156881Y92197D01*
X158174Y92197D02*
X161381Y92197D01*
X167424Y92197D02*
X170131Y92197D01*
X171424Y92197D02*
X176713Y92197D01*
X177627Y92197D02*
X179338Y92197D01*
X180252Y92197D02*
X180463Y92197D01*
X33213Y92450D02*
X31331Y92450D01*
X36063Y92450D02*
X76777Y92450D01*
X79063Y92450D02*
X91588Y92450D01*
X92502Y92450D02*
X94088Y92450D01*
X95877Y92450D02*
X97288Y92450D01*
X98581Y92450D02*
X103758Y92450D01*
X106301Y92450D02*
X107383Y92450D01*
X108676Y92450D02*
X154383Y92450D01*
X156426Y92450D02*
X157133Y92450D01*
X158426Y92450D02*
X161633Y92450D01*
X167676Y92450D02*
X170383Y92450D01*
X171676Y92450D02*
X176713Y92450D01*
X177627Y92450D02*
X179338Y92450D01*
X180252Y92450D02*
X180463Y92450D01*
X33213Y92702D02*
X31079Y92702D01*
X36063Y92702D02*
X76777Y92702D01*
X79063Y92702D02*
X91588Y92702D01*
X92502Y92702D02*
X94088Y92702D01*
X95877Y92702D02*
X97036Y92702D01*
X98329Y92702D02*
X104011Y92702D01*
X106554Y92702D02*
X107636Y92702D01*
X108929Y92702D02*
X154636Y92702D01*
X156679Y92702D02*
X157386Y92702D01*
X158679Y92702D02*
X161886Y92702D01*
X167929Y92702D02*
X170636Y92702D01*
X171929Y92702D02*
X176713Y92702D01*
X177627Y92702D02*
X179338Y92702D01*
X180252Y92702D02*
X180463Y92702D01*
X27579Y92955D02*
X27313Y92955D01*
X30826Y92955D02*
X33213Y92955D01*
X36063Y92955D02*
X76777Y92955D01*
X79063Y92955D02*
X91588Y92955D01*
X92502Y92955D02*
X94088Y92955D01*
X95877Y92955D02*
X96783Y92955D01*
X98076Y92955D02*
X104263Y92955D01*
X106806Y92955D02*
X107888Y92955D01*
X109181Y92955D02*
X124439Y92955D01*
X125150Y92955D02*
X136689Y92955D01*
X137400Y92955D02*
X154888Y92955D01*
X156931Y92955D02*
X157638Y92955D01*
X158931Y92955D02*
X162138Y92955D01*
X168181Y92955D02*
X170888Y92955D01*
X172181Y92955D02*
X176713Y92955D01*
X177627Y92955D02*
X179338Y92955D01*
X180252Y92955D02*
X180463Y92955D01*
X29281Y93207D02*
X27313Y93207D01*
X30574Y93207D02*
X33213Y93207D01*
X36063Y93207D02*
X76777Y93207D01*
X79063Y93207D02*
X85781Y93207D01*
X88934Y93207D02*
X91588Y93207D01*
X92502Y93207D02*
X94088Y93207D01*
X96098Y93207D02*
X96531Y93207D01*
X97824Y93207D02*
X104516Y93207D01*
X107059Y93207D02*
X108141Y93207D01*
X109434Y93207D02*
X124117Y93207D01*
X125473Y93207D02*
X136367Y93207D01*
X137723Y93207D02*
X155141Y93207D01*
X157184Y93207D02*
X157891Y93207D01*
X159184Y93207D02*
X162391Y93207D01*
X168434Y93207D02*
X171141Y93207D01*
X172434Y93207D02*
X176713Y93207D01*
X177627Y93207D02*
X179338Y93207D01*
X180252Y93207D02*
X180463Y93207D01*
X29028Y93460D02*
X27313Y93460D01*
X30321Y93460D02*
X33213Y93460D01*
X36063Y93460D02*
X76777Y93460D01*
X79063Y93460D02*
X85528Y93460D01*
X89186Y93460D02*
X91588Y93460D01*
X92561Y93460D02*
X94088Y93460D01*
X96221Y93460D02*
X96278Y93460D01*
X97571Y93460D02*
X104768Y93460D01*
X107311Y93460D02*
X108393Y93460D01*
X109686Y93460D02*
X123993Y93460D01*
X125596Y93460D02*
X136243Y93460D01*
X157436Y93460D02*
X158143Y93460D01*
X159436Y93460D02*
X162643Y93460D01*
X168686Y93460D02*
X171393Y93460D01*
X172686Y93460D02*
X176713Y93460D01*
X177627Y93460D02*
X179338Y93460D01*
X180252Y93460D02*
X180463Y93460D01*
X33213Y93712D02*
X30069Y93712D01*
X36063Y93712D02*
X76777Y93712D01*
X79063Y93712D02*
X85276Y93712D01*
X89439Y93712D02*
X91588Y93712D01*
X92814Y93712D02*
X94088Y93712D01*
X97319Y93712D02*
X105021Y93712D01*
X107564Y93712D02*
X108646Y93712D01*
X109939Y93712D02*
X123957Y93712D01*
X125633Y93712D02*
X136207Y93712D01*
X157689Y93712D02*
X158396Y93712D01*
X159689Y93712D02*
X162896Y93712D01*
X168939Y93712D02*
X171646Y93712D01*
X172939Y93712D02*
X176713Y93712D01*
X177627Y93712D02*
X179338Y93712D01*
X180252Y93712D02*
X180463Y93712D01*
X33213Y93965D02*
X30276Y93965D01*
X36063Y93965D02*
X76777Y93965D01*
X79063Y93965D02*
X85023Y93965D01*
X89691Y93965D02*
X91773Y93965D01*
X93066Y93965D02*
X94088Y93965D01*
X97066Y93965D02*
X105273Y93965D01*
X107816Y93965D02*
X108898Y93965D01*
X110191Y93965D02*
X123991Y93965D01*
X125691Y93965D02*
X136241Y93965D01*
X157941Y93965D02*
X158648Y93965D01*
X159941Y93965D02*
X163148Y93965D01*
X169191Y93965D02*
X171898Y93965D01*
X173674Y93965D02*
X176713Y93965D01*
X177627Y93965D02*
X179338Y93965D01*
X180252Y93965D02*
X180463Y93965D01*
X33213Y94217D02*
X30381Y94217D01*
X36063Y94217D02*
X76777Y94217D01*
X79063Y94217D02*
X84771Y94217D01*
X86064Y94217D02*
X87490Y94217D01*
X89944Y94217D02*
X92026Y94217D01*
X93319Y94217D02*
X94088Y94217D01*
X96814Y94217D02*
X105526Y94217D01*
X108069Y94217D02*
X109151Y94217D01*
X110444Y94217D02*
X124112Y94217D01*
X125944Y94217D02*
X136362Y94217D01*
X137728Y94217D02*
X155401Y94217D01*
X158194Y94217D02*
X158901Y94217D01*
X160194Y94217D02*
X163401Y94217D01*
X164502Y94217D02*
X164651Y94217D01*
X169444Y94217D02*
X172151Y94217D01*
X173983Y94217D02*
X176713Y94217D01*
X177627Y94217D02*
X179338Y94217D01*
X180252Y94217D02*
X180463Y94217D01*
X33213Y94470D02*
X30422Y94470D01*
X36063Y94470D02*
X76777Y94470D01*
X79063Y94470D02*
X84518Y94470D01*
X85811Y94470D02*
X87457Y94470D01*
X90196Y94470D02*
X92278Y94470D01*
X93571Y94470D02*
X94088Y94470D01*
X96561Y94470D02*
X105778Y94470D01*
X108321Y94470D02*
X109403Y94470D01*
X110696Y94470D02*
X124427Y94470D01*
X126196Y94470D02*
X136677Y94470D01*
X137412Y94470D02*
X155653Y94470D01*
X158446Y94470D02*
X159153Y94470D01*
X160446Y94470D02*
X163588Y94470D01*
X164502Y94470D02*
X164903Y94470D01*
X169696Y94470D02*
X172403Y94470D01*
X174101Y94470D02*
X176713Y94470D01*
X177627Y94470D02*
X179338Y94470D01*
X180252Y94470D02*
X180463Y94470D01*
X33213Y94722D02*
X30422Y94722D01*
X36063Y94722D02*
X76777Y94722D01*
X79063Y94722D02*
X84266Y94722D01*
X85559Y94722D02*
X87494Y94722D01*
X90449Y94722D02*
X92531Y94722D01*
X93824Y94722D02*
X94088Y94722D01*
X96309Y94722D02*
X106031Y94722D01*
X109068Y94722D02*
X109656Y94722D01*
X110949Y94722D02*
X125156Y94722D01*
X126449Y94722D02*
X155906Y94722D01*
X158699Y94722D02*
X159406Y94722D01*
X160699Y94722D02*
X163588Y94722D01*
X164502Y94722D02*
X165156Y94722D01*
X169949Y94722D02*
X172457Y94722D01*
X174133Y94722D02*
X176713Y94722D01*
X177627Y94722D02*
X179338Y94722D01*
X180252Y94722D02*
X180463Y94722D01*
X33213Y94975D02*
X30322Y94975D01*
X36063Y94975D02*
X76777Y94975D01*
X79063Y94975D02*
X84013Y94975D01*
X85306Y94975D02*
X87619Y94975D01*
X90701Y94975D02*
X92783Y94975D01*
X94076Y94975D02*
X94088Y94975D01*
X96258Y94975D02*
X106283Y94975D01*
X109365Y94975D02*
X109908Y94975D01*
X111201Y94975D02*
X125408Y94975D01*
X126701Y94975D02*
X156158Y94975D01*
X158951Y94975D02*
X159658Y94975D01*
X160951Y94975D02*
X163588Y94975D01*
X164502Y94975D02*
X165408Y94975D01*
X170201Y94975D02*
X172495Y94975D01*
X174094Y94975D02*
X176713Y94975D01*
X177627Y94975D02*
X179338Y94975D01*
X180252Y94975D02*
X180463Y94975D01*
X33213Y95227D02*
X30151Y95227D01*
X36063Y95227D02*
X76777Y95227D01*
X79063Y95227D02*
X83761Y95227D01*
X85054Y95227D02*
X87945Y95227D01*
X90954Y95227D02*
X93036Y95227D01*
X96218Y95227D02*
X106536Y95227D01*
X109479Y95227D02*
X110161Y95227D01*
X111454Y95227D02*
X125661Y95227D01*
X126954Y95227D02*
X135261Y95227D01*
X156204Y95227D02*
X156411Y95227D01*
X159204Y95227D02*
X159911Y95227D01*
X161204Y95227D02*
X163588Y95227D01*
X164502Y95227D02*
X165661Y95227D01*
X170454Y95227D02*
X172622Y95227D01*
X173968Y95227D02*
X176713Y95227D01*
X177627Y95227D02*
X179338Y95227D01*
X180252Y95227D02*
X180463Y95227D01*
X27543Y95480D02*
X27313Y95480D01*
X29797Y95480D02*
X33213Y95480D01*
X36063Y95480D02*
X76777Y95480D01*
X79063Y95480D02*
X83508Y95480D01*
X84801Y95480D02*
X88663Y95480D01*
X91206Y95480D02*
X93288Y95480D01*
X96090Y95480D02*
X106788Y95480D01*
X109508Y95480D02*
X110413Y95480D01*
X111706Y95480D02*
X125913Y95480D01*
X127206Y95480D02*
X135008Y95480D01*
X156456Y95480D02*
X156663Y95480D01*
X159456Y95480D02*
X160163Y95480D01*
X161456Y95480D02*
X163588Y95480D01*
X164502Y95480D02*
X165913Y95480D01*
X170706Y95480D02*
X172951Y95480D01*
X173638Y95480D02*
X176713Y95480D01*
X177627Y95480D02*
X179338Y95480D01*
X180252Y95480D02*
X180383Y95480D01*
X33213Y95732D02*
X27313Y95732D01*
X36063Y95732D02*
X76777Y95732D01*
X79063Y95732D02*
X83256Y95732D01*
X84549Y95732D02*
X88916Y95732D01*
X91459Y95732D02*
X93541Y95732D01*
X95757Y95732D02*
X107041Y95732D01*
X109466Y95732D02*
X110666Y95732D01*
X111959Y95732D02*
X126166Y95732D01*
X127459Y95732D02*
X134756Y95732D01*
X159709Y95732D02*
X160416Y95732D01*
X161709Y95732D02*
X163588Y95732D01*
X164502Y95732D02*
X166166Y95732D01*
X170959Y95732D02*
X176713Y95732D01*
X177627Y95732D02*
X179338Y95732D01*
X33213Y95985D02*
X27313Y95985D01*
X36063Y95985D02*
X76777Y95985D01*
X79063Y95985D02*
X83003Y95985D01*
X84392Y95985D02*
X86408Y95985D01*
X86932Y95985D02*
X88948Y95985D01*
X91711Y95985D02*
X93793Y95985D01*
X95836Y95985D02*
X107293Y95985D01*
X109335Y95985D02*
X110918Y95985D01*
X112211Y95985D02*
X126418Y95985D01*
X128250Y95985D02*
X134503Y95985D01*
X159961Y95985D02*
X160668Y95985D01*
X161961Y95985D02*
X163588Y95985D01*
X164502Y95985D02*
X166418Y95985D01*
X171211Y95985D02*
X176713Y95985D01*
X177627Y95985D02*
X179128Y95985D01*
X27313Y96237D02*
X27313Y96237D01*
X30026Y96237D02*
X33213Y96237D01*
X36063Y96237D02*
X76777Y96237D01*
X79063Y96237D02*
X82751Y96237D01*
X84836Y96237D02*
X85963Y96237D01*
X87376Y96237D02*
X88503Y96237D01*
X91964Y96237D02*
X94046Y96237D01*
X96089Y96237D02*
X107546Y96237D01*
X108995Y96237D02*
X111171Y96237D01*
X112464Y96237D02*
X126671Y96237D01*
X128431Y96237D02*
X134251Y96237D01*
X135544Y96237D02*
X138262Y96237D01*
X140218Y96237D02*
X140878Y96237D01*
X142682Y96237D02*
X143418Y96237D01*
X145222Y96237D02*
X145958Y96237D01*
X147762Y96237D02*
X148498Y96237D01*
X150302Y96237D02*
X151038Y96237D01*
X152842Y96237D02*
X153578Y96237D01*
X155382Y96237D02*
X155921Y96237D01*
X160214Y96237D02*
X160921Y96237D01*
X162214Y96237D02*
X163588Y96237D01*
X164502Y96237D02*
X166671Y96237D01*
X171464Y96237D02*
X176713Y96237D01*
X177627Y96237D02*
X178876Y96237D01*
X180919Y96237D02*
X181027Y96237D01*
X33213Y96490D02*
X30270Y96490D01*
X36063Y96490D02*
X76777Y96490D01*
X79063Y96490D02*
X82588Y96490D01*
X85044Y96490D02*
X85755Y96490D01*
X87584Y96490D02*
X88295Y96490D01*
X92216Y96490D02*
X94298Y96490D01*
X96252Y96490D02*
X107798Y96490D01*
X109091Y96490D02*
X111423Y96490D01*
X112716Y96490D02*
X126832Y96490D01*
X128508Y96490D02*
X133998Y96490D01*
X135291Y96490D02*
X138262Y96490D01*
X140218Y96490D02*
X140802Y96490D01*
X142758Y96490D02*
X143342Y96490D01*
X147838Y96490D02*
X148422Y96490D01*
X150378Y96490D02*
X150962Y96490D01*
X152918Y96490D02*
X153502Y96490D01*
X155458Y96490D02*
X156042Y96490D01*
X160466Y96490D02*
X160530Y96490D01*
X162466Y96490D02*
X163202Y96490D01*
X165132Y96490D02*
X166923Y96490D01*
X171716Y96490D02*
X176713Y96490D01*
X177627Y96490D02*
X178623Y96490D01*
X180666Y96490D02*
X181027Y96490D01*
X33213Y96742D02*
X30375Y96742D01*
X36063Y96742D02*
X76777Y96742D01*
X79063Y96742D02*
X82588Y96742D01*
X85149Y96742D02*
X85651Y96742D01*
X87689Y96742D02*
X88191Y96742D01*
X92469Y96742D02*
X94463Y96742D01*
X96252Y96742D02*
X108051Y96742D01*
X109344Y96742D02*
X111676Y96742D01*
X112969Y96742D02*
X126832Y96742D01*
X128508Y96742D02*
X133746Y96742D01*
X135039Y96742D02*
X138262Y96742D01*
X140218Y96742D02*
X140802Y96742D01*
X142758Y96742D02*
X143342Y96742D01*
X147838Y96742D02*
X148422Y96742D01*
X150378Y96742D02*
X150962Y96742D01*
X152918Y96742D02*
X153502Y96742D01*
X155458Y96742D02*
X156042Y96742D01*
X163133Y96742D02*
X163202Y96742D01*
X165132Y96742D02*
X167176Y96742D01*
X171969Y96742D02*
X176713Y96742D01*
X177627Y96742D02*
X178371Y96742D01*
X180414Y96742D02*
X181027Y96742D01*
X33213Y96995D02*
X30422Y96995D01*
X36063Y96995D02*
X76777Y96995D01*
X79063Y96995D02*
X82588Y96995D01*
X85171Y96995D02*
X85628Y96995D01*
X87711Y96995D02*
X88168Y96995D01*
X92721Y96995D02*
X94463Y96995D01*
X96252Y96995D02*
X108303Y96995D01*
X109596Y96995D02*
X111928Y96995D01*
X113221Y96995D02*
X113829Y96995D01*
X115010Y96995D02*
X126930Y96995D01*
X128409Y96995D02*
X133493Y96995D01*
X134786Y96995D02*
X138262Y96995D01*
X140218Y96995D02*
X140879Y96995D01*
X142681Y96995D02*
X143419Y96995D01*
X147761Y96995D02*
X148499Y96995D01*
X150301Y96995D02*
X151039Y96995D01*
X152841Y96995D02*
X153579Y96995D01*
X155381Y96995D02*
X156119Y96995D01*
X157971Y96995D02*
X158178Y96995D01*
X165132Y96995D02*
X167332Y96995D01*
X172221Y96995D02*
X176713Y96995D01*
X177627Y96995D02*
X178118Y96995D01*
X180161Y96995D02*
X181027Y96995D01*
X33213Y97247D02*
X30422Y97247D01*
X36063Y97247D02*
X76777Y97247D01*
X79063Y97247D02*
X82588Y97247D01*
X85171Y97247D02*
X85628Y97247D01*
X87711Y97247D02*
X88168Y97247D01*
X90251Y97247D02*
X90431Y97247D01*
X92974Y97247D02*
X94463Y97247D01*
X96252Y97247D02*
X108556Y97247D01*
X110388Y97247D02*
X112181Y97247D01*
X113474Y97247D02*
X113654Y97247D01*
X128198Y97247D02*
X133241Y97247D01*
X134534Y97247D02*
X138262Y97247D01*
X140218Y97247D02*
X141029Y97247D01*
X142530Y97247D02*
X143569Y97247D01*
X145070Y97247D02*
X145431Y97247D01*
X147610Y97247D02*
X148649Y97247D01*
X150150Y97247D02*
X151189Y97247D01*
X152690Y97247D02*
X153729Y97247D01*
X155230Y97247D02*
X156269Y97247D01*
X158224Y97247D02*
X158431Y97247D01*
X165132Y97247D02*
X167228Y97247D01*
X172474Y97247D02*
X176713Y97247D01*
X177627Y97247D02*
X177866Y97247D01*
X179909Y97247D02*
X181027Y97247D01*
X33213Y97500D02*
X30328Y97500D01*
X36063Y97500D02*
X76777Y97500D01*
X79063Y97500D02*
X82588Y97500D01*
X85171Y97500D02*
X85628Y97500D01*
X87711Y97500D02*
X88168Y97500D01*
X90251Y97500D02*
X90683Y97500D01*
X93226Y97500D02*
X94463Y97500D01*
X96252Y97500D02*
X108808Y97500D01*
X110561Y97500D02*
X112433Y97500D01*
X127976Y97500D02*
X132988Y97500D01*
X134281Y97500D02*
X138362Y97500D01*
X140117Y97500D02*
X141361Y97500D01*
X142199Y97500D02*
X143901Y97500D01*
X144739Y97500D02*
X145683Y97500D01*
X147279Y97500D02*
X148981Y97500D01*
X149819Y97500D02*
X151521Y97500D01*
X152359Y97500D02*
X154061Y97500D01*
X154899Y97500D02*
X156601Y97500D01*
X158476Y97500D02*
X158683Y97500D01*
X165132Y97500D02*
X167207Y97500D01*
X172726Y97500D02*
X176713Y97500D01*
X179656Y97500D02*
X181027Y97500D01*
X33213Y97752D02*
X30166Y97752D01*
X36063Y97752D02*
X76777Y97752D01*
X79063Y97752D02*
X82361Y97752D01*
X85171Y97752D02*
X85628Y97752D01*
X87711Y97752D02*
X88168Y97752D01*
X90251Y97752D02*
X90936Y97752D01*
X93479Y97752D02*
X94463Y97752D01*
X96252Y97752D02*
X108957Y97752D01*
X110633Y97752D02*
X112686Y97752D01*
X128229Y97752D02*
X132736Y97752D01*
X134029Y97752D02*
X145936Y97752D01*
X147229Y97752D02*
X157436Y97752D01*
X158729Y97752D02*
X158936Y97752D01*
X165132Y97752D02*
X167257Y97752D01*
X168833Y97752D02*
X168936Y97752D01*
X172979Y97752D02*
X176611Y97752D01*
X179404Y97752D02*
X181027Y97752D01*
X27507Y98005D02*
X27313Y98005D01*
X29833Y98005D02*
X33213Y98005D01*
X36063Y98005D02*
X76777Y98005D01*
X79063Y98005D02*
X82108Y98005D01*
X85171Y98005D02*
X85628Y98005D01*
X87711Y98005D02*
X88168Y98005D01*
X90251Y98005D02*
X91188Y98005D01*
X93731Y98005D02*
X94444Y98005D01*
X96252Y98005D02*
X108957Y98005D01*
X110633Y98005D02*
X112938Y98005D01*
X128481Y98005D02*
X132483Y98005D01*
X133776Y98005D02*
X146188Y98005D01*
X147481Y98005D02*
X157688Y98005D01*
X158981Y98005D02*
X159188Y98005D01*
X166731Y98005D02*
X167399Y98005D01*
X168690Y98005D02*
X168957Y98005D01*
X173231Y98005D02*
X176358Y98005D01*
X179151Y98005D02*
X181027Y98005D01*
X33213Y98257D02*
X27313Y98257D01*
X36063Y98257D02*
X76777Y98257D01*
X79063Y98257D02*
X81856Y98257D01*
X85171Y98257D02*
X85628Y98257D01*
X87711Y98257D02*
X88168Y98257D01*
X90251Y98257D02*
X91441Y98257D01*
X93984Y98257D02*
X94202Y98257D01*
X96252Y98257D02*
X109060Y98257D01*
X110529Y98257D02*
X113191Y98257D01*
X114938Y98257D02*
X127441Y98257D01*
X128734Y98257D02*
X132231Y98257D01*
X133524Y98257D02*
X146441Y98257D01*
X147734Y98257D02*
X157941Y98257D01*
X159234Y98257D02*
X159441Y98257D01*
X166984Y98257D02*
X167768Y98257D01*
X168322Y98257D02*
X169009Y98257D01*
X170581Y98257D02*
X170691Y98257D01*
X173484Y98257D02*
X176106Y98257D01*
X178899Y98257D02*
X181027Y98257D01*
X33213Y98510D02*
X27313Y98510D01*
X36063Y98510D02*
X76777Y98510D01*
X79063Y98510D02*
X81603Y98510D01*
X82896Y98510D02*
X83088Y98510D01*
X85171Y98510D02*
X85628Y98510D01*
X87711Y98510D02*
X88168Y98510D01*
X90251Y98510D02*
X91693Y98510D01*
X96252Y98510D02*
X109279Y98510D01*
X110310Y98510D02*
X113443Y98510D01*
X114736Y98510D02*
X127693Y98510D01*
X128986Y98510D02*
X131978Y98510D01*
X133271Y98510D02*
X146693Y98510D01*
X147986Y98510D02*
X158193Y98510D01*
X159486Y98510D02*
X159693Y98510D01*
X167236Y98510D02*
X169154Y98510D01*
X170435Y98510D02*
X170713Y98510D01*
X173736Y98510D02*
X175853Y98510D01*
X178646Y98510D02*
X181027Y98510D01*
X33213Y98762D02*
X27313Y98762D01*
X36063Y98762D02*
X76777Y98762D01*
X79063Y98762D02*
X81351Y98762D01*
X82644Y98762D02*
X83142Y98762D01*
X85118Y98762D02*
X85682Y98762D01*
X87658Y98762D02*
X88222Y98762D01*
X90198Y98762D02*
X91946Y98762D01*
X96252Y98762D02*
X113696Y98762D01*
X114989Y98762D02*
X127946Y98762D01*
X129239Y98762D02*
X129447Y98762D01*
X129892Y98762D02*
X131726Y98762D01*
X133959Y98762D02*
X146946Y98762D01*
X148239Y98762D02*
X158446Y98762D01*
X159739Y98762D02*
X159946Y98762D01*
X161239Y98762D02*
X166196Y98762D01*
X167489Y98762D02*
X169530Y98762D01*
X170060Y98762D02*
X170713Y98762D01*
X172502Y98762D02*
X172696Y98762D01*
X174528Y98762D02*
X175601Y98762D01*
X178394Y98762D02*
X181027Y98762D01*
X33213Y99015D02*
X27313Y99015D01*
X36063Y99015D02*
X76777Y99015D01*
X79063Y99015D02*
X81098Y99015D01*
X82391Y99015D02*
X83246Y99015D01*
X85013Y99015D02*
X85786Y99015D01*
X87553Y99015D02*
X88326Y99015D01*
X90093Y99015D02*
X92198Y99015D01*
X96252Y99015D02*
X113948Y99015D01*
X115241Y99015D02*
X128198Y99015D01*
X130335Y99015D02*
X131473Y99015D01*
X134140Y99015D02*
X147198Y99015D01*
X148491Y99015D02*
X158698Y99015D01*
X159991Y99015D02*
X160198Y99015D01*
X161491Y99015D02*
X166448Y99015D01*
X167741Y99015D02*
X170713Y99015D01*
X172502Y99015D02*
X172948Y99015D01*
X174766Y99015D02*
X175348Y99015D01*
X178141Y99015D02*
X181027Y99015D01*
X33213Y99267D02*
X27313Y99267D01*
X36063Y99267D02*
X76777Y99267D01*
X79063Y99267D02*
X80846Y99267D01*
X82139Y99267D02*
X83498Y99267D01*
X84761Y99267D02*
X86038Y99267D01*
X87301Y99267D02*
X88578Y99267D01*
X89841Y99267D02*
X92451Y99267D01*
X96252Y99267D02*
X114201Y99267D01*
X115494Y99267D02*
X128451Y99267D01*
X134140Y99267D02*
X147451Y99267D01*
X148744Y99267D02*
X158951Y99267D01*
X160244Y99267D02*
X160451Y99267D01*
X161744Y99267D02*
X166701Y99267D01*
X167994Y99267D02*
X170713Y99267D01*
X172502Y99267D02*
X173201Y99267D01*
X174870Y99267D02*
X175096Y99267D01*
X177889Y99267D02*
X181027Y99267D01*
X33213Y99520D02*
X27313Y99520D01*
X36063Y99520D02*
X76777Y99520D01*
X79063Y99520D02*
X80593Y99520D01*
X81886Y99520D02*
X92703Y99520D01*
X96011Y99520D02*
X114453Y99520D01*
X115746Y99520D02*
X128703Y99520D01*
X134140Y99520D02*
X147703Y99520D01*
X160496Y99520D02*
X160703Y99520D01*
X161996Y99520D02*
X166953Y99520D01*
X168246Y99520D02*
X170713Y99520D01*
X172502Y99520D02*
X173207Y99520D01*
X177636Y99520D02*
X181027Y99520D01*
X33213Y99772D02*
X27313Y99772D01*
X36063Y99772D02*
X76777Y99772D01*
X79063Y99772D02*
X80341Y99772D01*
X81634Y99772D02*
X92956Y99772D01*
X95759Y99772D02*
X114706Y99772D01*
X115999Y99772D02*
X127052Y99772D01*
X128038Y99772D02*
X128705Y99772D01*
X132009Y99772D02*
X132210Y99772D01*
X134140Y99772D02*
X147956Y99772D01*
X160749Y99772D02*
X160956Y99772D01*
X162249Y99772D02*
X167206Y99772D01*
X168499Y99772D02*
X170713Y99772D01*
X172502Y99772D02*
X173265Y99772D01*
X177384Y99772D02*
X181027Y99772D01*
X33213Y100025D02*
X27313Y100025D01*
X36063Y100025D02*
X76777Y100025D01*
X79063Y100025D02*
X80088Y100025D01*
X81381Y100025D02*
X93208Y100025D01*
X95506Y100025D02*
X114958Y100025D01*
X128270Y100025D02*
X128753Y100025D01*
X131756Y100025D02*
X132210Y100025D01*
X134140Y100025D02*
X148208Y100025D01*
X161001Y100025D02*
X161208Y100025D01*
X162501Y100025D02*
X167458Y100025D01*
X168751Y100025D02*
X170713Y100025D01*
X172502Y100025D02*
X173419Y100025D01*
X177131Y100025D02*
X181027Y100025D01*
X33213Y100277D02*
X27313Y100277D01*
X79063Y100277D02*
X79836Y100277D01*
X81129Y100277D02*
X93461Y100277D01*
X94754Y100277D02*
X115211Y100277D01*
X161254Y100277D02*
X161461Y100277D01*
X162754Y100277D02*
X167711Y100277D01*
X169004Y100277D02*
X170713Y100277D01*
X172502Y100277D02*
X173816Y100277D01*
X176879Y100277D02*
X181027Y100277D01*
X33213Y100530D02*
X27313Y100530D01*
X79063Y100530D02*
X79583Y100530D01*
X80876Y100530D02*
X93713Y100530D01*
X95006Y100530D02*
X115463Y100530D01*
X156750Y100530D02*
X159463Y100530D01*
X161506Y100530D02*
X161713Y100530D01*
X163006Y100530D02*
X167963Y100530D01*
X169256Y100530D02*
X170713Y100530D01*
X172502Y100530D02*
X173833Y100530D01*
X176626Y100530D02*
X181027Y100530D01*
X33213Y100782D02*
X27313Y100782D01*
X79063Y100782D02*
X79331Y100782D01*
X80624Y100782D02*
X93966Y100782D01*
X95259Y100782D02*
X115716Y100782D01*
X156758Y100782D02*
X159716Y100782D01*
X161759Y100782D02*
X161966Y100782D01*
X163259Y100782D02*
X168179Y100782D01*
X169911Y100782D02*
X170713Y100782D01*
X172502Y100782D02*
X173581Y100782D01*
X176374Y100782D02*
X181027Y100782D01*
X33213Y101035D02*
X27313Y101035D01*
X79063Y101035D02*
X79078Y101035D01*
X80371Y101035D02*
X94218Y101035D01*
X156695Y101035D02*
X159968Y101035D01*
X162011Y101035D02*
X162218Y101035D01*
X163511Y101035D02*
X167789Y101035D01*
X170300Y101035D02*
X170713Y101035D01*
X172502Y101035D02*
X173328Y101035D01*
X176121Y101035D02*
X181027Y101035D01*
X33213Y101287D02*
X27313Y101287D01*
X80119Y101287D02*
X94471Y101287D01*
X128619Y101287D02*
X155307Y101287D01*
X156533Y101287D02*
X160221Y101287D01*
X162264Y101287D02*
X162471Y101287D01*
X170452Y101287D02*
X170537Y101287D01*
X172502Y101287D02*
X173076Y101287D01*
X175869Y101287D02*
X181027Y101287D01*
X33213Y101540D02*
X27313Y101540D01*
X79866Y101540D02*
X94723Y101540D01*
X128366Y101540D02*
X147036Y101540D01*
X147554Y101540D02*
X155721Y101540D01*
X156118Y101540D02*
X160411Y101540D01*
X162516Y101540D02*
X162723Y101540D01*
X172502Y101540D02*
X172823Y101540D01*
X175616Y101540D02*
X181027Y101540D01*
X33226Y101792D02*
X27313Y101792D01*
X79614Y101792D02*
X94976Y101792D01*
X136019Y101792D02*
X146657Y101792D01*
X147933Y101792D02*
X160032Y101792D01*
X162769Y101792D02*
X162976Y101792D01*
X172502Y101792D02*
X172571Y101792D01*
X175364Y101792D02*
X181027Y101792D01*
X33478Y102045D02*
X27313Y102045D01*
X79361Y102045D02*
X97583Y102045D01*
X136271Y102045D02*
X146510Y102045D01*
X163021Y102045D02*
X163228Y102045D01*
X175111Y102045D02*
X181027Y102045D01*
X33731Y102297D02*
X27313Y102297D01*
X79109Y102297D02*
X97582Y102297D01*
X136524Y102297D02*
X146457Y102297D01*
X174859Y102297D02*
X181027Y102297D01*
X33983Y102550D02*
X27313Y102550D01*
X35276Y102550D02*
X58649Y102550D01*
X59690Y102550D02*
X77563Y102550D01*
X78856Y102550D02*
X97651Y102550D01*
X136776Y102550D02*
X146475Y102550D01*
X174606Y102550D02*
X181027Y102550D01*
X34236Y102802D02*
X27313Y102802D01*
X35529Y102802D02*
X58433Y102802D01*
X78604Y102802D02*
X97822Y102802D01*
X99018Y102802D02*
X134311Y102802D01*
X137029Y102802D02*
X141061Y102802D01*
X174354Y102802D02*
X181027Y102802D01*
X34488Y103055D02*
X27313Y103055D01*
X35781Y103055D02*
X58332Y103055D01*
X78351Y103055D02*
X134058Y103055D01*
X137281Y103055D02*
X140808Y103055D01*
X174101Y103055D02*
X181027Y103055D01*
X34741Y103307D02*
X27313Y103307D01*
X36034Y103307D02*
X58332Y103307D01*
X78099Y103307D02*
X132119Y103307D01*
X132721Y103307D02*
X133806Y103307D01*
X137534Y103307D02*
X138924Y103307D01*
X139556Y103307D02*
X140556Y103307D01*
X173849Y103307D02*
X181027Y103307D01*
X34993Y103560D02*
X27313Y103560D01*
X36286Y103560D02*
X58405Y103560D01*
X77846Y103560D02*
X131764Y103560D01*
X133075Y103560D02*
X133553Y103560D01*
X136309Y103560D02*
X136493Y103560D01*
X137786Y103560D02*
X138532Y103560D01*
X139948Y103560D02*
X140303Y103560D01*
X173596Y103560D02*
X181027Y103560D01*
X35246Y103812D02*
X27313Y103812D01*
X36539Y103812D02*
X38482Y103812D01*
X39108Y103812D02*
X58582Y103812D01*
X59758Y103812D02*
X66002Y103812D01*
X133212Y103812D02*
X133301Y103812D01*
X134594Y103812D02*
X134957Y103812D01*
X136133Y103812D02*
X136607Y103812D01*
X138039Y103812D02*
X138356Y103812D01*
X142663Y103812D02*
X143436Y103812D01*
X145203Y103812D02*
X145976Y103812D01*
X147743Y103812D02*
X148516Y103812D01*
X150283Y103812D02*
X151056Y103812D01*
X152823Y103812D02*
X153596Y103812D01*
X155363Y103812D02*
X156136Y103812D01*
X157903Y103812D02*
X161996Y103812D01*
X163289Y103812D02*
X167627Y103812D01*
X173344Y103812D02*
X181027Y103812D01*
X35498Y104065D02*
X27313Y104065D01*
X36791Y104065D02*
X38134Y104065D01*
X39455Y104065D02*
X65957Y104065D01*
X134341Y104065D02*
X136259Y104065D01*
X142758Y104065D02*
X143342Y104065D01*
X145298Y104065D02*
X145882Y104065D01*
X147838Y104065D02*
X148422Y104065D01*
X150378Y104065D02*
X150423Y104065D01*
X152918Y104065D02*
X153502Y104065D01*
X155458Y104065D02*
X156042Y104065D01*
X157998Y104065D02*
X162248Y104065D01*
X163541Y104065D02*
X167582Y104065D01*
X173091Y104065D02*
X181027Y104065D01*
X35751Y104317D02*
X27313Y104317D01*
X37044Y104317D02*
X38000Y104317D01*
X39589Y104317D02*
X65982Y104317D01*
X134089Y104317D02*
X136125Y104317D01*
X142758Y104317D02*
X143342Y104317D01*
X145298Y104317D02*
X145882Y104317D01*
X147838Y104317D02*
X148422Y104317D01*
X152918Y104317D02*
X153502Y104317D01*
X155458Y104317D02*
X156042Y104317D01*
X157998Y104317D02*
X162501Y104317D01*
X163794Y104317D02*
X167607Y104317D01*
X172839Y104317D02*
X181027Y104317D01*
X36003Y104570D02*
X27313Y104570D01*
X37296Y104570D02*
X37957Y104570D01*
X133836Y104570D02*
X136082Y104570D01*
X140586Y104570D02*
X140860Y104570D01*
X142700Y104570D02*
X143400Y104570D01*
X145240Y104570D02*
X145940Y104570D01*
X147780Y104570D02*
X148480Y104570D01*
X152860Y104570D02*
X153560Y104570D01*
X155400Y104570D02*
X156100Y104570D01*
X157940Y104570D02*
X162753Y104570D01*
X172586Y104570D02*
X181027Y104570D01*
X36256Y104822D02*
X27313Y104822D01*
X37549Y104822D02*
X37984Y104822D01*
X133584Y104822D02*
X136041Y104822D01*
X137731Y104822D02*
X137756Y104822D01*
X150959Y104822D02*
X151144Y104822D01*
X152735Y104822D02*
X153684Y104822D01*
X155275Y104822D02*
X156224Y104822D01*
X157815Y104822D02*
X163006Y104822D01*
X172334Y104822D02*
X181027Y104822D01*
X36508Y105075D02*
X27313Y105075D01*
X137620Y105075D02*
X138008Y105075D01*
X150706Y105075D02*
X151412Y105075D01*
X152467Y105075D02*
X153952Y105075D01*
X155007Y105075D02*
X156492Y105075D01*
X157547Y105075D02*
X163258Y105075D01*
X172081Y105075D02*
X181027Y105075D01*
X36761Y105327D02*
X27313Y105327D01*
X137330Y105327D02*
X138261Y105327D01*
X150454Y105327D02*
X163511Y105327D01*
X171829Y105327D02*
X181027Y105327D01*
D16*
X159295Y74965D03*
X140170Y80215D03*
X135295Y80215D03*
X109795Y97840D03*
X102420Y81340D03*
X144170Y79215D03*
X114420Y97590D03*
X159170Y89340D03*
X173295Y94715D03*
X168795Y90215D03*
X174045Y99465D03*
X152795Y84715D03*
X168420Y101590D03*
X137045Y93715D03*
X169670Y101590D03*
X125295Y90840D03*
X119045Y83090D03*
X119045Y85215D03*
X162545Y97340D03*
X116170Y89465D03*
X168045Y97465D03*
X109420Y90715D03*
X169795Y97965D03*
X103920Y90715D03*
X168420Y104090D03*
X135545Y103215D03*
X38795Y104590D03*
X108670Y95465D03*
X59170Y73215D03*
X89920Y88715D03*
X124795Y93715D03*
X127670Y96590D03*
X61795Y73090D03*
X91170Y88715D03*
X106295Y90715D03*
X127545Y100465D03*
X163295Y73715D03*
X144920Y72590D03*
X168670Y82215D03*
X152920Y76215D03*
X157670Y82215D03*
X143170Y73715D03*
X153420Y82215D03*
X133920Y70715D03*
X149295Y83340D03*
X141420Y73340D03*
X142670Y81965D03*
X140170Y73340D03*
X139170Y82715D03*
X138920Y73340D03*
X106170Y81340D03*
X136795Y76215D03*
X99670Y80590D03*
X117170Y76090D03*
X117170Y77340D03*
X97045Y81465D03*
X111670Y82715D03*
X123295Y77590D03*
X122670Y81340D03*
X138920Y76215D03*
X128170Y81340D03*
X131045Y78465D03*
X133670Y81340D03*
X140170Y78465D03*
X79670Y72590D03*
X64295Y72590D03*
X77295Y71465D03*
X67170Y71465D03*
X98420Y102215D03*
X94920Y98715D03*
X31795Y87590D03*
X31795Y91340D03*
X155920Y100715D03*
X88295Y94465D03*
X171170Y101840D03*
X100795Y83715D03*
X29045Y76965D03*
X38920Y73215D03*
X136920Y104590D03*
X65920Y71465D03*
X37545Y71465D03*
X28545Y78715D03*
X95420Y94965D03*
X119045Y79340D03*
X158920Y80965D03*
X95420Y93715D03*
X104795Y72465D03*
X145420Y75340D03*
X66795Y104090D03*
X132420Y104090D03*
X147295Y102340D03*
X160670Y102340D03*
X59170Y103215D03*
X133045Y71590D03*
X134795Y71590D03*
M02*
