G75*
%MOMM*%
%OFA0B0*%
%FSLAX33Y33*%
%IPPOS*%
%LPD*%
%AMOC8*
5,1,8,0,0,1.08239X$1,22.5*
%
%ADD10C,0.000*%
D10*
X26170Y68715D02*
X182170Y68715D01*
X182170Y106715D01*
X26170Y106715D01*
X26170Y68715D01*
X12624Y49538D02*
X12626Y49604D01*
X12632Y49669D01*
X12642Y49734D01*
X12655Y49799D01*
X12673Y49862D01*
X12694Y49925D01*
X12719Y49985D01*
X12748Y50045D01*
X12780Y50102D01*
X12815Y50158D01*
X12854Y50211D01*
X12896Y50262D01*
X12940Y50310D01*
X12988Y50355D01*
X13038Y50398D01*
X13091Y50437D01*
X13146Y50474D01*
X13203Y50507D01*
X13262Y50536D01*
X13322Y50562D01*
X13384Y50584D01*
X13447Y50603D01*
X13511Y50617D01*
X13576Y50628D01*
X13642Y50635D01*
X13708Y50638D01*
X13773Y50637D01*
X13839Y50632D01*
X13904Y50623D01*
X13969Y50610D01*
X14032Y50594D01*
X14095Y50574D01*
X14156Y50549D01*
X14216Y50522D01*
X14274Y50491D01*
X14330Y50456D01*
X14384Y50418D01*
X14435Y50377D01*
X14484Y50333D01*
X14530Y50286D01*
X14574Y50237D01*
X14614Y50185D01*
X14651Y50130D01*
X14685Y50074D01*
X14715Y50015D01*
X14742Y49955D01*
X14765Y49894D01*
X14784Y49831D01*
X14800Y49767D01*
X14812Y49702D01*
X14820Y49637D01*
X14824Y49571D01*
X14824Y49505D01*
X14820Y49439D01*
X14812Y49374D01*
X14800Y49309D01*
X14784Y49245D01*
X14765Y49182D01*
X14742Y49121D01*
X14715Y49061D01*
X14685Y49002D01*
X14651Y48946D01*
X14614Y48891D01*
X14574Y48839D01*
X14530Y48790D01*
X14484Y48743D01*
X14435Y48699D01*
X14384Y48658D01*
X14330Y48620D01*
X14274Y48585D01*
X14216Y48554D01*
X14156Y48527D01*
X14095Y48502D01*
X14032Y48482D01*
X13969Y48466D01*
X13904Y48453D01*
X13839Y48444D01*
X13773Y48439D01*
X13708Y48438D01*
X13642Y48441D01*
X13576Y48448D01*
X13511Y48459D01*
X13447Y48473D01*
X13384Y48492D01*
X13322Y48514D01*
X13262Y48540D01*
X13203Y48569D01*
X13146Y48602D01*
X13091Y48639D01*
X13038Y48678D01*
X12988Y48721D01*
X12940Y48766D01*
X12896Y48814D01*
X12854Y48865D01*
X12815Y48918D01*
X12780Y48974D01*
X12748Y49031D01*
X12719Y49091D01*
X12694Y49151D01*
X12673Y49214D01*
X12655Y49277D01*
X12642Y49342D01*
X12632Y49407D01*
X12626Y49472D01*
X12624Y49538D01*
X24816Y49538D02*
X24818Y49604D01*
X24824Y49669D01*
X24834Y49734D01*
X24847Y49799D01*
X24865Y49862D01*
X24886Y49925D01*
X24911Y49985D01*
X24940Y50045D01*
X24972Y50102D01*
X25007Y50158D01*
X25046Y50211D01*
X25088Y50262D01*
X25132Y50310D01*
X25180Y50355D01*
X25230Y50398D01*
X25283Y50437D01*
X25338Y50474D01*
X25395Y50507D01*
X25454Y50536D01*
X25514Y50562D01*
X25576Y50584D01*
X25639Y50603D01*
X25703Y50617D01*
X25768Y50628D01*
X25834Y50635D01*
X25900Y50638D01*
X25965Y50637D01*
X26031Y50632D01*
X26096Y50623D01*
X26161Y50610D01*
X26224Y50594D01*
X26287Y50574D01*
X26348Y50549D01*
X26408Y50522D01*
X26466Y50491D01*
X26522Y50456D01*
X26576Y50418D01*
X26627Y50377D01*
X26676Y50333D01*
X26722Y50286D01*
X26766Y50237D01*
X26806Y50185D01*
X26843Y50130D01*
X26877Y50074D01*
X26907Y50015D01*
X26934Y49955D01*
X26957Y49894D01*
X26976Y49831D01*
X26992Y49767D01*
X27004Y49702D01*
X27012Y49637D01*
X27016Y49571D01*
X27016Y49505D01*
X27012Y49439D01*
X27004Y49374D01*
X26992Y49309D01*
X26976Y49245D01*
X26957Y49182D01*
X26934Y49121D01*
X26907Y49061D01*
X26877Y49002D01*
X26843Y48946D01*
X26806Y48891D01*
X26766Y48839D01*
X26722Y48790D01*
X26676Y48743D01*
X26627Y48699D01*
X26576Y48658D01*
X26522Y48620D01*
X26466Y48585D01*
X26408Y48554D01*
X26348Y48527D01*
X26287Y48502D01*
X26224Y48482D01*
X26161Y48466D01*
X26096Y48453D01*
X26031Y48444D01*
X25965Y48439D01*
X25900Y48438D01*
X25834Y48441D01*
X25768Y48448D01*
X25703Y48459D01*
X25639Y48473D01*
X25576Y48492D01*
X25514Y48514D01*
X25454Y48540D01*
X25395Y48569D01*
X25338Y48602D01*
X25283Y48639D01*
X25230Y48678D01*
X25180Y48721D01*
X25132Y48766D01*
X25088Y48814D01*
X25046Y48865D01*
X25007Y48918D01*
X24972Y48974D01*
X24940Y49031D01*
X24911Y49091D01*
X24886Y49151D01*
X24865Y49214D01*
X24847Y49277D01*
X24834Y49342D01*
X24824Y49407D01*
X24818Y49472D01*
X24816Y49538D01*
X00305Y01405D02*
X00307Y01471D01*
X00313Y01536D01*
X00323Y01601D01*
X00336Y01666D01*
X00354Y01729D01*
X00375Y01792D01*
X00400Y01852D01*
X00429Y01912D01*
X00461Y01969D01*
X00496Y02025D01*
X00535Y02078D01*
X00577Y02129D01*
X00621Y02177D01*
X00669Y02222D01*
X00719Y02265D01*
X00772Y02304D01*
X00827Y02341D01*
X00884Y02374D01*
X00943Y02403D01*
X01003Y02429D01*
X01065Y02451D01*
X01128Y02470D01*
X01192Y02484D01*
X01257Y02495D01*
X01323Y02502D01*
X01389Y02505D01*
X01454Y02504D01*
X01520Y02499D01*
X01585Y02490D01*
X01650Y02477D01*
X01713Y02461D01*
X01776Y02441D01*
X01837Y02416D01*
X01897Y02389D01*
X01955Y02358D01*
X02011Y02323D01*
X02065Y02285D01*
X02116Y02244D01*
X02165Y02200D01*
X02211Y02153D01*
X02255Y02104D01*
X02295Y02052D01*
X02332Y01997D01*
X02366Y01941D01*
X02396Y01882D01*
X02423Y01822D01*
X02446Y01761D01*
X02465Y01698D01*
X02481Y01634D01*
X02493Y01569D01*
X02501Y01504D01*
X02505Y01438D01*
X02505Y01372D01*
X02501Y01306D01*
X02493Y01241D01*
X02481Y01176D01*
X02465Y01112D01*
X02446Y01049D01*
X02423Y00988D01*
X02396Y00928D01*
X02366Y00869D01*
X02332Y00813D01*
X02295Y00758D01*
X02255Y00706D01*
X02211Y00657D01*
X02165Y00610D01*
X02116Y00566D01*
X02065Y00525D01*
X02011Y00487D01*
X01955Y00452D01*
X01897Y00421D01*
X01837Y00394D01*
X01776Y00369D01*
X01713Y00349D01*
X01650Y00333D01*
X01585Y00320D01*
X01520Y00311D01*
X01454Y00306D01*
X01389Y00305D01*
X01323Y00308D01*
X01257Y00315D01*
X01192Y00326D01*
X01128Y00340D01*
X01065Y00359D01*
X01003Y00381D01*
X00943Y00407D01*
X00884Y00436D01*
X00827Y00469D01*
X00772Y00506D01*
X00719Y00545D01*
X00669Y00588D01*
X00621Y00633D01*
X00577Y00681D01*
X00535Y00732D01*
X00496Y00785D01*
X00461Y00841D01*
X00429Y00898D01*
X00400Y00958D01*
X00375Y01018D01*
X00354Y01081D01*
X00336Y01144D01*
X00323Y01209D01*
X00313Y01274D01*
X00307Y01339D01*
X00305Y01405D01*
X11735Y01405D02*
X11737Y01471D01*
X11743Y01536D01*
X11753Y01601D01*
X11766Y01666D01*
X11784Y01729D01*
X11805Y01792D01*
X11830Y01852D01*
X11859Y01912D01*
X11891Y01969D01*
X11926Y02025D01*
X11965Y02078D01*
X12007Y02129D01*
X12051Y02177D01*
X12099Y02222D01*
X12149Y02265D01*
X12202Y02304D01*
X12257Y02341D01*
X12314Y02374D01*
X12373Y02403D01*
X12433Y02429D01*
X12495Y02451D01*
X12558Y02470D01*
X12622Y02484D01*
X12687Y02495D01*
X12753Y02502D01*
X12819Y02505D01*
X12884Y02504D01*
X12950Y02499D01*
X13015Y02490D01*
X13080Y02477D01*
X13143Y02461D01*
X13206Y02441D01*
X13267Y02416D01*
X13327Y02389D01*
X13385Y02358D01*
X13441Y02323D01*
X13495Y02285D01*
X13546Y02244D01*
X13595Y02200D01*
X13641Y02153D01*
X13685Y02104D01*
X13725Y02052D01*
X13762Y01997D01*
X13796Y01941D01*
X13826Y01882D01*
X13853Y01822D01*
X13876Y01761D01*
X13895Y01698D01*
X13911Y01634D01*
X13923Y01569D01*
X13931Y01504D01*
X13935Y01438D01*
X13935Y01372D01*
X13931Y01306D01*
X13923Y01241D01*
X13911Y01176D01*
X13895Y01112D01*
X13876Y01049D01*
X13853Y00988D01*
X13826Y00928D01*
X13796Y00869D01*
X13762Y00813D01*
X13725Y00758D01*
X13685Y00706D01*
X13641Y00657D01*
X13595Y00610D01*
X13546Y00566D01*
X13495Y00525D01*
X13441Y00487D01*
X13385Y00452D01*
X13327Y00421D01*
X13267Y00394D01*
X13206Y00369D01*
X13143Y00349D01*
X13080Y00333D01*
X13015Y00320D01*
X12950Y00311D01*
X12884Y00306D01*
X12819Y00305D01*
X12753Y00308D01*
X12687Y00315D01*
X12622Y00326D01*
X12558Y00340D01*
X12495Y00359D01*
X12433Y00381D01*
X12373Y00407D01*
X12314Y00436D01*
X12257Y00469D01*
X12202Y00506D01*
X12149Y00545D01*
X12099Y00588D01*
X12051Y00633D01*
X12007Y00681D01*
X11965Y00732D01*
X11926Y00785D01*
X11891Y00841D01*
X11859Y00898D01*
X11830Y00958D01*
X11805Y01018D01*
X11784Y01081D01*
X11766Y01144D01*
X11753Y01209D01*
X11743Y01274D01*
X11737Y01339D01*
X11735Y01405D01*
X34920Y75215D02*
X34920Y101215D01*
X77920Y101215D01*
X77920Y75215D01*
X34920Y75215D01*
M02*
