%
M48
METRIC,TZ,000.000
T01C0.609600
T02C0.762000
T03C0.787400
T04C0.914400
T05C2.200000
%
T01
X159295Y74965
X140170Y80215
X135295Y80215
X109795Y97840
X102420Y81340
X144170Y79215
X114420Y97590
X159170Y89340
X173295Y94715
X168795Y90215
X174045Y99465
X152795Y84715
X168420Y101590
X137045Y93715
X169670Y101590
X125295Y90840
X119045Y83090
X119045Y85215
X162545Y97340
X116170Y89465
X168045Y97465
X109420Y90715
X169795Y97965
X103920Y90715
X168420Y104090
X135545Y103215
X38795Y104590
X108670Y95465
X59170Y73215
X89920Y88715
X124795Y93715
X127670Y96590
X61795Y73090
X91170Y88715
X106295Y90715
X127545Y100465
X163295Y73715
X144920Y72590
X168670Y82215
X152920Y76215
X157670Y82215
X143170Y73715
X153420Y82215
X133920Y70715
X149295Y83340
X141420Y73340
X142670Y81965
X140170Y73340
X139170Y82715
X138920Y73340
X106170Y81340
X136795Y76215
X99670Y80590
X117170Y76090
X117170Y77340
X97045Y81465
X111670Y82715
X123295Y77590
X122670Y81340
X138920Y76215
X128170Y81340
X131045Y78465
X133670Y81340
X140170Y78465
X79670Y72590
X64295Y72590
X77295Y71465
X67170Y71465
X98420Y102215
X94920Y98715
X31795Y87590
X31795Y91340
X155920Y100715
X88295Y94465
X171170Y101840
X100795Y83715
X29045Y76965
X38920Y73215
X136920Y104590
X65920Y71465
X37545Y71465
X28545Y78715
X95420Y94965
X119045Y79340
X158920Y80965
X95420Y93715
X104795Y72465
X145420Y75340
X66795Y104090
X132420Y104090
X147295Y102340
X160670Y102340
X59170Y103215
X133045Y71590
X134795Y71590
T02
X133175Y99715
X129670Y99715
X164167Y97215
X161170Y97215
T03
X139240Y96615
X141780Y96615
X144320Y96615
X146860Y96615
X149400Y96615
X151940Y96615
X154480Y96615
X157020Y96615
X157020Y104235
X154480Y104235
X151940Y104235
X149400Y104235
X146860Y104235
X144320Y104235
X141780Y104235
X139240Y104235
T04
X28670Y97065
X28670Y94525
X28670Y91985
X28670Y89445
X28670Y86905
X28670Y84365
X159510Y72215
X162050Y72215
X164590Y72215
X167130Y72215
X169670Y72215
X174750Y72215
X172210Y72215
X179830Y72215
X177290Y72215
X84130Y97715
X86670Y97715
X89210Y97715
T05
X13724Y49538
X25916Y49538
X1405Y1405
X12835Y1405
M30
