G75*
%MOMM*%
%OFA0B0*%
%FSLAX33Y33*%
%IPPOS*%
%LPD*%
%AMOC8*
5,1,8,0,0,1.08239X$1,22.5*
%
%ADD10C,2.403*%
%ADD11R,2.203X1.203*%
%ADD12R,1.203X2.203*%
%ADD13R,1.499X1.499*%
%ADD14C,1.499*%
%ADD15R,0.803X1.723*%
%ADD16R,1.473X1.473*%
%ADD17C,1.473*%
%ADD18R,8.204X2.413*%
%ADD19R,0.503X0.953*%
%ADD20R,0.703X2.403*%
%ADD21R,0.383X0.903*%
%ADD22R,0.903X0.383*%
%ADD23C,1.626*%
%ADD24R,0.703X0.803*%
%ADD25R,2.896X1.219*%
%ADD26R,11.074X10.668*%
%ADD27R,0.965X1.016*%
%ADD28C,1.219*%
D10*
X13724Y49538D03*
X25916Y49538D03*
X01405Y01405D03*
X12835Y01405D03*
D11*
X79170Y94215D03*
X79170Y76215D03*
X33670Y76215D03*
X33670Y82215D03*
X33670Y94215D03*
X33670Y100215D03*
X79170Y80215D03*
X79170Y78215D03*
X79170Y82215D03*
X79170Y92215D03*
X79170Y86215D03*
X79170Y90215D03*
X79170Y88215D03*
X79170Y84215D03*
X79170Y96215D03*
X79170Y98215D03*
X33670Y78215D03*
X33670Y80215D03*
X33670Y96215D03*
X33670Y98215D03*
X79170Y100215D03*
D12*
X55400Y73215D03*
X45240Y73215D03*
X57940Y103215D03*
X60480Y103215D03*
X63020Y103215D03*
X65560Y103215D03*
X68100Y103215D03*
X70640Y103215D03*
X73180Y103215D03*
X75720Y103215D03*
X52860Y103215D03*
X50320Y103215D03*
X47780Y103215D03*
X55400Y103215D03*
X37620Y103215D03*
X50320Y73215D03*
X37620Y73215D03*
X45240Y103215D03*
X57940Y73215D03*
X60480Y73215D03*
X47780Y73215D03*
X52860Y73215D03*
X65560Y73215D03*
X63020Y73215D03*
X42700Y103215D03*
X40160Y103215D03*
X73180Y73215D03*
X75720Y73215D03*
X70640Y73215D03*
X68100Y73215D03*
X42700Y73215D03*
X40160Y73215D03*
D13*
X139240Y96615D03*
D14*
X141780Y96615D03*
X144320Y96615D03*
X146860Y96615D03*
X149400Y96615D03*
X151940Y96615D03*
X154480Y96615D03*
X157020Y96615D03*
X157020Y104235D03*
X154480Y104235D03*
X151940Y104235D03*
X149400Y104235D03*
X146860Y104235D03*
X144320Y104235D03*
X141780Y104235D03*
X139240Y104235D03*
D15*
X175670Y86715D03*
X176940Y86715D03*
X178210Y86715D03*
X179480Y86715D03*
X175670Y92195D03*
X176940Y92195D03*
X178210Y92195D03*
X179480Y92195D03*
X170170Y86715D03*
X171440Y86715D03*
X172710Y86715D03*
X173980Y86715D03*
X170170Y92195D03*
X171440Y92195D03*
X172710Y92195D03*
X173980Y92195D03*
X164670Y86715D03*
X165940Y86715D03*
X167210Y86715D03*
X168480Y86715D03*
X164670Y92195D03*
X165940Y92195D03*
X167210Y92195D03*
X168480Y92195D03*
X159170Y86715D03*
X160440Y86715D03*
X161710Y86715D03*
X162980Y86715D03*
X159170Y92195D03*
X160440Y92195D03*
X161710Y92195D03*
X162980Y92195D03*
X142670Y86715D03*
X143940Y86715D03*
X145210Y86715D03*
X146480Y86715D03*
X142670Y92195D03*
X143940Y92195D03*
X145210Y92195D03*
X146480Y92195D03*
X148170Y86715D03*
X149440Y86715D03*
X150710Y86715D03*
X151980Y86715D03*
X148170Y92195D03*
X149440Y92195D03*
X150710Y92195D03*
X151980Y92195D03*
X153670Y86715D03*
X154940Y86715D03*
X156210Y86715D03*
X157480Y86715D03*
X153670Y92195D03*
X154940Y92195D03*
X156210Y92195D03*
X157480Y92195D03*
X137170Y86715D03*
X138440Y86715D03*
X139710Y86715D03*
X140980Y86715D03*
X137170Y92195D03*
X138440Y92195D03*
X139710Y92195D03*
X140980Y92195D03*
X120670Y86715D03*
X121940Y86715D03*
X123210Y86715D03*
X124480Y86715D03*
X120670Y92195D03*
X121940Y92195D03*
X123210Y92195D03*
X124480Y92195D03*
X126170Y86715D03*
X127440Y86715D03*
X128710Y86715D03*
X129980Y86715D03*
X126170Y92195D03*
X127440Y92195D03*
X128710Y92195D03*
X129980Y92195D03*
X131670Y86715D03*
X132940Y86715D03*
X134210Y86715D03*
X135480Y86715D03*
X131670Y92195D03*
X132940Y92195D03*
X134210Y92195D03*
X135480Y92195D03*
X115170Y86715D03*
X116440Y86715D03*
X117710Y86715D03*
X118980Y86715D03*
X115170Y92195D03*
X116440Y92195D03*
X117710Y92195D03*
X118980Y92195D03*
X109670Y86715D03*
X110940Y86715D03*
X112210Y86715D03*
X113480Y86715D03*
X109670Y92195D03*
X110940Y92195D03*
X112210Y92195D03*
X113480Y92195D03*
X104170Y86715D03*
X105440Y86715D03*
X106710Y86715D03*
X107980Y86715D03*
X104170Y92195D03*
X105440Y92195D03*
X106710Y92195D03*
X107980Y92195D03*
X98670Y86715D03*
X99940Y86715D03*
X101210Y86715D03*
X102480Y86715D03*
X98670Y92195D03*
X99940Y92195D03*
X101210Y92195D03*
X102480Y92195D03*
X93170Y86715D03*
X94440Y86715D03*
X95710Y86715D03*
X96980Y86715D03*
X93170Y92195D03*
X94440Y92195D03*
X95710Y92195D03*
X96980Y92195D03*
X82170Y86715D03*
X83440Y86715D03*
X84710Y86715D03*
X85980Y86715D03*
X82170Y92195D03*
X83440Y92195D03*
X84710Y92195D03*
X85980Y92195D03*
X87670Y86715D03*
X88940Y86715D03*
X90210Y86715D03*
X91480Y86715D03*
X87670Y92195D03*
X88940Y92195D03*
X90210Y92195D03*
X91480Y92195D03*
D16*
X133175Y99715D03*
X164167Y97215D03*
D17*
X129670Y99715D03*
X161170Y97215D03*
D18*
X103670Y96857D03*
X103670Y102572D03*
D19*
X135670Y71715D03*
X136320Y71715D03*
X136970Y71715D03*
X137620Y71715D03*
X138270Y71715D03*
X138920Y71715D03*
X139570Y71715D03*
X140220Y71715D03*
X140870Y71715D03*
X141520Y71715D03*
X142170Y71715D03*
X142820Y71715D03*
X143470Y71715D03*
X144120Y71715D03*
X135670Y77365D03*
X136320Y77365D03*
X136970Y77365D03*
X137620Y77365D03*
X138270Y77365D03*
X138920Y77365D03*
X139570Y77365D03*
X140220Y77365D03*
X140870Y77365D03*
X141520Y77365D03*
X142170Y77365D03*
X142820Y77365D03*
X143470Y77365D03*
X144120Y77365D03*
D20*
X31514Y81430D03*
X30254Y81430D03*
X28984Y81430D03*
X27714Y81430D03*
X31514Y75122D03*
X30244Y75122D03*
X28974Y75122D03*
X27704Y75122D03*
D21*
X179170Y100715D03*
X178670Y100715D03*
X178170Y100715D03*
X177670Y100715D03*
X177170Y100715D03*
X176670Y100715D03*
X176170Y100715D03*
X175670Y100715D03*
X175170Y100715D03*
X174670Y100715D03*
X174170Y100715D03*
X173670Y100715D03*
X173170Y100715D03*
X172670Y100715D03*
X172170Y100715D03*
X171670Y100715D03*
X171170Y100715D03*
X170670Y100715D03*
D22*
X30670Y103015D03*
X30670Y102515D03*
X30670Y102015D03*
X30670Y101515D03*
D23*
X29381Y97065D02*
X27959Y97065D01*
X27959Y94525D02*
X29381Y94525D01*
X29381Y91985D02*
X27959Y91985D01*
X27959Y89445D02*
X29381Y89445D01*
X29381Y86905D02*
X27959Y86905D01*
X27959Y84365D02*
X29381Y84365D01*
X159510Y72926D02*
X159510Y71504D01*
X162050Y71504D02*
X162050Y72926D01*
X164590Y72926D02*
X164590Y71504D01*
X167130Y71504D02*
X167130Y72926D01*
X169670Y72926D02*
X169670Y71504D01*
X174750Y71504D02*
X174750Y72926D01*
X172210Y72926D02*
X172210Y71504D01*
X179830Y71504D02*
X179830Y72926D01*
X177290Y72926D02*
X177290Y71504D01*
X84130Y97004D02*
X84130Y98426D01*
X86670Y98426D02*
X86670Y97004D01*
X89210Y97004D02*
X89210Y98426D01*
D24*
X177670Y80215D03*
X176720Y82215D03*
X178620Y82215D03*
X172170Y80215D03*
X171220Y82215D03*
X173120Y82215D03*
X166670Y80215D03*
X165720Y82215D03*
X167620Y82215D03*
X161170Y80215D03*
X160220Y82215D03*
X162120Y82215D03*
X139170Y80215D03*
X138220Y82215D03*
X140120Y82215D03*
X155670Y80215D03*
X154720Y82215D03*
X156620Y82215D03*
X150170Y80215D03*
X149220Y82215D03*
X151120Y82215D03*
X144670Y80215D03*
X143720Y82215D03*
X145620Y82215D03*
X122670Y80215D03*
X121720Y82215D03*
X123620Y82215D03*
X128170Y80215D03*
X127220Y82215D03*
X129120Y82215D03*
X133670Y80215D03*
X132720Y82215D03*
X134620Y82215D03*
X117170Y80215D03*
X116220Y82215D03*
X118120Y82215D03*
X95170Y80215D03*
X94220Y82215D03*
X96120Y82215D03*
X100670Y80215D03*
X99720Y82215D03*
X101620Y82215D03*
X106170Y80215D03*
X105220Y82215D03*
X107120Y82215D03*
X111670Y80215D03*
X110720Y82215D03*
X112620Y82215D03*
X84170Y80215D03*
X83220Y82215D03*
X85120Y82215D03*
X89670Y80215D03*
X88720Y82215D03*
X90620Y82215D03*
D25*
X112389Y103618D03*
X112389Y101917D03*
X112389Y100215D03*
X112389Y98513D03*
X112389Y96811D03*
D26*
X120670Y100215D03*
D27*
X171945Y84715D03*
X170395Y84715D03*
X177444Y84715D03*
X175895Y84715D03*
X166445Y84715D03*
X164895Y84715D03*
X160945Y84715D03*
X159395Y84715D03*
X144445Y84715D03*
X142895Y84715D03*
X149945Y84715D03*
X148395Y84715D03*
X155445Y84715D03*
X153895Y84715D03*
X137395Y84715D03*
X138945Y84715D03*
X122444Y84715D03*
X120895Y84715D03*
X127944Y84715D03*
X126395Y84715D03*
X133445Y84715D03*
X131895Y84715D03*
X116944Y84715D03*
X115395Y84715D03*
X94944Y84715D03*
X93395Y84715D03*
X99944Y84715D03*
X98395Y84715D03*
X106444Y84715D03*
X104895Y84715D03*
X111444Y84715D03*
X109895Y84715D03*
X83945Y84715D03*
X82395Y84715D03*
X89444Y84715D03*
X87895Y84715D03*
D28*
X159295Y74965D03*
X140170Y80215D03*
X135295Y80215D03*
X109795Y97840D03*
X102420Y81340D03*
X144170Y79215D03*
X114420Y97590D03*
X159170Y89340D03*
X173295Y94715D03*
X168795Y90215D03*
X174045Y99465D03*
X152795Y84715D03*
X168420Y101590D03*
X137045Y93715D03*
X169670Y101590D03*
X125295Y90840D03*
X119045Y83090D03*
X119045Y85215D03*
X162545Y97340D03*
X116170Y89465D03*
X168045Y97465D03*
X109420Y90715D03*
X169795Y97965D03*
X103920Y90715D03*
X168420Y104090D03*
X135545Y103215D03*
X38795Y104590D03*
X108670Y95465D03*
X59170Y73215D03*
X89920Y88715D03*
X124795Y93715D03*
X127670Y96590D03*
X61795Y73090D03*
X91170Y88715D03*
X106295Y90715D03*
X127545Y100465D03*
X163295Y73715D03*
X144920Y72590D03*
X168670Y82215D03*
X152920Y76215D03*
X157670Y82215D03*
X143170Y73715D03*
X153420Y82215D03*
X133920Y70715D03*
X149295Y83340D03*
X141420Y73340D03*
X142670Y81965D03*
X140170Y73340D03*
X139170Y82715D03*
X138920Y73340D03*
X106170Y81340D03*
X136795Y76215D03*
X99670Y80590D03*
X117170Y76090D03*
X117170Y77340D03*
X97045Y81465D03*
X111670Y82715D03*
X123295Y77590D03*
X122670Y81340D03*
X138920Y76215D03*
X128170Y81340D03*
X131045Y78465D03*
X133670Y81340D03*
X140170Y78465D03*
X79670Y72590D03*
X64295Y72590D03*
X77295Y71465D03*
X67170Y71465D03*
X98420Y102215D03*
X94920Y98715D03*
X31795Y87590D03*
X31795Y91340D03*
X155920Y100715D03*
X88295Y94465D03*
X171170Y101840D03*
X100795Y83715D03*
X29045Y76965D03*
X38920Y73215D03*
X136920Y104590D03*
X65920Y71465D03*
X37545Y71465D03*
X28545Y78715D03*
X95420Y94965D03*
X119045Y79340D03*
X158920Y80965D03*
X95420Y93715D03*
X104795Y72465D03*
X145420Y75340D03*
X66795Y104090D03*
X132420Y104090D03*
X147295Y102340D03*
X160670Y102340D03*
X59170Y103215D03*
X133045Y71590D03*
X134795Y71590D03*
M02*
