G75*
%MOMM*%
%OFA0B0*%
%FSLAX33Y33*%
%IPPOS*%
%LPD*%
%AMOC8*
5,1,8,0,0,1.08239X$1,22.5*
%
%ADD10C,0.152*%
%ADD11C,0.127*%
%ADD12C,0.076*%
%ADD13C,0.015*%
%ADD14C,0.051*%
D10*
X82831Y77147D02*
X82559Y77418D01*
X82017Y77418D01*
X81746Y77147D01*
X81746Y76876D01*
X82017Y76604D01*
X82559Y76604D01*
X82831Y76333D01*
X82831Y76062D01*
X82559Y75791D01*
X82017Y75791D01*
X81746Y76062D01*
X83383Y75791D02*
X83383Y76876D01*
X83654Y76876D01*
X83925Y76604D01*
X83925Y75791D01*
X83925Y76604D02*
X84197Y76876D01*
X84468Y76604D01*
X84468Y75791D01*
X85020Y76876D02*
X85291Y76876D01*
X85291Y75791D01*
X85020Y75791D02*
X85563Y75791D01*
X85291Y77418D02*
X85291Y77689D01*
X86112Y77418D02*
X86383Y77418D01*
X86383Y75791D01*
X86112Y75791D02*
X86654Y75791D01*
X88017Y75791D02*
X87474Y75791D01*
X87203Y76062D01*
X87203Y76604D01*
X87474Y76876D01*
X88017Y76876D01*
X88288Y76604D01*
X88288Y76333D01*
X87203Y76333D01*
X91562Y77147D02*
X91291Y77418D01*
X90749Y77418D01*
X90477Y77147D01*
X90477Y76876D01*
X90749Y76604D01*
X91291Y76604D01*
X91562Y76333D01*
X91562Y76062D01*
X91291Y75791D01*
X90749Y75791D01*
X90477Y76062D01*
X92115Y75791D02*
X92115Y77418D01*
X92115Y76604D02*
X92386Y76876D01*
X92928Y76876D01*
X93199Y76604D01*
X93199Y75791D01*
X94023Y76876D02*
X94565Y76876D01*
X94836Y76604D01*
X94836Y75791D01*
X94023Y75791D01*
X93752Y76062D01*
X94023Y76333D01*
X94836Y76333D01*
X96474Y77418D02*
X96474Y75791D01*
X95660Y75791D01*
X95389Y76062D01*
X95389Y76604D01*
X95660Y76876D01*
X96474Y76876D01*
X97840Y75791D02*
X97297Y75791D01*
X97026Y76062D01*
X97026Y76604D01*
X97297Y76876D01*
X97840Y76876D01*
X98111Y76604D01*
X98111Y76333D01*
X97026Y76333D01*
X101385Y76876D02*
X100572Y76876D01*
X100300Y76604D01*
X100300Y76062D01*
X100572Y75791D01*
X101385Y75791D01*
X102209Y75791D02*
X102751Y75791D01*
X103022Y76062D01*
X103022Y76604D01*
X102751Y76876D01*
X102209Y76876D01*
X101938Y76604D01*
X101938Y76062D01*
X102209Y75791D01*
X103575Y75791D02*
X103575Y76876D01*
X104388Y76876D01*
X104659Y76604D01*
X104659Y75791D01*
X105483Y77147D02*
X105483Y76062D01*
X105754Y75791D01*
X105754Y76876D02*
X105212Y76876D01*
X106303Y76876D02*
X106303Y75791D01*
X106303Y76333D02*
X106846Y76876D01*
X107117Y76876D01*
X107939Y75791D02*
X108481Y75791D01*
X108752Y76062D01*
X108752Y76604D01*
X108481Y76876D01*
X107939Y76876D01*
X107668Y76604D01*
X107668Y76062D01*
X107939Y75791D01*
X109305Y77418D02*
X109576Y77418D01*
X109576Y75791D01*
X109305Y75791D02*
X109847Y75791D01*
X112033Y75791D02*
X112033Y77418D01*
X112847Y77418D01*
X113118Y77147D01*
X113118Y76604D01*
X112847Y76333D01*
X112033Y76333D01*
X114755Y77147D02*
X114484Y77418D01*
X113942Y77418D01*
X113671Y77147D01*
X113671Y76062D01*
X113942Y75791D01*
X114484Y75791D01*
X114755Y76062D01*
X115308Y75791D02*
X115308Y77418D01*
X116121Y77418D01*
X116392Y77147D01*
X116392Y76876D01*
X116121Y76604D01*
X116392Y76333D01*
X116392Y76062D01*
X116121Y75791D01*
X115308Y75791D01*
X115308Y76604D02*
X116121Y76604D01*
X118582Y76876D02*
X119124Y75791D01*
X119667Y76876D01*
X120219Y76876D02*
X120761Y77418D01*
X120761Y75791D01*
X120219Y75791D02*
X121304Y75791D01*
X121856Y75791D02*
X121856Y76062D01*
X122127Y76062D01*
X122127Y75791D01*
X121856Y75791D01*
X122675Y76062D02*
X122675Y77147D01*
X122946Y77418D01*
X123488Y77418D01*
X123760Y77147D01*
X123760Y76062D01*
X123488Y75791D01*
X122946Y75791D01*
X122675Y76062D01*
X123760Y77147D01*
X81746Y74918D02*
X81746Y73291D01*
X82831Y73291D01*
X83654Y73291D02*
X84197Y73291D01*
X84468Y73562D01*
X84468Y74104D01*
X84197Y74376D01*
X83654Y74376D01*
X83383Y74104D01*
X83383Y73562D01*
X83654Y73291D01*
X85020Y74376D02*
X85020Y73562D01*
X85291Y73291D01*
X86105Y73291D01*
X86105Y74376D01*
X86657Y74376D02*
X86929Y74376D01*
X86929Y73291D01*
X87200Y73291D02*
X86657Y73291D01*
X86929Y74918D02*
X86929Y75189D01*
X87749Y73291D02*
X88562Y73291D01*
X88834Y73562D01*
X88562Y73833D01*
X88020Y73833D01*
X87749Y74104D01*
X88020Y74376D01*
X88834Y74376D01*
X91023Y73291D02*
X91023Y74376D01*
X91566Y74918D01*
X92108Y74376D01*
X92108Y73291D01*
X92108Y74104D02*
X91023Y74104D01*
X93745Y74918D02*
X93745Y73291D01*
X92932Y73291D01*
X92660Y73562D01*
X92660Y74104D01*
X92932Y74376D01*
X93745Y74376D01*
X94569Y74376D02*
X95111Y74376D01*
X95382Y74104D01*
X95382Y73291D01*
X94569Y73291D01*
X94298Y73562D01*
X94569Y73833D01*
X95382Y73833D01*
X95935Y73291D02*
X95935Y74376D01*
X96206Y74376D01*
X96477Y74104D01*
X96477Y73291D01*
X96477Y74104D02*
X96748Y74376D01*
X97019Y74104D01*
X97019Y73291D01*
X97572Y74376D02*
X97843Y74376D01*
X97843Y73291D01*
X97572Y73291D02*
X98114Y73291D01*
X97843Y74918D02*
X97843Y75189D01*
X98934Y74376D02*
X99477Y74376D01*
X99748Y74104D01*
X99748Y73291D01*
X98934Y73291D01*
X98663Y73562D01*
X98934Y73833D01*
X99748Y73833D01*
X100300Y73291D02*
X100300Y74376D01*
X101114Y74376D01*
X101385Y74104D01*
X101385Y73291D01*
X103575Y73291D02*
X103575Y74918D01*
X104388Y74918D01*
X104659Y74647D01*
X104659Y74104D01*
X104388Y73833D01*
X103575Y73833D01*
X105483Y74376D02*
X106025Y74376D01*
X106297Y74104D01*
X106297Y73291D01*
X105483Y73291D01*
X105212Y73562D01*
X105483Y73833D01*
X106297Y73833D01*
X107120Y74647D02*
X107120Y73562D01*
X107391Y73291D01*
X107391Y74376D02*
X106849Y74376D01*
X108754Y73291D02*
X108212Y73291D01*
X107940Y73562D01*
X107940Y74104D01*
X108212Y74376D01*
X108754Y74376D01*
X109025Y74104D01*
X109025Y73833D01*
X107940Y73833D01*
X109578Y73291D02*
X109578Y74376D01*
X110391Y74376D01*
X110662Y74104D01*
X110662Y73291D01*
X111486Y74647D02*
X111486Y73562D01*
X111757Y73291D01*
X111757Y74376D02*
X111215Y74376D01*
X113943Y73291D02*
X113943Y74918D01*
X114757Y74918D01*
X115028Y74647D01*
X115028Y74104D01*
X114757Y73833D01*
X113943Y73833D01*
X116394Y73291D02*
X115852Y73291D01*
X115581Y73562D01*
X115581Y74104D01*
X115852Y74376D01*
X116394Y74376D01*
X116665Y74104D01*
X116665Y73833D01*
X115581Y73833D01*
X117218Y73291D02*
X117218Y74376D01*
X118031Y74376D01*
X118302Y74104D01*
X118302Y73291D01*
X119940Y74918D02*
X119940Y73291D01*
X119126Y73291D01*
X118855Y73562D01*
X118855Y74104D01*
X119126Y74376D01*
X119940Y74376D01*
X120492Y74376D02*
X120763Y74376D01*
X120763Y73291D01*
X120492Y73291D02*
X121034Y73291D01*
X120763Y74918D02*
X120763Y75189D01*
X121583Y73291D02*
X121583Y74376D01*
X122397Y74376D01*
X122668Y74104D01*
X122668Y73291D01*
X123763Y72749D02*
X124034Y72749D01*
X124305Y73020D01*
X124305Y74376D01*
X123492Y74376D01*
X123221Y74104D01*
X123221Y73562D01*
X123492Y73291D01*
X124305Y73291D01*
X125246Y76604D02*
X125788Y76604D01*
X125788Y75520D01*
X125788Y76333D02*
X125246Y76333D01*
X129331Y75791D02*
X128246Y75791D01*
X129331Y76876D01*
X129331Y77147D01*
X129059Y77418D01*
X128517Y77418D01*
X128246Y77147D01*
X129883Y76062D02*
X129883Y77147D01*
X130154Y77418D01*
X130697Y77418D01*
X130968Y77147D01*
X130968Y76062D01*
X130697Y75791D01*
X130154Y75791D01*
X129883Y76062D01*
X130968Y77147D01*
X131520Y76876D02*
X132063Y77418D01*
X132063Y75791D01*
X132605Y75791D02*
X131520Y75791D01*
X133157Y77418D02*
X134242Y77418D01*
X134242Y77147D01*
X133157Y76062D01*
X133157Y75791D01*
X29475Y75291D02*
X30407Y75291D01*
X30594Y75477D01*
X30594Y75850D01*
X30407Y76037D01*
X29475Y76037D01*
X30407Y76460D02*
X30594Y76647D01*
X30594Y77020D01*
X30407Y77206D01*
X30221Y77206D01*
X30034Y77020D01*
X30034Y76647D01*
X29848Y76460D01*
X29661Y76460D01*
X29475Y76647D01*
X29475Y77020D01*
X29661Y77206D01*
X29289Y76833D02*
X30780Y76833D01*
X29848Y77630D02*
X29475Y78003D01*
X30594Y78003D01*
X30594Y78375D02*
X30594Y77630D01*
X158163Y97250D02*
X158163Y103600D01*
X157756Y103600D01*
X138097Y103600D02*
X138097Y97250D01*
X138249Y97250D01*
X140230Y97250D02*
X141043Y97250D01*
X142516Y97250D02*
X143583Y97250D01*
X145056Y97250D02*
X146123Y97250D01*
X147596Y97250D02*
X148663Y97250D01*
X150136Y97250D02*
X151203Y97250D01*
X152676Y97250D02*
X153743Y97250D01*
X155216Y97250D02*
X156283Y97250D01*
X157756Y97250D02*
X158163Y97250D01*
X156283Y103600D02*
X155216Y103600D01*
X153743Y103600D02*
X152676Y103600D01*
X151203Y103600D02*
X150136Y103600D01*
X148663Y103600D02*
X147596Y103600D01*
X146123Y103600D02*
X145056Y103600D01*
X143583Y103600D02*
X142516Y103600D01*
X141043Y103600D02*
X139976Y103600D01*
X138503Y103600D02*
X138097Y103600D01*
X107937Y101290D02*
X107937Y98140D01*
X99403Y98140D02*
X99403Y101290D01*
X166326Y97215D02*
X167596Y97215D01*
X166961Y96580D02*
X166961Y97850D01*
X166199Y97215D02*
X166197Y97333D01*
X166191Y97451D01*
X166181Y97568D01*
X166167Y97686D01*
X166150Y97802D01*
X166128Y97918D01*
X166103Y98034D01*
X166074Y98148D01*
X166040Y98261D01*
X166004Y98373D01*
X165963Y98484D01*
X165919Y98593D01*
X165871Y98701D01*
X165819Y98808D01*
X165765Y98912D01*
X165706Y99014D01*
X165644Y99115D01*
X165579Y99213D01*
X165511Y99310D01*
X165439Y99403D01*
X165364Y99495D01*
X165287Y99584D01*
X165206Y99670D01*
X165123Y99753D01*
X165037Y99834D01*
X164948Y99911D01*
X164856Y99986D01*
X164763Y100058D01*
X164666Y100126D01*
X164568Y100191D01*
X164467Y100253D01*
X164365Y100312D01*
X164261Y100366D01*
X164154Y100418D01*
X164046Y100466D01*
X163937Y100510D01*
X163826Y100551D01*
X163714Y100587D01*
X163601Y100621D01*
X163487Y100650D01*
X163371Y100675D01*
X163255Y100697D01*
X163139Y100714D01*
X163021Y100728D01*
X162904Y100738D01*
X162786Y100744D01*
X162668Y100746D01*
X162550Y100744D01*
X162432Y100738D01*
X162315Y100728D01*
X162197Y100714D01*
X162081Y100697D01*
X161965Y100675D01*
X161849Y100650D01*
X161735Y100621D01*
X161622Y100587D01*
X161510Y100551D01*
X161399Y100510D01*
X161290Y100466D01*
X161182Y100418D01*
X161075Y100366D01*
X160971Y100312D01*
X160869Y100253D01*
X160768Y100191D01*
X160670Y100126D01*
X160573Y100058D01*
X160480Y99986D01*
X160388Y99911D01*
X160299Y99834D01*
X160213Y99753D01*
X160130Y99670D01*
X160049Y99584D01*
X159972Y99495D01*
X159897Y99403D01*
X159825Y99310D01*
X159757Y99213D01*
X159692Y99115D01*
X159630Y99014D01*
X159571Y98912D01*
X159517Y98808D01*
X159465Y98701D01*
X159417Y98593D01*
X159373Y98484D01*
X159332Y98373D01*
X159296Y98261D01*
X159262Y98148D01*
X159233Y98034D01*
X159208Y97918D01*
X159186Y97802D01*
X159169Y97686D01*
X159155Y97568D01*
X159145Y97451D01*
X159139Y97333D01*
X159137Y97215D01*
X159139Y97097D01*
X159145Y96979D01*
X159155Y96862D01*
X159169Y96744D01*
X159186Y96628D01*
X159208Y96512D01*
X159233Y96396D01*
X159262Y96282D01*
X159296Y96169D01*
X159332Y96057D01*
X159373Y95946D01*
X159417Y95837D01*
X159465Y95729D01*
X159517Y95622D01*
X159571Y95518D01*
X159630Y95416D01*
X159692Y95315D01*
X159757Y95217D01*
X159825Y95120D01*
X159897Y95027D01*
X159972Y94935D01*
X160049Y94846D01*
X160130Y94760D01*
X160213Y94677D01*
X160299Y94596D01*
X160388Y94519D01*
X160480Y94444D01*
X160573Y94372D01*
X160670Y94304D01*
X160768Y94239D01*
X160869Y94177D01*
X160971Y94118D01*
X161075Y94064D01*
X161182Y94012D01*
X161290Y93964D01*
X161399Y93920D01*
X161510Y93879D01*
X161622Y93843D01*
X161735Y93809D01*
X161849Y93780D01*
X161965Y93755D01*
X162081Y93733D01*
X162197Y93716D01*
X162315Y93702D01*
X162432Y93692D01*
X162550Y93686D01*
X162668Y93684D01*
X162786Y93686D01*
X162904Y93692D01*
X163021Y93702D01*
X163139Y93716D01*
X163255Y93733D01*
X163371Y93755D01*
X163487Y93780D01*
X163601Y93809D01*
X163714Y93843D01*
X163826Y93879D01*
X163937Y93920D01*
X164046Y93964D01*
X164154Y94012D01*
X164261Y94064D01*
X164365Y94118D01*
X164467Y94177D01*
X164568Y94239D01*
X164666Y94304D01*
X164763Y94372D01*
X164856Y94444D01*
X164948Y94519D01*
X165037Y94596D01*
X165123Y94677D01*
X165206Y94760D01*
X165287Y94846D01*
X165364Y94935D01*
X165439Y95027D01*
X165511Y95120D01*
X165579Y95217D01*
X165644Y95315D01*
X165706Y95416D01*
X165765Y95518D01*
X165819Y95622D01*
X165871Y95729D01*
X165919Y95837D01*
X165963Y95946D01*
X166004Y96057D01*
X166040Y96169D01*
X166074Y96282D01*
X166103Y96396D01*
X166128Y96512D01*
X166150Y96628D01*
X166167Y96744D01*
X166181Y96862D01*
X166191Y96979D01*
X166197Y97097D01*
X166199Y97215D01*
X27259Y75776D02*
X27229Y75778D01*
X27199Y75783D01*
X27170Y75792D01*
X27143Y75805D01*
X27117Y75820D01*
X27093Y75839D01*
X27072Y75860D01*
X27053Y75884D01*
X27038Y75910D01*
X27025Y75937D01*
X27016Y75966D01*
X27011Y75996D01*
X27009Y76026D01*
X31819Y75776D02*
X31949Y75776D01*
X31199Y75776D02*
X30559Y75776D01*
X29929Y75776D02*
X29289Y75776D01*
X28659Y75776D02*
X28019Y75776D01*
X27399Y75776D02*
X27249Y75776D01*
X27279Y80776D02*
X27409Y80776D01*
X28019Y80776D02*
X28669Y80776D01*
X29289Y80776D02*
X29939Y80776D01*
X30559Y80776D02*
X31199Y80776D01*
X31819Y80776D02*
X31949Y80776D01*
X32209Y80516D02*
X32209Y76026D01*
X27009Y76026D02*
X27009Y80526D01*
X30448Y96176D02*
X30321Y96049D01*
X30067Y95795D01*
X30321Y95541D01*
X30448Y95414D01*
X26511Y96049D02*
X26384Y96049D01*
X26384Y98081D01*
X26511Y96049D02*
X26511Y95541D01*
X26384Y95541D01*
X31210Y98081D02*
X30448Y98081D01*
X27146Y98081D01*
X26384Y98081D02*
X26892Y98081D01*
X26892Y97700D01*
X26892Y96430D02*
X27146Y96430D01*
X27146Y97700D02*
X26892Y97700D01*
X27400Y97700D02*
X27400Y96430D01*
X27146Y96430D01*
X26892Y95160D02*
X27146Y95160D01*
X27400Y95160D01*
X27146Y96430D02*
X27146Y96049D01*
X27146Y95541D01*
X27146Y95160D01*
X27146Y98081D02*
X27146Y97700D01*
X27400Y97700D01*
X27146Y98081D02*
X26892Y98081D01*
X31210Y98081D02*
X31210Y97319D01*
X31337Y97319D01*
X31210Y96811D02*
X31337Y96811D01*
X31337Y97319D01*
X31337Y94779D02*
X31210Y94779D01*
X31210Y94271D02*
X31337Y94271D01*
X31210Y95541D02*
X31083Y95541D01*
X31083Y96049D02*
X31210Y96049D01*
X26511Y93509D02*
X26511Y93001D01*
X26384Y93001D01*
X26384Y90969D01*
X27146Y90969D02*
X30448Y90969D01*
X27146Y91350D02*
X26892Y91350D01*
X27400Y91350D02*
X27400Y92620D01*
X26892Y93890D02*
X27146Y93890D01*
X27400Y93890D01*
X26892Y92620D02*
X27146Y92620D01*
X27400Y92620D01*
X27146Y93890D02*
X27146Y93509D01*
X27146Y93001D01*
X27146Y92620D01*
X27146Y90969D02*
X27146Y91350D01*
X27400Y91350D01*
X31210Y92239D02*
X31337Y92239D01*
X31210Y90969D02*
X31210Y91731D01*
X31337Y91731D01*
X31337Y92239D01*
X31083Y93001D02*
X31210Y93001D01*
X31210Y92239D01*
X31083Y93001D02*
X31083Y93509D01*
X31210Y93509D01*
X31210Y94271D01*
X31337Y94271D02*
X31337Y94779D01*
X31210Y94779D02*
X31210Y95541D01*
X31083Y95541D02*
X31083Y96049D01*
X31210Y96049D02*
X31210Y96811D01*
X30448Y96176D02*
X30448Y98081D01*
X30448Y95414D02*
X30448Y93509D01*
X30448Y93001D01*
X30321Y95541D02*
X27146Y95541D01*
X27146Y96049D02*
X30321Y96049D01*
X30448Y93509D02*
X27146Y93509D01*
X27146Y93001D02*
X30448Y93001D01*
X27400Y93890D02*
X27400Y95160D01*
X26892Y95160D02*
X26892Y96430D01*
X26384Y95541D02*
X26384Y93509D01*
X26892Y93890D02*
X26892Y92620D01*
X26511Y93509D02*
X26384Y93509D01*
X26511Y88429D02*
X26384Y88429D01*
X26384Y90461D01*
X26511Y88429D02*
X26511Y87921D01*
X26384Y87921D01*
X27146Y90461D02*
X30448Y90461D01*
X27146Y88810D02*
X26892Y88810D01*
X26892Y90080D02*
X27146Y90080D01*
X27400Y90080D02*
X27400Y88810D01*
X27146Y88810D01*
X26892Y87540D02*
X27146Y87540D01*
X27400Y87540D01*
X27146Y88810D02*
X27146Y88429D01*
X27146Y87921D01*
X27146Y87540D01*
X27146Y90461D02*
X27146Y90080D01*
X27400Y90080D01*
X31210Y90461D02*
X31210Y89699D01*
X31337Y89699D01*
X31210Y89191D02*
X31337Y89191D01*
X31337Y89699D01*
X31337Y87159D02*
X31210Y87159D01*
X31210Y86651D02*
X31337Y86651D01*
X31210Y87921D02*
X31083Y87921D01*
X31083Y88429D02*
X31210Y88429D01*
X30067Y85635D02*
X30321Y85381D01*
X30448Y85254D01*
X26511Y85889D02*
X26511Y85381D01*
X26384Y85381D01*
X26384Y83349D01*
X30448Y85254D02*
X30448Y83349D01*
X31210Y83349D01*
X26384Y83349D02*
X26892Y83349D01*
X26892Y83730D01*
X27146Y83349D02*
X30448Y83349D01*
X27146Y83730D02*
X26892Y83730D01*
X27400Y83730D02*
X27400Y85000D01*
X26892Y86270D02*
X27146Y86270D01*
X27400Y86270D01*
X26892Y85000D02*
X27146Y85000D01*
X27400Y85000D01*
X27146Y86270D02*
X27146Y85889D01*
X27146Y85381D01*
X27146Y85000D01*
X27146Y83349D02*
X27146Y83730D01*
X27400Y83730D01*
X27146Y83349D02*
X26892Y83349D01*
X31210Y84619D02*
X31337Y84619D01*
X31210Y83349D02*
X31210Y84111D01*
X31337Y84111D01*
X31337Y84619D01*
X31083Y85381D02*
X31210Y85381D01*
X31210Y84619D01*
X31083Y85381D02*
X31083Y85889D01*
X31210Y85889D01*
X30448Y86016D02*
X30321Y85889D01*
X30067Y85635D01*
X31210Y85889D02*
X31210Y86651D01*
X31337Y86651D02*
X31337Y87159D01*
X31210Y87159D02*
X31210Y87921D01*
X31083Y87921D02*
X31083Y88429D01*
X31210Y88429D02*
X31210Y89191D01*
X30448Y88429D02*
X30448Y90461D01*
X30448Y87921D02*
X27146Y87921D01*
X27146Y88429D02*
X30448Y88429D01*
X30321Y85889D02*
X27146Y85889D01*
X27146Y85381D02*
X30321Y85381D01*
X27400Y86270D02*
X27400Y87540D01*
X26892Y87540D02*
X26892Y88810D01*
X26384Y87921D02*
X26384Y85889D01*
X26892Y86270D02*
X26892Y85000D01*
X26511Y85889D02*
X26384Y85889D01*
X30448Y90969D02*
X30448Y93001D01*
X30448Y88429D02*
X30448Y87921D01*
X30448Y86016D01*
X26511Y90969D02*
X26384Y90969D01*
X26384Y90461D02*
X26511Y90461D01*
X26511Y90969D01*
X26892Y91350D02*
X26892Y90080D01*
X27146Y90461D02*
X27146Y90969D01*
X30448Y90969D02*
X30448Y90461D01*
X31083Y90461D02*
X31083Y90969D01*
X31210Y90969D01*
X31210Y90461D02*
X31083Y90461D01*
X160399Y73993D02*
X160526Y73866D01*
X160780Y73612D01*
X161034Y73866D01*
X161161Y73993D01*
X160526Y70056D02*
X160526Y69929D01*
X158494Y69929D01*
X160526Y70056D02*
X161034Y70056D01*
X161034Y69929D01*
X158494Y74755D02*
X158494Y73993D01*
X158494Y70691D01*
X158494Y69929D02*
X158494Y70437D01*
X158875Y70437D01*
X160145Y70437D02*
X160145Y70691D01*
X158875Y70691D02*
X158875Y70437D01*
X158875Y70945D02*
X160145Y70945D01*
X160145Y70691D01*
X161415Y70437D02*
X161415Y70691D01*
X161415Y70945D01*
X160145Y70691D02*
X160526Y70691D01*
X161034Y70691D01*
X161415Y70691D01*
X158494Y70691D02*
X158875Y70691D01*
X158875Y70945D01*
X158494Y70691D02*
X158494Y70437D01*
X158494Y74755D02*
X159256Y74755D01*
X159256Y74882D01*
X159764Y74755D02*
X159764Y74882D01*
X159256Y74882D01*
X161796Y74882D02*
X161796Y74755D01*
X162304Y74755D02*
X162304Y74882D01*
X161034Y74755D02*
X161034Y74628D01*
X160526Y74628D02*
X160526Y74755D01*
X163066Y70056D02*
X163574Y70056D01*
X163574Y69929D01*
X165606Y69929D01*
X165606Y70691D02*
X165606Y73993D01*
X165225Y70691D02*
X165225Y70437D01*
X165225Y70945D02*
X163955Y70945D01*
X162685Y70437D02*
X162685Y70691D01*
X162685Y70945D01*
X163955Y70437D02*
X163955Y70691D01*
X163955Y70945D01*
X162685Y70691D02*
X163066Y70691D01*
X163574Y70691D01*
X163955Y70691D01*
X165606Y70691D02*
X165225Y70691D01*
X165225Y70945D01*
X164336Y74755D02*
X164336Y74882D01*
X165606Y74755D02*
X164844Y74755D01*
X164844Y74882D01*
X164336Y74882D01*
X163574Y74628D02*
X163574Y74755D01*
X164336Y74755D01*
X163574Y74628D02*
X163066Y74628D01*
X163066Y74755D01*
X162304Y74755D01*
X162304Y74882D02*
X161796Y74882D01*
X161796Y74755D02*
X161034Y74755D01*
X161034Y74628D02*
X160526Y74628D01*
X160526Y74755D02*
X159764Y74755D01*
X160399Y73993D02*
X158494Y73993D01*
X161161Y73993D02*
X163066Y73993D01*
X163574Y73993D01*
X161034Y73866D02*
X161034Y70691D01*
X160526Y70691D02*
X160526Y73866D01*
X163066Y73993D02*
X163066Y70691D01*
X163574Y70691D02*
X163574Y73993D01*
X162685Y70945D02*
X161415Y70945D01*
X161415Y70437D02*
X160145Y70437D01*
X161034Y69929D02*
X163066Y69929D01*
X162685Y70437D02*
X163955Y70437D01*
X163066Y70056D02*
X163066Y69929D01*
X168146Y70056D02*
X168146Y69929D01*
X166114Y69929D01*
X168146Y70056D02*
X168654Y70056D01*
X168654Y69929D01*
X166114Y70691D02*
X166114Y73993D01*
X167765Y70691D02*
X167765Y70437D01*
X166495Y70437D02*
X166495Y70691D01*
X166495Y70945D02*
X167765Y70945D01*
X167765Y70691D01*
X169035Y70437D02*
X169035Y70691D01*
X169035Y70945D01*
X167765Y70691D02*
X168146Y70691D01*
X168654Y70691D01*
X169035Y70691D01*
X166114Y70691D02*
X166495Y70691D01*
X166495Y70945D01*
X166114Y74755D02*
X166876Y74755D01*
X166876Y74882D01*
X167384Y74755D02*
X167384Y74882D01*
X166876Y74882D01*
X169416Y74882D02*
X169416Y74755D01*
X169924Y74755D02*
X169924Y74882D01*
X168654Y74755D02*
X168654Y74628D01*
X168146Y74628D02*
X168146Y74755D01*
X178560Y73612D02*
X178814Y73866D01*
X178941Y73993D01*
X178306Y70056D02*
X178814Y70056D01*
X178814Y69929D01*
X180846Y69929D01*
X178941Y73993D02*
X180846Y73993D01*
X180846Y74755D01*
X180846Y69929D02*
X180846Y70437D01*
X180465Y70437D01*
X180846Y70691D02*
X180846Y73993D01*
X180465Y70691D02*
X180465Y70437D01*
X180465Y70945D02*
X179195Y70945D01*
X177925Y70437D02*
X177925Y70691D01*
X177925Y70945D01*
X179195Y70437D02*
X179195Y70691D01*
X179195Y70945D01*
X177925Y70691D02*
X178306Y70691D01*
X178814Y70691D01*
X179195Y70691D01*
X180846Y70691D02*
X180465Y70691D01*
X180465Y70945D01*
X180846Y70691D02*
X180846Y70437D01*
X179576Y74755D02*
X179576Y74882D01*
X180846Y74755D02*
X180084Y74755D01*
X180084Y74882D01*
X179576Y74882D01*
X178814Y74628D02*
X178814Y74755D01*
X179576Y74755D01*
X178814Y74628D02*
X178306Y74628D01*
X178306Y74755D01*
X178179Y73993D02*
X178306Y73866D01*
X178560Y73612D01*
X169924Y74882D02*
X169416Y74882D01*
X169416Y74755D02*
X168654Y74755D01*
X168654Y74628D02*
X168146Y74628D01*
X168146Y74755D02*
X167384Y74755D01*
X168146Y73993D02*
X166114Y73993D01*
X168654Y73993D02*
X168654Y70691D01*
X168146Y70691D02*
X168146Y73993D01*
X178306Y73866D02*
X178306Y70691D01*
X178814Y70691D02*
X178814Y73866D01*
X169035Y70437D02*
X167765Y70437D01*
X177925Y70437D02*
X179195Y70437D01*
X178306Y70056D02*
X178306Y69929D01*
X165606Y73993D02*
X163574Y73993D01*
X168146Y73993D02*
X168654Y73993D01*
X165606Y70056D02*
X165606Y69929D01*
X166114Y69929D02*
X166114Y70056D01*
X165606Y70056D01*
X165225Y70437D02*
X166495Y70437D01*
X166114Y70691D02*
X165606Y70691D01*
X165606Y73993D02*
X166114Y73993D01*
X166114Y74628D02*
X165606Y74628D01*
X165606Y74755D01*
X166114Y74755D02*
X166114Y74628D01*
X170686Y70056D02*
X170686Y69929D01*
X168654Y69929D01*
X170686Y70056D02*
X171194Y70056D01*
X171194Y69929D01*
X170305Y70437D02*
X170305Y70691D01*
X169035Y70945D02*
X170305Y70945D01*
X170305Y70691D01*
X171575Y70437D02*
X171575Y70691D01*
X171575Y70945D01*
X170305Y70691D02*
X170686Y70691D01*
X171194Y70691D01*
X171575Y70691D01*
X171956Y74755D02*
X171956Y74882D01*
X172464Y74882D02*
X172464Y74755D01*
X171194Y74755D02*
X171194Y74628D01*
X170686Y74628D02*
X170686Y74755D01*
X171956Y74882D02*
X172464Y74882D01*
X171956Y74755D02*
X171194Y74755D01*
X171194Y74628D02*
X170686Y74628D01*
X170686Y74755D02*
X169924Y74755D01*
X170686Y73993D02*
X168654Y73993D01*
X171194Y73993D02*
X171194Y70691D01*
X170686Y70691D02*
X170686Y73993D01*
X170305Y70437D02*
X171575Y70437D01*
X171194Y73993D02*
X170686Y73993D01*
X173226Y70056D02*
X173226Y69929D01*
X171194Y69929D01*
X173226Y70056D02*
X173734Y70056D01*
X173734Y69929D01*
X172845Y70437D02*
X172845Y70691D01*
X171575Y70945D02*
X172845Y70945D01*
X172845Y70691D01*
X174115Y70437D02*
X174115Y70691D01*
X174115Y70945D01*
X172845Y70691D02*
X173226Y70691D01*
X173734Y70691D01*
X174115Y70691D01*
X174496Y74755D02*
X174496Y74882D01*
X175004Y74882D02*
X175004Y74755D01*
X173734Y74755D02*
X173734Y74628D01*
X173226Y74628D02*
X173226Y74755D01*
X174496Y74882D02*
X175004Y74882D01*
X174496Y74755D02*
X173734Y74755D01*
X173734Y74628D02*
X173226Y74628D01*
X173226Y74755D02*
X172464Y74755D01*
X173226Y73993D02*
X171194Y73993D01*
X173734Y73993D02*
X173734Y70691D01*
X173226Y70691D02*
X173226Y73993D01*
X172845Y70437D02*
X174115Y70437D01*
X173734Y73993D02*
X173226Y73993D01*
X175766Y70056D02*
X175766Y69929D01*
X173734Y69929D01*
X175766Y70056D02*
X176274Y70056D01*
X176274Y69929D01*
X175385Y70437D02*
X175385Y70691D01*
X174115Y70945D02*
X175385Y70945D01*
X175385Y70691D01*
X176655Y70437D02*
X176655Y70691D01*
X176655Y70945D01*
X175385Y70691D02*
X175766Y70691D01*
X176274Y70691D01*
X176655Y70691D01*
X177036Y74755D02*
X177036Y74882D01*
X177544Y74882D02*
X177544Y74755D01*
X176274Y74755D02*
X176274Y74628D01*
X175766Y74628D02*
X175766Y74755D01*
X177036Y74882D02*
X177544Y74882D01*
X177036Y74755D02*
X176274Y74755D01*
X176274Y74628D02*
X175766Y74628D01*
X175766Y74755D02*
X175004Y74755D01*
X175766Y73993D02*
X173734Y73993D01*
X176274Y73993D02*
X176274Y70691D01*
X175766Y70691D02*
X175766Y73993D01*
X175385Y70437D02*
X176655Y70437D01*
X176274Y73993D02*
X175766Y73993D01*
X177544Y74755D02*
X178306Y74755D01*
X178179Y73993D02*
X176274Y73993D01*
X176274Y69929D02*
X178306Y69929D01*
X177925Y70945D02*
X176655Y70945D01*
X114904Y104101D02*
X114091Y104101D01*
X114091Y102399D02*
X114904Y102399D01*
X114904Y100697D02*
X114091Y100697D01*
X114091Y98996D02*
X114904Y98996D01*
X114904Y97294D02*
X114091Y97294D01*
X114091Y103136D02*
X114904Y103136D01*
X114904Y101434D02*
X114091Y101434D01*
X114091Y99732D02*
X114904Y99732D01*
X114904Y98030D02*
X114091Y98030D01*
X114091Y96329D02*
X114904Y96329D01*
X171094Y85248D02*
X171246Y85248D01*
X171246Y84181D02*
X171094Y84181D01*
X176594Y85248D02*
X176746Y85248D01*
X176746Y84181D02*
X176594Y84181D01*
X165746Y85248D02*
X165594Y85248D01*
X165594Y84181D02*
X165746Y84181D01*
X160246Y85248D02*
X160094Y85248D01*
X160094Y84181D02*
X160246Y84181D01*
X143746Y85248D02*
X143594Y85248D01*
X143594Y84181D02*
X143746Y84181D01*
X149094Y85248D02*
X149246Y85248D01*
X149246Y84181D02*
X149094Y84181D01*
X154594Y85248D02*
X154746Y85248D01*
X154746Y84181D02*
X154594Y84181D01*
X138246Y84181D02*
X138094Y84181D01*
X138094Y85248D02*
X138246Y85248D01*
X121746Y85248D02*
X121594Y85248D01*
X121594Y84181D02*
X121746Y84181D01*
X127094Y85248D02*
X127246Y85248D01*
X127246Y84181D02*
X127094Y84181D01*
X132594Y85248D02*
X132746Y85248D01*
X132746Y84181D02*
X132594Y84181D01*
X116246Y85248D02*
X116094Y85248D01*
X116094Y84181D02*
X116246Y84181D01*
X94246Y85248D02*
X94094Y85248D01*
X94094Y84181D02*
X94246Y84181D01*
X99094Y85248D02*
X99246Y85248D01*
X99246Y84181D02*
X99094Y84181D01*
X105594Y85248D02*
X105746Y85248D01*
X105746Y84181D02*
X105594Y84181D01*
X110594Y85248D02*
X110746Y85248D01*
X110746Y84181D02*
X110594Y84181D01*
X83246Y85248D02*
X83094Y85248D01*
X83094Y84181D02*
X83246Y84181D01*
X88594Y85248D02*
X88746Y85248D01*
X88746Y84181D02*
X88594Y84181D01*
X85019Y99493D02*
X85146Y99366D01*
X85400Y99112D01*
X85654Y99366D01*
X85781Y99493D01*
X85146Y95556D02*
X85146Y95429D01*
X83114Y95429D01*
X85146Y95556D02*
X85654Y95556D01*
X85654Y95429D01*
X83114Y100255D02*
X83114Y99493D01*
X83114Y96191D01*
X83114Y95429D02*
X83114Y95937D01*
X83495Y95937D01*
X84765Y95937D02*
X84765Y96191D01*
X83495Y96191D02*
X83495Y95937D01*
X83495Y96445D02*
X84765Y96445D01*
X84765Y96191D01*
X86035Y95937D02*
X86035Y96191D01*
X86035Y96445D01*
X84765Y96191D02*
X85146Y96191D01*
X85654Y96191D01*
X86035Y96191D01*
X83114Y96191D02*
X83495Y96191D01*
X83495Y96445D01*
X83114Y96191D02*
X83114Y95937D01*
X83114Y100255D02*
X83876Y100255D01*
X83876Y100382D01*
X84384Y100255D02*
X84384Y100382D01*
X83876Y100382D01*
X86416Y100382D02*
X86416Y100255D01*
X86924Y100255D02*
X86924Y100382D01*
X85654Y100255D02*
X85654Y100128D01*
X85146Y100128D02*
X85146Y100255D01*
X87940Y99112D02*
X88194Y99366D01*
X88321Y99493D01*
X87686Y95556D02*
X88194Y95556D01*
X88194Y95429D01*
X90226Y95429D01*
X88321Y99493D02*
X90226Y99493D01*
X90226Y100255D01*
X90226Y95429D02*
X90226Y95937D01*
X89845Y95937D01*
X90226Y96191D02*
X90226Y99493D01*
X89845Y96191D02*
X89845Y95937D01*
X89845Y96445D02*
X88575Y96445D01*
X87305Y95937D02*
X87305Y96191D01*
X87305Y96445D01*
X88575Y95937D02*
X88575Y96191D01*
X88575Y96445D01*
X87305Y96191D02*
X87686Y96191D01*
X88194Y96191D01*
X88575Y96191D01*
X90226Y96191D02*
X89845Y96191D01*
X89845Y96445D01*
X90226Y96191D02*
X90226Y95937D01*
X88956Y100255D02*
X88956Y100382D01*
X90226Y100255D02*
X89464Y100255D01*
X89464Y100382D01*
X88956Y100382D01*
X88194Y100128D02*
X88194Y100255D01*
X88956Y100255D01*
X88194Y100128D02*
X87686Y100128D01*
X87686Y100255D01*
X87559Y99493D02*
X87686Y99366D01*
X87940Y99112D01*
X87686Y100255D02*
X86924Y100255D01*
X86924Y100382D02*
X86416Y100382D01*
X86416Y100255D02*
X85654Y100255D01*
X85654Y100128D02*
X85146Y100128D01*
X85146Y100255D02*
X84384Y100255D01*
X85019Y99493D02*
X83114Y99493D01*
X85781Y99493D02*
X87559Y99493D01*
X85654Y99366D02*
X85654Y96191D01*
X85146Y96191D02*
X85146Y99366D01*
X87686Y99366D02*
X87686Y96191D01*
X88194Y96191D02*
X88194Y99366D01*
X87305Y96445D02*
X86035Y96445D01*
X86035Y95937D02*
X84765Y95937D01*
X85654Y95429D02*
X87686Y95429D01*
X87305Y95937D02*
X88575Y95937D01*
X87686Y95556D02*
X87686Y95429D01*
D11*
X32570Y104215D02*
X32570Y91715D01*
X32570Y84465D01*
X32570Y73629D01*
X33984Y72215D01*
X80170Y72215D01*
X80170Y104215D01*
X32570Y104215D01*
X32570Y91715D02*
X31670Y91715D01*
X32570Y84465D02*
X31670Y84465D01*
X31670Y91715D01*
X31670Y84465D02*
X31670Y91965D01*
X32570Y91965D01*
X32570Y84465D01*
X31670Y84465D01*
X31670Y84528D02*
X32570Y84528D01*
X32570Y84653D02*
X31670Y84653D01*
X31670Y84779D02*
X32570Y84779D01*
X32570Y84904D02*
X31670Y84904D01*
X31670Y85030D02*
X32570Y85030D01*
X32570Y85155D02*
X31670Y85155D01*
X31670Y85281D02*
X32570Y85281D01*
X32570Y85406D02*
X31670Y85406D01*
X31670Y85532D02*
X32570Y85532D01*
X32570Y85657D02*
X31670Y85657D01*
X31670Y85783D02*
X32570Y85783D01*
X32570Y85908D02*
X31670Y85908D01*
X31670Y86034D02*
X32570Y86034D01*
X32570Y86159D02*
X31670Y86159D01*
X31670Y86285D02*
X32570Y86285D01*
X32570Y86410D02*
X31670Y86410D01*
X31670Y86536D02*
X32570Y86536D01*
X32570Y86661D02*
X31670Y86661D01*
X31670Y86787D02*
X32570Y86787D01*
X32570Y86912D02*
X31670Y86912D01*
X31670Y87038D02*
X32570Y87038D01*
X32570Y87163D02*
X31670Y87163D01*
X31670Y87289D02*
X32570Y87289D01*
X32570Y87414D02*
X31670Y87414D01*
X31670Y87540D02*
X32570Y87540D01*
X32570Y87665D02*
X31670Y87665D01*
X31670Y87791D02*
X32570Y87791D01*
X32570Y87916D02*
X31670Y87916D01*
X31670Y88042D02*
X32570Y88042D01*
X32570Y88167D02*
X31670Y88167D01*
X31670Y88293D02*
X32570Y88293D01*
X32570Y88418D02*
X31670Y88418D01*
X31670Y88544D02*
X32570Y88544D01*
X32570Y88669D02*
X31670Y88669D01*
X31670Y88795D02*
X32570Y88795D01*
X32570Y88920D02*
X31670Y88920D01*
X31670Y89046D02*
X32570Y89046D01*
X32570Y89171D02*
X31670Y89171D01*
X31670Y89297D02*
X32570Y89297D01*
X32570Y89422D02*
X31670Y89422D01*
X31670Y89548D02*
X32570Y89548D01*
X32570Y89673D02*
X31670Y89673D01*
X31670Y89799D02*
X32570Y89799D01*
X32570Y89924D02*
X31670Y89924D01*
X31670Y90050D02*
X32570Y90050D01*
X32570Y90175D02*
X31670Y90175D01*
X31670Y90301D02*
X32570Y90301D01*
X32570Y90426D02*
X31670Y90426D01*
X31670Y90552D02*
X32570Y90552D01*
X32570Y90677D02*
X31670Y90677D01*
X31670Y90803D02*
X32570Y90803D01*
X32570Y90928D02*
X31670Y90928D01*
X31670Y91054D02*
X32570Y91054D01*
X32570Y91179D02*
X31670Y91179D01*
X31670Y91305D02*
X32570Y91305D01*
X32570Y91430D02*
X31670Y91430D01*
X31670Y91556D02*
X32570Y91556D01*
X32570Y91681D02*
X31670Y91681D01*
X31670Y91807D02*
X32570Y91807D01*
X32570Y91932D02*
X31670Y91932D01*
X175370Y87815D02*
X175370Y91115D01*
X179870Y91115D01*
X179870Y87815D01*
X175370Y87815D01*
X169870Y87815D02*
X169870Y91115D01*
X174370Y91115D01*
X174370Y87815D01*
X169870Y87815D01*
X164370Y87815D02*
X164370Y91115D01*
X168870Y91115D01*
X168870Y87815D01*
X164370Y87815D01*
X158870Y87815D02*
X158870Y91115D01*
X163370Y91115D01*
X163370Y87815D01*
X158870Y87815D01*
X142370Y87815D02*
X142370Y91115D01*
X146870Y91115D01*
X146870Y87815D01*
X142370Y87815D01*
X147870Y87815D02*
X147870Y91115D01*
X152370Y91115D01*
X152370Y87815D01*
X147870Y87815D01*
X153370Y87815D02*
X153370Y91115D01*
X157870Y91115D01*
X157870Y87815D01*
X153370Y87815D01*
X136870Y87815D02*
X136870Y91115D01*
X141370Y91115D01*
X141370Y87815D01*
X136870Y87815D01*
X120370Y87815D02*
X120370Y91115D01*
X124870Y91115D01*
X124870Y87815D01*
X120370Y87815D01*
X125870Y87815D02*
X125870Y91115D01*
X130370Y91115D01*
X130370Y87815D01*
X125870Y87815D01*
X131370Y87815D02*
X131370Y91115D01*
X135870Y91115D01*
X135870Y87815D01*
X131370Y87815D01*
X114870Y87815D02*
X114870Y91115D01*
X119370Y91115D01*
X119370Y87815D01*
X114870Y87815D01*
X109370Y87815D02*
X109370Y91115D01*
X113870Y91115D01*
X113870Y87815D01*
X109370Y87815D01*
X103870Y87815D02*
X103870Y91115D01*
X108370Y91115D01*
X108370Y87815D01*
X103870Y87815D01*
X98370Y87815D02*
X98370Y91115D01*
X102870Y91115D01*
X102870Y87815D01*
X98370Y87815D01*
X92870Y87815D02*
X92870Y91115D01*
X97370Y91115D01*
X97370Y87815D01*
X92870Y87815D01*
X81870Y87815D02*
X81870Y91115D01*
X86370Y91115D01*
X86370Y87815D01*
X81870Y87815D01*
X87370Y87815D02*
X87370Y91115D01*
X91870Y91115D01*
X91870Y87815D01*
X87370Y87815D01*
X181370Y105115D02*
X181370Y100215D01*
X168470Y100215D01*
X168470Y105115D01*
X181370Y105115D02*
X182170Y105115D01*
X168470Y105115D02*
X167670Y105115D01*
X167670Y106515D01*
X182170Y106515D01*
X182170Y105115D01*
X27670Y105215D02*
X31170Y105215D01*
X31170Y99315D01*
X27670Y99315D01*
X27670Y105215D02*
X27670Y106015D01*
X27670Y99315D02*
X27670Y98415D01*
X26270Y98415D01*
X26270Y106015D01*
X27670Y106015D01*
X29673Y97197D02*
X29961Y97485D01*
X29961Y96620D01*
X29673Y96620D02*
X30249Y96620D01*
X31869Y95399D02*
X31679Y95208D01*
X31679Y94827D01*
X31869Y94636D01*
X32060Y94636D01*
X32251Y94827D01*
X32251Y95208D01*
X32441Y95399D01*
X32632Y95399D01*
X32823Y95208D01*
X32823Y94827D01*
X32632Y94636D01*
X31679Y95805D02*
X32823Y95805D01*
X32823Y96568D01*
X32060Y96975D02*
X31679Y97356D01*
X32823Y97356D01*
X32823Y96975D02*
X32823Y97738D01*
X176170Y80265D02*
X176170Y82165D01*
X179170Y82165D01*
X179170Y80265D01*
X176170Y80265D01*
X170670Y80265D02*
X170670Y82165D01*
X173670Y82165D01*
X173670Y80265D01*
X170670Y80265D01*
X165170Y80265D02*
X165170Y82165D01*
X168170Y82165D01*
X168170Y80265D01*
X165170Y80265D01*
X159670Y80265D02*
X159670Y82165D01*
X162670Y82165D01*
X162670Y80265D01*
X159670Y80265D01*
X137670Y80265D02*
X137670Y82165D01*
X140670Y82165D01*
X140670Y80265D01*
X137670Y80265D01*
X154170Y80265D02*
X154170Y82165D01*
X157170Y82165D01*
X157170Y80265D01*
X154170Y80265D01*
X148670Y80265D02*
X148670Y82165D01*
X151670Y82165D01*
X151670Y80265D01*
X148670Y80265D01*
X143170Y80265D02*
X143170Y82165D01*
X146170Y82165D01*
X146170Y80265D01*
X143170Y80265D01*
X121170Y80265D02*
X121170Y82165D01*
X124170Y82165D01*
X124170Y80265D01*
X121170Y80265D01*
X126670Y80265D02*
X126670Y82165D01*
X129670Y82165D01*
X129670Y80265D01*
X126670Y80265D01*
X132170Y80265D02*
X132170Y82165D01*
X135170Y82165D01*
X135170Y80265D01*
X132170Y80265D01*
X115670Y80265D02*
X115670Y82165D01*
X118670Y82165D01*
X118670Y80265D01*
X115670Y80265D01*
X93670Y80265D02*
X93670Y82165D01*
X96670Y82165D01*
X96670Y80265D01*
X93670Y80265D01*
X99170Y80265D02*
X99170Y82165D01*
X102170Y82165D01*
X102170Y80265D01*
X99170Y80265D01*
X104670Y80265D02*
X104670Y82165D01*
X107670Y82165D01*
X107670Y80265D01*
X104670Y80265D01*
X110170Y80265D02*
X110170Y82165D01*
X113170Y82165D01*
X113170Y80265D01*
X110170Y80265D01*
X82670Y80265D02*
X82670Y82165D01*
X85670Y82165D01*
X85670Y80265D01*
X82670Y80265D01*
X88170Y80265D02*
X88170Y82165D01*
X91170Y82165D01*
X91170Y80265D01*
X88170Y80265D01*
X159378Y73218D02*
X159090Y73506D01*
X159954Y73506D01*
X159954Y73218D02*
X159954Y73794D01*
X159320Y76178D02*
X159129Y76369D01*
X158748Y76369D01*
X158557Y76178D01*
X158557Y75987D01*
X158748Y75797D01*
X159129Y75797D01*
X159320Y75606D01*
X159320Y75415D01*
X159129Y75225D01*
X158748Y75225D01*
X158557Y75415D01*
X159727Y76369D02*
X159727Y75225D01*
X160489Y75225D01*
X160896Y76178D02*
X161087Y76369D01*
X161468Y76369D01*
X161659Y76178D01*
X161659Y75987D01*
X161468Y75797D01*
X161277Y75797D01*
X161468Y75797D02*
X161659Y75606D01*
X161659Y75415D01*
X161468Y75225D01*
X161087Y75225D01*
X160896Y75415D01*
X83998Y98718D02*
X83710Y99006D01*
X84574Y99006D01*
X84574Y98718D02*
X84574Y99294D01*
X83940Y101678D02*
X83749Y101869D01*
X83368Y101869D01*
X83177Y101678D01*
X83177Y101487D01*
X83368Y101297D01*
X83749Y101297D01*
X83940Y101106D01*
X83940Y100915D01*
X83749Y100725D01*
X83368Y100725D01*
X83177Y100915D01*
X84347Y101869D02*
X84347Y100725D01*
X85109Y100725D01*
X86088Y100725D02*
X86088Y101869D01*
X85516Y101297D01*
X86279Y101297D01*
D12*
X137444Y96069D02*
X138241Y96865D01*
X138241Y96069D02*
X137444Y96865D01*
X137842Y96865D02*
X137842Y96069D01*
X137444Y96467D02*
X138241Y96467D01*
X147532Y97983D02*
X148129Y97186D01*
X148727Y97983D01*
X148727Y98356D02*
X147532Y98356D01*
X148727Y99152D01*
X147532Y99152D01*
X147930Y99724D02*
X147930Y100123D01*
X148129Y100322D01*
X148727Y100322D01*
X148727Y99724D01*
X148528Y99525D01*
X148328Y99724D01*
X148328Y100322D01*
X148727Y100694D02*
X147930Y100694D01*
X147930Y100894D01*
X148129Y101093D01*
X148727Y101093D01*
X148129Y101093D02*
X147930Y101292D01*
X148129Y101491D01*
X148727Y101491D01*
X148727Y102461D02*
X148727Y102063D01*
X148528Y101864D01*
X148129Y101864D01*
X147930Y102063D01*
X147930Y102461D01*
X148129Y102660D01*
X148328Y102660D01*
X148328Y101864D01*
X165110Y96617D02*
X165907Y97214D01*
X165110Y97812D01*
X164738Y97812D02*
X164738Y96617D01*
X163941Y97812D01*
X163941Y96617D01*
X163369Y97015D02*
X162971Y97015D01*
X162772Y97214D01*
X162772Y97812D01*
X163369Y97812D01*
X163568Y97613D01*
X163369Y97413D01*
X162772Y97413D01*
X162399Y97812D02*
X162399Y97015D01*
X162200Y97015D01*
X162000Y97214D01*
X162000Y97812D01*
X162000Y97214D02*
X161801Y97015D01*
X161602Y97214D01*
X161602Y97812D01*
X160632Y97812D02*
X161030Y97812D01*
X161229Y97613D01*
X161229Y97214D01*
X161030Y97015D01*
X160632Y97015D01*
X160433Y97214D01*
X160433Y97413D01*
X161229Y97413D01*
D13*
X31966Y75708D02*
X31966Y75845D01*
X31966Y75844D02*
X31991Y75847D01*
X32015Y75853D01*
X32038Y75862D01*
X32059Y75874D01*
X32079Y75889D01*
X32096Y75906D01*
X32111Y75926D01*
X32123Y75947D01*
X32132Y75970D01*
X32138Y75994D01*
X32141Y76019D01*
X32277Y76019D01*
X32278Y76019D01*
X32275Y75984D01*
X32269Y75950D01*
X32259Y75917D01*
X32245Y75885D01*
X32228Y75854D01*
X32208Y75826D01*
X32185Y75800D01*
X32159Y75777D01*
X32131Y75757D01*
X32100Y75740D01*
X32068Y75726D01*
X32035Y75716D01*
X32001Y75710D01*
X31966Y75707D01*
X31966Y75720D01*
X32000Y75723D01*
X32032Y75729D01*
X32064Y75739D01*
X32095Y75752D01*
X32124Y75768D01*
X32151Y75787D01*
X32175Y75810D01*
X32198Y75834D01*
X32217Y75861D01*
X32233Y75890D01*
X32246Y75921D01*
X32256Y75953D01*
X32262Y75985D01*
X32265Y76019D01*
X32252Y76019D01*
X32249Y75987D01*
X32243Y75956D01*
X32234Y75925D01*
X32222Y75896D01*
X32206Y75868D01*
X32187Y75842D01*
X32166Y75819D01*
X32143Y75798D01*
X32117Y75779D01*
X32089Y75763D01*
X32060Y75751D01*
X32029Y75742D01*
X31998Y75736D01*
X31966Y75733D01*
X31966Y75746D01*
X31999Y75749D01*
X32031Y75755D01*
X32062Y75766D01*
X32092Y75779D01*
X32119Y75797D01*
X32145Y75817D01*
X32168Y75840D01*
X32188Y75866D01*
X32206Y75893D01*
X32219Y75923D01*
X32230Y75954D01*
X32236Y75986D01*
X32239Y76019D01*
X32226Y76019D01*
X32223Y75988D01*
X32217Y75957D01*
X32207Y75928D01*
X32194Y75899D01*
X32178Y75873D01*
X32158Y75849D01*
X32136Y75827D01*
X32112Y75807D01*
X32086Y75791D01*
X32057Y75778D01*
X32028Y75768D01*
X31997Y75762D01*
X31966Y75759D01*
X31966Y75772D01*
X31996Y75775D01*
X32025Y75781D01*
X32053Y75790D01*
X32080Y75802D01*
X32105Y75818D01*
X32128Y75836D01*
X32149Y75857D01*
X32167Y75880D01*
X32183Y75905D01*
X32195Y75932D01*
X32204Y75960D01*
X32210Y75989D01*
X32213Y76019D01*
X32200Y76019D01*
X32197Y75988D01*
X32190Y75959D01*
X32180Y75930D01*
X32166Y75903D01*
X32149Y75878D01*
X32129Y75856D01*
X32107Y75836D01*
X32082Y75819D01*
X32055Y75805D01*
X32026Y75795D01*
X31997Y75788D01*
X31966Y75785D01*
X31966Y75798D01*
X31995Y75801D01*
X32023Y75807D01*
X32050Y75817D01*
X32075Y75830D01*
X32099Y75846D01*
X32120Y75865D01*
X32139Y75886D01*
X32155Y75910D01*
X32168Y75935D01*
X32178Y75962D01*
X32184Y75990D01*
X32187Y76019D01*
X32174Y76019D01*
X32171Y75992D01*
X32165Y75966D01*
X32156Y75940D01*
X32144Y75916D01*
X32129Y75894D01*
X32111Y75874D01*
X32091Y75856D01*
X32069Y75841D01*
X32045Y75829D01*
X32019Y75820D01*
X31993Y75814D01*
X31966Y75811D01*
X31966Y75824D01*
X31994Y75827D01*
X32020Y75834D01*
X32046Y75844D01*
X32070Y75857D01*
X32092Y75874D01*
X32111Y75893D01*
X32128Y75915D01*
X32141Y75939D01*
X32151Y75965D01*
X32158Y75991D01*
X32161Y76019D01*
X32148Y76019D01*
X32145Y75993D01*
X32139Y75968D01*
X32129Y75944D01*
X32117Y75922D01*
X32101Y75902D01*
X32083Y75884D01*
X32063Y75868D01*
X32041Y75856D01*
X32017Y75846D01*
X31992Y75840D01*
X31966Y75837D01*
X27252Y80844D02*
X27252Y80707D01*
X27252Y80708D02*
X27227Y80705D01*
X27203Y80699D01*
X27180Y80690D01*
X27159Y80678D01*
X27139Y80663D01*
X27122Y80646D01*
X27107Y80626D01*
X27095Y80605D01*
X27086Y80582D01*
X27080Y80558D01*
X27077Y80533D01*
X26941Y80533D01*
X26940Y80533D01*
X26943Y80568D01*
X26949Y80602D01*
X26959Y80635D01*
X26973Y80667D01*
X26990Y80698D01*
X27010Y80726D01*
X27033Y80752D01*
X27059Y80775D01*
X27087Y80795D01*
X27118Y80812D01*
X27150Y80826D01*
X27183Y80836D01*
X27217Y80842D01*
X27252Y80845D01*
X27252Y80832D01*
X27218Y80829D01*
X27186Y80823D01*
X27154Y80813D01*
X27123Y80800D01*
X27094Y80784D01*
X27067Y80765D01*
X27043Y80742D01*
X27020Y80718D01*
X27001Y80691D01*
X26985Y80662D01*
X26972Y80631D01*
X26962Y80599D01*
X26956Y80567D01*
X26953Y80533D01*
X26966Y80533D01*
X26969Y80565D01*
X26975Y80596D01*
X26984Y80627D01*
X26996Y80656D01*
X27012Y80684D01*
X27031Y80710D01*
X27052Y80733D01*
X27075Y80754D01*
X27101Y80773D01*
X27129Y80789D01*
X27158Y80801D01*
X27189Y80810D01*
X27220Y80816D01*
X27252Y80819D01*
X27252Y80806D01*
X27219Y80803D01*
X27187Y80797D01*
X27156Y80786D01*
X27126Y80773D01*
X27099Y80755D01*
X27073Y80735D01*
X27050Y80712D01*
X27030Y80686D01*
X27012Y80659D01*
X26999Y80629D01*
X26988Y80598D01*
X26982Y80566D01*
X26979Y80533D01*
X26992Y80533D01*
X26995Y80564D01*
X27001Y80595D01*
X27011Y80624D01*
X27024Y80653D01*
X27040Y80679D01*
X27060Y80703D01*
X27082Y80725D01*
X27106Y80745D01*
X27132Y80761D01*
X27161Y80774D01*
X27190Y80784D01*
X27221Y80790D01*
X27252Y80793D01*
X27252Y80780D01*
X27222Y80777D01*
X27193Y80771D01*
X27165Y80762D01*
X27138Y80750D01*
X27113Y80734D01*
X27090Y80716D01*
X27069Y80695D01*
X27051Y80672D01*
X27035Y80647D01*
X27023Y80620D01*
X27014Y80592D01*
X27008Y80563D01*
X27005Y80533D01*
X27018Y80533D01*
X27021Y80564D01*
X27028Y80593D01*
X27038Y80622D01*
X27052Y80649D01*
X27069Y80674D01*
X27089Y80696D01*
X27111Y80716D01*
X27136Y80733D01*
X27163Y80747D01*
X27192Y80757D01*
X27221Y80764D01*
X27252Y80767D01*
X27252Y80754D01*
X27223Y80751D01*
X27195Y80745D01*
X27168Y80735D01*
X27143Y80722D01*
X27119Y80706D01*
X27098Y80687D01*
X27079Y80666D01*
X27063Y80642D01*
X27050Y80617D01*
X27040Y80590D01*
X27034Y80562D01*
X27031Y80533D01*
X27044Y80533D01*
X27047Y80560D01*
X27053Y80586D01*
X27062Y80612D01*
X27074Y80636D01*
X27089Y80658D01*
X27107Y80678D01*
X27127Y80696D01*
X27149Y80711D01*
X27173Y80723D01*
X27199Y80732D01*
X27225Y80738D01*
X27252Y80741D01*
X27252Y80728D01*
X27224Y80725D01*
X27198Y80718D01*
X27172Y80708D01*
X27148Y80695D01*
X27126Y80678D01*
X27107Y80659D01*
X27090Y80637D01*
X27077Y80613D01*
X27067Y80587D01*
X27060Y80561D01*
X27057Y80533D01*
X27070Y80533D01*
X27073Y80559D01*
X27079Y80584D01*
X27089Y80608D01*
X27101Y80630D01*
X27117Y80650D01*
X27135Y80668D01*
X27155Y80684D01*
X27177Y80696D01*
X27201Y80706D01*
X27226Y80712D01*
X27252Y80715D01*
X32277Y80533D02*
X32140Y80533D01*
X32141Y80533D02*
X32138Y80558D01*
X32132Y80582D01*
X32123Y80605D01*
X32111Y80626D01*
X32096Y80646D01*
X32079Y80663D01*
X32059Y80678D01*
X32038Y80690D01*
X32015Y80699D01*
X31991Y80705D01*
X31966Y80708D01*
X31966Y80844D01*
X31966Y80845D01*
X32001Y80842D01*
X32035Y80836D01*
X32068Y80826D01*
X32100Y80812D01*
X32131Y80795D01*
X32159Y80775D01*
X32185Y80752D01*
X32208Y80726D01*
X32228Y80698D01*
X32245Y80667D01*
X32259Y80635D01*
X32269Y80602D01*
X32275Y80568D01*
X32278Y80533D01*
X32265Y80533D01*
X32262Y80567D01*
X32256Y80599D01*
X32246Y80631D01*
X32233Y80662D01*
X32217Y80691D01*
X32198Y80718D01*
X32175Y80742D01*
X32151Y80765D01*
X32124Y80784D01*
X32095Y80800D01*
X32064Y80813D01*
X32032Y80823D01*
X32000Y80829D01*
X31966Y80832D01*
X31966Y80819D01*
X31998Y80816D01*
X32029Y80810D01*
X32060Y80801D01*
X32089Y80789D01*
X32117Y80773D01*
X32143Y80754D01*
X32166Y80733D01*
X32187Y80710D01*
X32206Y80684D01*
X32222Y80656D01*
X32234Y80627D01*
X32243Y80596D01*
X32249Y80565D01*
X32252Y80533D01*
X32239Y80533D01*
X32236Y80566D01*
X32230Y80598D01*
X32219Y80629D01*
X32206Y80659D01*
X32188Y80686D01*
X32168Y80712D01*
X32145Y80735D01*
X32119Y80755D01*
X32092Y80773D01*
X32062Y80786D01*
X32031Y80797D01*
X31999Y80803D01*
X31966Y80806D01*
X31966Y80793D01*
X31997Y80790D01*
X32028Y80784D01*
X32057Y80774D01*
X32086Y80761D01*
X32112Y80745D01*
X32136Y80725D01*
X32158Y80703D01*
X32178Y80679D01*
X32194Y80653D01*
X32207Y80624D01*
X32217Y80595D01*
X32223Y80564D01*
X32226Y80533D01*
X32213Y80533D01*
X32210Y80563D01*
X32204Y80592D01*
X32195Y80620D01*
X32183Y80647D01*
X32167Y80672D01*
X32149Y80695D01*
X32128Y80716D01*
X32105Y80734D01*
X32080Y80750D01*
X32053Y80762D01*
X32025Y80771D01*
X31996Y80777D01*
X31966Y80780D01*
X31966Y80767D01*
X31997Y80764D01*
X32026Y80757D01*
X32055Y80747D01*
X32082Y80733D01*
X32107Y80716D01*
X32129Y80696D01*
X32149Y80674D01*
X32166Y80649D01*
X32180Y80622D01*
X32190Y80593D01*
X32197Y80564D01*
X32200Y80533D01*
X32187Y80533D01*
X32184Y80562D01*
X32178Y80590D01*
X32168Y80617D01*
X32155Y80642D01*
X32139Y80666D01*
X32120Y80687D01*
X32099Y80706D01*
X32075Y80722D01*
X32050Y80735D01*
X32023Y80745D01*
X31995Y80751D01*
X31966Y80754D01*
X31966Y80741D01*
X31993Y80738D01*
X32019Y80732D01*
X32045Y80723D01*
X32069Y80711D01*
X32091Y80696D01*
X32111Y80678D01*
X32129Y80658D01*
X32144Y80636D01*
X32156Y80612D01*
X32165Y80586D01*
X32171Y80560D01*
X32174Y80533D01*
X32161Y80533D01*
X32158Y80561D01*
X32151Y80587D01*
X32141Y80613D01*
X32128Y80637D01*
X32111Y80659D01*
X32092Y80678D01*
X32070Y80695D01*
X32046Y80708D01*
X32020Y80718D01*
X31994Y80725D01*
X31966Y80728D01*
X31966Y80715D01*
X31992Y80712D01*
X32017Y80706D01*
X32041Y80696D01*
X32063Y80684D01*
X32083Y80668D01*
X32101Y80650D01*
X32117Y80630D01*
X32129Y80608D01*
X32139Y80584D01*
X32145Y80559D01*
X32148Y80533D01*
D14*
X30529Y79391D02*
X30531Y79435D01*
X30537Y79479D01*
X30547Y79522D01*
X30560Y79564D01*
X30577Y79605D01*
X30598Y79644D01*
X30622Y79681D01*
X30649Y79716D01*
X30679Y79748D01*
X30712Y79778D01*
X30748Y79804D01*
X30785Y79828D01*
X30825Y79847D01*
X30866Y79864D01*
X30909Y79876D01*
X30952Y79885D01*
X30996Y79890D01*
X31040Y79891D01*
X31084Y79888D01*
X31128Y79881D01*
X31171Y79870D01*
X31213Y79856D01*
X31253Y79838D01*
X31292Y79816D01*
X31328Y79792D01*
X31362Y79764D01*
X31394Y79733D01*
X31423Y79699D01*
X31449Y79663D01*
X31471Y79625D01*
X31490Y79585D01*
X31505Y79543D01*
X31517Y79501D01*
X31525Y79457D01*
X31529Y79413D01*
X31529Y79369D01*
X31525Y79325D01*
X31517Y79281D01*
X31505Y79239D01*
X31490Y79197D01*
X31471Y79157D01*
X31449Y79119D01*
X31423Y79083D01*
X31394Y79049D01*
X31362Y79018D01*
X31328Y78990D01*
X31292Y78966D01*
X31253Y78944D01*
X31213Y78926D01*
X31171Y78912D01*
X31128Y78901D01*
X31084Y78894D01*
X31040Y78891D01*
X30996Y78892D01*
X30952Y78897D01*
X30909Y78906D01*
X30866Y78918D01*
X30825Y78935D01*
X30785Y78954D01*
X30748Y78978D01*
X30712Y79004D01*
X30679Y79034D01*
X30649Y79066D01*
X30622Y79101D01*
X30598Y79138D01*
X30577Y79177D01*
X30560Y79218D01*
X30547Y79260D01*
X30537Y79303D01*
X30531Y79347D01*
X30529Y79391D01*
M02*
