G75*
%MOMM*%
%OFA0B0*%
%FSLAX33Y33*%
%IPPOS*%
%LPD*%
%AMOC8*
5,1,8,0,0,1.08239X$1,22.5*
%
%ADD10R,2.000X1.000*%
%ADD11R,1.000X2.000*%
%ADD12R,0.600X1.520*%
%ADD13R,8.001X2.210*%
%ADD14R,0.300X0.750*%
%ADD15R,0.500X2.200*%
%ADD16R,0.180X0.700*%
%ADD17R,0.700X0.180*%
%ADD18R,0.500X0.600*%
%ADD19R,2.692X1.016*%
%ADD20R,10.871X10.465*%
%ADD21R,0.762X0.813*%
D10*
X79170Y94215D03*
X79170Y76215D03*
X33670Y76215D03*
X33670Y82215D03*
X33670Y94215D03*
X33670Y100215D03*
X79170Y80215D03*
X79170Y78215D03*
X79170Y82215D03*
X79170Y92215D03*
X79170Y86215D03*
X79170Y90215D03*
X79170Y88215D03*
X79170Y84215D03*
X79170Y96215D03*
X79170Y98215D03*
X33670Y78215D03*
X33670Y80215D03*
X33670Y96215D03*
X33670Y98215D03*
X79170Y100215D03*
D11*
X55400Y73215D03*
X45240Y73215D03*
X57940Y103215D03*
X60480Y103215D03*
X63020Y103215D03*
X65560Y103215D03*
X68100Y103215D03*
X70640Y103215D03*
X73180Y103215D03*
X75720Y103215D03*
X52860Y103215D03*
X50320Y103215D03*
X47780Y103215D03*
X55400Y103215D03*
X37620Y103215D03*
X50320Y73215D03*
X37620Y73215D03*
X45240Y103215D03*
X57940Y73215D03*
X60480Y73215D03*
X47780Y73215D03*
X52860Y73215D03*
X65560Y73215D03*
X63020Y73215D03*
X42700Y103215D03*
X40160Y103215D03*
X73180Y73215D03*
X75720Y73215D03*
X70640Y73215D03*
X68100Y73215D03*
X42700Y73215D03*
X40160Y73215D03*
D12*
X175670Y86715D03*
X176940Y86715D03*
X178210Y86715D03*
X179480Y86715D03*
X175670Y92195D03*
X176940Y92195D03*
X178210Y92195D03*
X179480Y92195D03*
X170170Y86715D03*
X171440Y86715D03*
X172710Y86715D03*
X173980Y86715D03*
X170170Y92195D03*
X171440Y92195D03*
X172710Y92195D03*
X173980Y92195D03*
X164670Y86715D03*
X165940Y86715D03*
X167210Y86715D03*
X168480Y86715D03*
X164670Y92195D03*
X165940Y92195D03*
X167210Y92195D03*
X168480Y92195D03*
X159170Y86715D03*
X160440Y86715D03*
X161710Y86715D03*
X162980Y86715D03*
X159170Y92195D03*
X160440Y92195D03*
X161710Y92195D03*
X162980Y92195D03*
X142670Y86715D03*
X143940Y86715D03*
X145210Y86715D03*
X146480Y86715D03*
X142670Y92195D03*
X143940Y92195D03*
X145210Y92195D03*
X146480Y92195D03*
X148170Y86715D03*
X149440Y86715D03*
X150710Y86715D03*
X151980Y86715D03*
X148170Y92195D03*
X149440Y92195D03*
X150710Y92195D03*
X151980Y92195D03*
X153670Y86715D03*
X154940Y86715D03*
X156210Y86715D03*
X157480Y86715D03*
X153670Y92195D03*
X154940Y92195D03*
X156210Y92195D03*
X157480Y92195D03*
X137170Y86715D03*
X138440Y86715D03*
X139710Y86715D03*
X140980Y86715D03*
X137170Y92195D03*
X138440Y92195D03*
X139710Y92195D03*
X140980Y92195D03*
X120670Y86715D03*
X121940Y86715D03*
X123210Y86715D03*
X124480Y86715D03*
X120670Y92195D03*
X121940Y92195D03*
X123210Y92195D03*
X124480Y92195D03*
X126170Y86715D03*
X127440Y86715D03*
X128710Y86715D03*
X129980Y86715D03*
X126170Y92195D03*
X127440Y92195D03*
X128710Y92195D03*
X129980Y92195D03*
X131670Y86715D03*
X132940Y86715D03*
X134210Y86715D03*
X135480Y86715D03*
X131670Y92195D03*
X132940Y92195D03*
X134210Y92195D03*
X135480Y92195D03*
X115170Y86715D03*
X116440Y86715D03*
X117710Y86715D03*
X118980Y86715D03*
X115170Y92195D03*
X116440Y92195D03*
X117710Y92195D03*
X118980Y92195D03*
X109670Y86715D03*
X110940Y86715D03*
X112210Y86715D03*
X113480Y86715D03*
X109670Y92195D03*
X110940Y92195D03*
X112210Y92195D03*
X113480Y92195D03*
X104170Y86715D03*
X105440Y86715D03*
X106710Y86715D03*
X107980Y86715D03*
X104170Y92195D03*
X105440Y92195D03*
X106710Y92195D03*
X107980Y92195D03*
X98670Y86715D03*
X99940Y86715D03*
X101210Y86715D03*
X102480Y86715D03*
X98670Y92195D03*
X99940Y92195D03*
X101210Y92195D03*
X102480Y92195D03*
X93170Y86715D03*
X94440Y86715D03*
X95710Y86715D03*
X96980Y86715D03*
X93170Y92195D03*
X94440Y92195D03*
X95710Y92195D03*
X96980Y92195D03*
X82170Y86715D03*
X83440Y86715D03*
X84710Y86715D03*
X85980Y86715D03*
X82170Y92195D03*
X83440Y92195D03*
X84710Y92195D03*
X85980Y92195D03*
X87670Y86715D03*
X88940Y86715D03*
X90210Y86715D03*
X91480Y86715D03*
X87670Y92195D03*
X88940Y92195D03*
X90210Y92195D03*
X91480Y92195D03*
D13*
X103670Y96857D03*
X103670Y102572D03*
D14*
X135670Y71715D03*
X136320Y71715D03*
X136970Y71715D03*
X137620Y71715D03*
X138270Y71715D03*
X138920Y71715D03*
X139570Y71715D03*
X140220Y71715D03*
X140870Y71715D03*
X141520Y71715D03*
X142170Y71715D03*
X142820Y71715D03*
X143470Y71715D03*
X144120Y71715D03*
X135670Y77365D03*
X136320Y77365D03*
X136970Y77365D03*
X137620Y77365D03*
X138270Y77365D03*
X138920Y77365D03*
X139570Y77365D03*
X140220Y77365D03*
X140870Y77365D03*
X141520Y77365D03*
X142170Y77365D03*
X142820Y77365D03*
X143470Y77365D03*
X144120Y77365D03*
D15*
X31514Y81430D03*
X30254Y81430D03*
X28984Y81430D03*
X27714Y81430D03*
X31514Y75122D03*
X30244Y75122D03*
X28974Y75122D03*
X27704Y75122D03*
D16*
X179170Y100715D03*
X178670Y100715D03*
X178170Y100715D03*
X177670Y100715D03*
X177170Y100715D03*
X176670Y100715D03*
X176170Y100715D03*
X175670Y100715D03*
X175170Y100715D03*
X174670Y100715D03*
X174170Y100715D03*
X173670Y100715D03*
X173170Y100715D03*
X172670Y100715D03*
X172170Y100715D03*
X171670Y100715D03*
X171170Y100715D03*
X170670Y100715D03*
D17*
X30670Y103015D03*
X30670Y102515D03*
X30670Y102015D03*
X30670Y101515D03*
D18*
X177670Y80215D03*
X176720Y82215D03*
X178620Y82215D03*
X172170Y80215D03*
X171220Y82215D03*
X173120Y82215D03*
X166670Y80215D03*
X165720Y82215D03*
X167620Y82215D03*
X161170Y80215D03*
X160220Y82215D03*
X162120Y82215D03*
X139170Y80215D03*
X138220Y82215D03*
X140120Y82215D03*
X155670Y80215D03*
X154720Y82215D03*
X156620Y82215D03*
X150170Y80215D03*
X149220Y82215D03*
X151120Y82215D03*
X144670Y80215D03*
X143720Y82215D03*
X145620Y82215D03*
X122670Y80215D03*
X121720Y82215D03*
X123620Y82215D03*
X128170Y80215D03*
X127220Y82215D03*
X129120Y82215D03*
X133670Y80215D03*
X132720Y82215D03*
X134620Y82215D03*
X117170Y80215D03*
X116220Y82215D03*
X118120Y82215D03*
X95170Y80215D03*
X94220Y82215D03*
X96120Y82215D03*
X100670Y80215D03*
X99720Y82215D03*
X101620Y82215D03*
X106170Y80215D03*
X105220Y82215D03*
X107120Y82215D03*
X111670Y80215D03*
X110720Y82215D03*
X112620Y82215D03*
X84170Y80215D03*
X83220Y82215D03*
X85120Y82215D03*
X89670Y80215D03*
X88720Y82215D03*
X90620Y82215D03*
D19*
X112389Y103618D03*
X112389Y101917D03*
X112389Y100215D03*
X112389Y98513D03*
X112389Y96811D03*
D20*
X120670Y100215D03*
D21*
X171945Y84715D03*
X170395Y84715D03*
X177444Y84715D03*
X175895Y84715D03*
X166445Y84715D03*
X164895Y84715D03*
X160945Y84715D03*
X159395Y84715D03*
X144445Y84715D03*
X142895Y84715D03*
X149945Y84715D03*
X148395Y84715D03*
X155445Y84715D03*
X153895Y84715D03*
X137395Y84715D03*
X138945Y84715D03*
X122444Y84715D03*
X120895Y84715D03*
X127944Y84715D03*
X126395Y84715D03*
X133445Y84715D03*
X131895Y84715D03*
X116944Y84715D03*
X115395Y84715D03*
X94944Y84715D03*
X93395Y84715D03*
X99944Y84715D03*
X98395Y84715D03*
X106444Y84715D03*
X104895Y84715D03*
X111444Y84715D03*
X109895Y84715D03*
X83945Y84715D03*
X82395Y84715D03*
X89444Y84715D03*
X87895Y84715D03*
M02*
